# File generated by ImageToStl.com - Free Image and 3D model conversion tools

o obj1
v 10.00848866 0.1562037 -0.13591945
v 10.10952282 0.17263964 -0.14298443
v 10.31250668 0.17024997 2.75427008
v 10.21147251 0.15381405 2.76133513
v 10.17638493 0.2503325 -0.14760472
v 10.37936878 0.24794284 2.74964976
v 10.17778873 0.35292894 -0.14761843
v 10.38077164 0.35053927 2.74963617
v 10.11307716 0.43242294 -0.14301914
v 10.31606102 0.4300333 2.75423551
v 10.01253033 0.45161837 -0.13595892
v 10.21551418 0.44922873 2.76129556
v 9.92319489 0.40153351 -0.12974131
v 10.12617874 0.39914384 2.76751328
v 9.88687134 0.30560356 -0.12727562
v 10.08985519 0.30321392 2.769979
v 9.92055702 0.20871526 -0.12971555
v 10.12354088 0.20632561 2.76753902
v 7.53512859 0.13337351 0.03734714
v 7.63616276 0.14980945 0.03028215
v 7.83914661 0.14741978 2.92753673
v 7.73811245 0.13098386 2.93460178
v 7.70302439 0.2275023 0.02566186
v 7.90600824 0.22511265 2.92291641
v 7.7044282 0.33009875 0.02564815
v 7.90741158 0.32770908 2.92290282
v 7.63971663 0.40959275 0.03024744
v 7.84270048 0.40720311 2.92750192
v 7.53916979 0.42878819 0.03730766
v 7.74215364 0.42639855 2.93456221
v 7.44983435 0.37870333 0.04352527
v 7.65281773 0.37631366 2.94077992
v 7.41351128 0.28277338 0.04599097
v 7.61649466 0.28038374 2.94324565
v 7.44719648 0.18588507 0.04355103
v 7.65018034 0.18349542 2.94080567
v 3.06162572 1.58434713 0.35196075
v 3.16266012 1.60078299 0.34489575
v 3.36564374 1.59839344 3.24215031
v 3.26460934 1.58195746 3.24921536
v 3.22952175 1.67847586 0.34027547
v 3.43250537 1.67608619 3.23752999
v 3.23092508 1.78107238 0.34026176
v 3.43390894 1.77868271 3.2375164
v 3.16621399 1.86056638 0.34486103
v 3.36919761 1.85817671 3.24211574
v 3.06566691 1.87976182 0.35192126
v 3.26865077 1.87737215 3.24917579
v 2.97633147 1.82967687 0.35813889
v 3.17931509 1.82728732 3.25539351
v 2.94000816 1.73374701 0.36060458
v 3.14299202 1.73135734 3.25785923
v 2.97369361 1.6368587 0.35816464
v 3.17667747 1.63446903 3.25541925
v 2.26743364 1.8378824 0.40781152
v 2.36846805 1.85431838 0.40074655
v 2.5714519 1.85192871 3.29800105
v 2.4704175 1.83549273 3.30506611
v 2.43532968 1.93201125 0.39612624
v 2.63831329 1.92962158 3.29338074
v 2.43673325 2.03460765 0.39611253
v 2.63971686 2.03221798 3.29336715
v 2.37202191 2.11410165 0.40071183
v 2.57500553 2.11171198 3.29796648
v 2.27147484 2.1332972 0.40777206
v 2.47445869 2.13090754 3.30502653
v 2.1821394 2.08321214 0.41398966
v 2.38512301 2.08082247 3.31124425
v 2.14581633 1.98728228 0.41645536
v 2.34879994 1.98489261 3.31370997
v 2.17950153 1.89039397 0.41401541
v 2.38248539 1.8880043 3.31127
v 1.43786716 1.98169577 0.46605018
v 1.53890157 1.99813175 0.45898518
v 1.7418853 1.99574208 3.3562398
v 1.6408509 1.9793061 3.36330485
v 1.6057632 2.0758245 0.4543649
v 1.80874693 2.07343483 3.35161948
v 1.60716665 2.17842102 0.45435119
v 1.81015038 2.17603135 3.35160565
v 1.54245543 2.25791502 0.45895046
v 1.74543917 2.25552535 3.35620499
v 1.44190848 2.27711034 0.46601069
v 1.64489222 2.27472091 3.36326528
v 1.3525728 2.22702551 0.47222829
v 1.55555665 2.22463584 3.36948299
v 1.31624973 2.13109565 0.47469401
v 1.51923347 2.12870598 3.37194848
v 1.34993505 2.03420734 0.47225407
v 1.55291891 2.03181767 3.36950874
v 8.34115124 0.09620941 -0.59071332
v 8.4421854 0.11264533 -0.59777832
v 8.72486591 0.10931744 3.43701053
v 8.6238308 0.09288151 3.44407558
v 8.50904655 0.19033819 -0.60239857
v 8.79172707 0.18701029 3.43239021
v 8.51045036 0.29293463 -0.60241228
v 8.79313087 0.28960675 3.43237638
v 8.44573879 0.37242866 -0.59781301
v 8.7284193 0.36910075 3.43697572
v 8.34519196 0.39162409 -0.59075278
v 8.62787247 0.38829619 3.44403601
v 8.25585651 0.3415392 -0.58453518
v 8.53853703 0.3382113 3.45025349
v 8.21953392 0.24560927 -0.58206952
v 8.50221348 0.24228138 3.45271921
v 8.25321865 0.14872096 -0.58450943
v 8.53589916 0.14539307 3.45027947
v 6.79965019 0.25306618 -0.48258528
v 6.90068436 0.2695021 -0.48965025
v 7.18336439 0.26617423 3.5451386
v 7.08233023 0.24973829 3.55220342
v 6.96754599 0.34719497 -0.49427053
v 7.25022602 0.34386709 3.54051828
v 6.96894932 0.44979143 -0.49428424
v 7.25162983 0.44646353 3.54050446
v 6.90423822 0.52928543 -0.48968497
v 7.18691826 0.52595752 3.54510379
v 6.80369139 0.54848087 -0.48262474
v 7.08637142 0.54515296 3.55216408
v 6.71435547 0.49839598 -0.47640714
v 6.99703598 0.4950681 3.55838156
v 6.6780324 0.40246606 -0.47394145
v 6.96071291 0.39913815 3.56084728
v 6.71171808 0.30557775 -0.47638136
v 6.99439812 0.30224985 3.55840731
v 5.15590572 0.70430541 -0.36705118
v 5.25694036 0.72074133 -0.37411618
v 5.5396204 0.71741343 3.66067266
v 5.43858624 0.7009775 3.66773748
v 5.32380199 0.7984342 -0.37873647
v 5.60648203 0.79510629 3.65605235
v 5.32520533 0.90103066 -0.37875018
v 5.60788584 0.89770275 3.65603852
v 5.26049423 0.98052466 -0.3741509
v 5.54317427 0.97719675 3.66063786
v 5.1599474 0.9997201 -0.36709067
v 5.44262743 0.99639219 3.66769814
v 5.07061148 0.94963521 -0.36087307
v 5.35329199 0.9463073 3.67391562
v 5.03428841 0.85370529 -0.35840735
v 5.31696892 0.85037738 3.67638135
v 5.06797361 0.75681698 -0.36084729
v 5.35065413 0.75348908 3.67394161
v 3.73411155 1.32460535 -0.26692763
v 3.83514595 1.34104133 -0.2739926
v 4.11782598 1.33771336 3.76079607
v 4.01679182 1.3212775 3.76786113
v 3.90200758 1.41873419 -0.27861291
v 4.18468761 1.41540623 3.75617599
v 3.90341115 1.5213306 -0.27862662
v 4.18609142 1.51800275 3.75616217
v 3.83869982 1.60082459 -0.27402732
v 4.12137985 1.59749675 3.7607615
v 3.73815274 1.62002003 -0.26696712
v 4.02083302 1.61669219 3.76782179
v 3.6488173 1.5699352 -0.26074949
v 3.93149757 1.56660724 3.77403927
v 3.61249423 1.47400522 -0.25828379
v 3.89517426 1.47067738 3.77650499
v 3.64617944 1.37711692 -0.26072374
v 3.92885971 1.37378907 3.77406502
v 4.5138588 0.97223437 0.24971136
v 4.61489344 0.98867029 0.24264638
v 4.81787682 0.98628062 3.13990092
v 4.71684265 0.9698447 3.14696598
v 4.68175507 1.0663631 0.23802608
v 4.88473845 1.06397355 3.13528061
v 4.6831584 1.16895962 0.23801237
v 4.88614225 1.16656995 3.13526702
v 4.6184473 1.24845362 0.24261166
v 4.82143068 1.24606395 3.13986635
v 4.51789999 1.26764905 0.24967189
v 4.72088385 1.26525939 3.1469264
v 4.42856455 1.21756411 0.25588951
v 4.6315484 1.21517456 3.15314412
v 4.39224148 1.12163424 0.2583552
v 4.59522533 1.11924458 3.15560985
v 4.42592669 1.02474594 0.25591525
v 4.62891054 1.02235627 3.15316987
v 9.13620377 0.07522184 -0.07487332
v 9.23723793 0.09165777 -0.0819383
v 9.44022179 0.08926811 2.8153162
v 9.33918762 0.07283219 2.82238126
v 9.30410004 0.16935062 -0.0865586
v 9.50708389 0.16696097 2.81069589
v 9.30550289 0.27194709 -0.0865723
v 9.50848675 0.26955742 2.8106823
v 9.24079227 0.35144109 -0.08197302
v 9.44377613 0.34905142 2.81528163
v 9.14024544 0.37063652 -0.07491279
v 9.34322834 0.36824688 2.82234168
v 9.05090904 0.32055163 -0.06869519
v 9.2538929 0.31816199 2.8285594
v 9.01458645 0.22462171 -0.06622948
v 9.2175703 0.22223206 2.83102512
v 9.04827213 0.12773341 -0.06866942
v 9.25125504 0.12534375 2.82858515
v 10.87209892 0.26796061 -0.1963324
v 10.97313309 0.28439653 -0.20339738
v 11.17611694 0.28200689 2.69385719
v 11.07508278 0.26557097 2.70092225
v 11.03999424 0.3620894 -0.20801766
v 11.2429781 0.35969976 2.68923688
v 11.04139805 0.46468583 -0.20803137
v 11.2443819 0.46229619 2.68922329
v 10.97668648 0.54417986 -0.20343208
v 11.17967033 0.54179019 2.69382238
v 10.87613964 0.56337529 -0.19637187
v 11.0791235 0.56098562 2.70088267
v 10.7868042 0.51329041 -0.19015425
v 10.98978806 0.51090074 2.70710039
v 10.75048161 0.41736048 -0.18768856
v 10.95346451 0.41497082 2.70956612
v 10.78416634 0.32047218 -0.19012849
v 10.98715019 0.31808251 2.70712614
vn 0.15974 -0.98709 -0.01201
vn 0.15974 -0.98709 -0.01201
vn 0.7553 -0.65319 -0.05346
vn 0.7553 -0.65319 -0.05346
vn 0.99746 -0.01366 -0.06989
vn 0.99746 -0.01365 -0.06989
vn 0.77289 0.63227 -0.05363
vn 0.7729 0.63226 -0.05363
vn 0.18668 0.98234 -0.01227
vn 0.18668 0.98234 -0.01227
vn -0.48688 0.87277 0.03483
vn -0.48688 0.87277 0.03483
vn -0.93263 0.35482 0.06563
vn -0.93263 0.35482 0.06563
vn -0.94198 -0.32916 0.06572
vn -0.94198 -0.32916 0.06572
vn -0.51058 -0.85912 0.03506
vn -0.06989 0.00082 -0.99755
vn -0.06989 0.00082 -0.99755
vn -0.06989 0.00082 -0.99755
vn -0.06989 0.00082 -0.99755
vn -0.06989 0.00082 -0.99755
vn -0.06989 0.00082 -0.99755
vn -0.06989 0.00082 -0.99755
vn 0.06989 -0.00082 0.99755
vn 0.06989 -0.00082 0.99755
vn 0.06989 -0.00082 0.99755
vn 0.06989 -0.00082 0.99755
vn 0.06989 -0.00082 0.99755
vn 0.06989 -0.00082 0.99755
vn 0.06989 -0.00082 0.99755
vn 0.15974 -0.98709 -0.01201
vn 0.15974 -0.98709 -0.01201
vn 0.75531 -0.65319 -0.05346
vn 0.75531 -0.65319 -0.05346
vn 0.99746 -0.01366 -0.06989
vn 0.99746 -0.01365 -0.06989
vn 0.77289 0.63227 -0.05363
vn 0.77289 0.63227 -0.05363
vn -0.48688 0.87277 0.03483
vn -0.48688 0.87277 0.03483
vn -0.93263 0.35482 0.06563
vn -0.93263 0.35482 0.06563
vn -0.94199 -0.32916 0.06572
vn -0.94198 -0.32916 0.06572
vn -0.51058 -0.85912 0.03506
vn -0.06989 0.00082 -0.99755
vn -0.06989 0.00082 -0.99755
vn -0.06989 0.00082 -0.99755
vn -0.06989 0.00082 -0.99755
vn -0.06989 0.00082 -0.99755
vn -0.06989 0.00082 -0.99755
vn -0.06989 0.00082 -0.99755
vn 0.06989 -0.00082 0.99755
vn 0.06989 -0.00082 0.99755
vn 0.06989 -0.00082 0.99755
vn 0.06989 -0.00082 0.99755
vn 0.06989 -0.00082 0.99755
vn 0.06989 -0.00082 0.99755
vn 0.06989 -0.00082 0.99755
vn 0.15974 -0.98709 -0.01201
vn 0.15974 -0.98709 -0.01201
vn 0.75531 -0.65319 -0.05346
vn 0.75531 -0.65319 -0.05346
vn 0.99746 -0.01365 -0.06989
vn 0.99746 -0.01366 -0.06989
vn 0.77289 0.63227 -0.05363
vn 0.77289 0.63227 -0.05363
vn 0.18668 0.98234 -0.01227
vn 0.18668 0.98234 -0.01227
vn -0.48689 0.87277 0.03483
vn -0.48688 0.87277 0.03483
vn -0.93263 0.35482 0.06563
vn -0.93263 0.35482 0.06563
vn -0.94198 -0.32916 0.06572
vn -0.51058 -0.85912 0.03506
vn -0.51058 -0.85912 0.03506
vn -0.06989 0.00082 -0.99755
vn -0.06989 0.00082 -0.99755
vn -0.06989 0.00082 -0.99755
vn -0.06989 0.00082 -0.99755
vn -0.06989 0.00082 -0.99755
vn -0.06989 0.00082 -0.99755
vn -0.06989 0.00082 -0.99755
vn 0.06989 -0.00082 0.99755
vn 0.06989 -0.00082 0.99755
vn 0.06989 -0.00082 0.99755
vn 0.06989 -0.00082 0.99755
vn 0.06989 -0.00082 0.99755
vn 0.06989 -0.00082 0.99755
vn 0.06989 -0.00082 0.99755
vn 0.15974 -0.98709 -0.01201
vn 0.15974 -0.98709 -0.01201
vn 0.75531 -0.65319 -0.05346
vn 0.99746 -0.01366 -0.06989
vn 0.99746 -0.01366 -0.06989
vn 0.77289 0.63227 -0.05363
vn 0.18668 0.98234 -0.01227
vn 0.18668 0.98234 -0.01227
vn -0.48689 0.87277 0.03483
vn -0.48689 0.87277 0.03483
vn -0.93263 0.35482 0.06563
vn -0.94198 -0.32916 0.06572
vn -0.51058 -0.85912 0.03506
vn -0.06989 0.00082 -0.99755
vn -0.06989 0.00082 -0.99755
vn -0.06989 0.00082 -0.99755
vn -0.06989 0.00082 -0.99755
vn -0.06989 0.00082 -0.99755
vn -0.06989 0.00082 -0.99755
vn -0.06989 0.00082 -0.99755
vn 0.06989 -0.00082 0.99755
vn 0.06989 -0.00082 0.99755
vn 0.06989 -0.00082 0.99755
vn 0.06989 -0.00082 0.99755
vn 0.06989 -0.00082 0.99755
vn 0.06989 -0.00082 0.99755
vn 0.15974 -0.98709 -0.01201
vn 0.75531 -0.65319 -0.05346
vn 0.75531 -0.65319 -0.05346
vn 0.99746 -0.01365 -0.06989
vn 0.99746 -0.01365 -0.06989
vn 0.77289 0.63227 -0.05363
vn 0.18668 0.98234 -0.01227
vn 0.18668 0.98234 -0.01227
vn -0.48688 0.87277 0.03483
vn -0.48689 0.87277 0.03483
vn -0.93263 0.35482 0.06563
vn -0.93263 0.35482 0.06563
vn -0.94199 -0.32916 0.06572
vn -0.94198 -0.32916 0.06572
vn -0.51058 -0.85912 0.03506
vn -0.51058 -0.85912 0.03506
vn -0.06989 0.00082 -0.99755
vn -0.06989 0.00082 -0.99755
vn -0.06989 0.00082 -0.99755
vn -0.06989 0.00082 -0.99755
vn -0.06989 0.00082 -0.99755
vn -0.06989 0.00082 -0.99755
vn -0.06989 0.00082 -0.99755
vn 0.06989 -0.00082 0.99755
vn 0.06989 -0.00082 0.99755
vn 0.06989 -0.00082 0.99755
vn 0.06989 -0.00083 0.99755
vn 0.06989 -0.00082 0.99755
vn 0.06989 -0.00082 0.99755
vn 0.15974 -0.98709 -0.01201
vn 0.15974 -0.98709 -0.01201
vn 0.75531 -0.65319 -0.05346
vn 0.75531 -0.65319 -0.05346
vn 0.99746 -0.01366 -0.06989
vn 0.99746 -0.01366 -0.06989
vn 0.77289 0.63227 -0.05363
vn 0.77289 0.63227 -0.05363
vn 0.18668 0.98234 -0.01227
vn -0.48689 0.87277 0.03483
vn -0.48689 0.87277 0.03483
vn -0.93263 0.35481 0.06563
vn -0.93263 0.35482 0.06563
vn -0.94199 -0.32915 0.06572
vn -0.94198 -0.32916 0.06572
vn -0.51057 -0.85912 0.03506
vn -0.51058 -0.85912 0.03506
vn -0.06989 0.00082 -0.99755
vn -0.06989 0.00082 -0.99755
vn -0.06989 0.00082 -0.99755
vn -0.06989 0.00082 -0.99755
vn -0.06989 0.00082 -0.99755
vn -0.06989 0.00082 -0.99755
vn -0.06989 0.00082 -0.99755
vn 0.06989 -0.00082 0.99755
vn 0.06989 -0.00082 0.99755
vn 0.06989 -0.00082 0.99755
vn 0.06989 -0.00082 0.99755
vn 0.06989 -0.00083 0.99755
vn 0.06989 -0.00082 0.99755
vn 0.15974 -0.98709 -0.01201
vn 0.15974 -0.98709 -0.01201
vn 0.75531 -0.65319 -0.05346
vn 0.99746 -0.01365 -0.06989
vn 0.99746 -0.01366 -0.06989
vn 0.77289 0.63227 -0.05363
vn 0.77289 0.63227 -0.05363
vn 0.18668 0.98234 -0.01227
vn -0.48688 0.87277 0.03483
vn -0.48688 0.87277 0.03483
vn -0.93263 0.35482 0.06563
vn -0.93263 0.35482 0.06563
vn -0.94198 -0.32916 0.06572
vn -0.94199 -0.32916 0.06572
vn -0.51058 -0.85912 0.03506
vn -0.51058 -0.85912 0.03506
vn -0.06989 0.00082 -0.99755
vn -0.06989 0.00082 -0.99755
vn -0.06989 0.00082 -0.99755
vn -0.06989 0.00082 -0.99755
vn -0.06989 0.00082 -0.99755
vn -0.06989 0.00082 -0.99755
vn -0.06989 0.00082 -0.99755
vn 0.06989 -0.00082 0.99755
vn 0.06989 -0.00082 0.99755
vn 0.06989 -0.00082 0.99755
vn 0.06989 -0.00082 0.99755
vn 0.06989 -0.00082 0.99755
vn 0.06989 -0.00083 0.99755
vn 0.06989 -0.00082 0.99755
vn 0.15974 -0.98709 -0.01201
vn 0.15974 -0.98709 -0.01201
vn 0.75531 -0.65319 -0.05346
vn 0.99746 -0.01366 -0.06989
vn -0.48688 0.87277 0.03483
vn -0.48689 0.87277 0.03483
vn -0.93263 0.35482 0.06563
vn -0.94199 -0.32916 0.06572
vn -0.94199 -0.32916 0.06572
vn -0.51058 -0.85912 0.03506
vn -0.51058 -0.85912 0.03506
vn -0.06989 0.00082 -0.99755
vn -0.06989 0.00082 -0.99755
vn -0.06989 0.00082 -0.99755
vn 0.06989 -0.00082 0.99755
vn 0.06989 -0.00082 0.99755
vn 0.06989 -0.00082 0.99755
vn 0.06989 -0.00082 0.99755
vn 0.15974 -0.98709 -0.01201
vn 0.75531 -0.65319 -0.05346
vn 0.75531 -0.65319 -0.05346
vn 0.99746 -0.01366 -0.06989
vn 0.99746 -0.01366 -0.06989
vn 0.77289 0.63227 -0.05363
vn 0.77289 0.63227 -0.05363
vn 0.18668 0.98234 -0.01227
vn 0.18668 0.98234 -0.01227
vn -0.48688 0.87277 0.03483
vn -0.48689 0.87277 0.03483
vn -0.93263 0.35482 0.06563
vn -0.93263 0.35482 0.06563
vn -0.94199 -0.32916 0.06572
vn -0.94198 -0.32916 0.06572
vn -0.51058 -0.85912 0.03506
vn -0.06989 0.00082 -0.99755
vn -0.06989 0.00082 -0.99755
vn 0.06989 -0.00083 0.99755
vn 0.06989 -0.00082 0.99755
vn 0.06989 -0.00082 0.99755
vn 0.06989 -0.00082 0.99755
vn 0.06989 -0.00083 0.99755
vn 0.06989 -0.00082 0.99755
vn 0.15974 -0.98709 -0.01201
vn 0.15974 -0.98709 -0.01201
vn 0.75531 -0.65319 -0.05346
vn 0.75531 -0.65319 -0.05346
vn 0.99746 -0.01366 -0.06989
vn 0.77289 0.63227 -0.05363
vn 0.77289 0.63227 -0.05363
vn 0.18668 0.98234 -0.01227
vn 0.18668 0.98234 -0.01227
vn -0.48689 0.87277 0.03483
vn -0.48688 0.87277 0.03483
vn -0.93263 0.35482 0.06563
vn -0.93263 0.35482 0.06563
vn -0.94199 -0.32916 0.06572
vn -0.06989 0.00082 -0.99755
vn -0.06989 0.00082 -0.99755
vn -0.06989 0.00082 -0.99755
vn -0.06989 0.00082 -0.99755
vn -0.06989 0.00082 -0.99755
vn 0.06989 -0.00082 0.99755
vn 0.06989 -0.00082 0.99755
vn 0.06989 -0.00082 0.99755
vn 0.06989 -0.00082 0.99755
vn 0.06989 -0.00082 0.99755
vn 0.15974 -0.98709 -0.01201
vn 0.7553 -0.65319 -0.05346
vn 0.7553 -0.65319 -0.05346
vn 0.99746 -0.01365 -0.06989
vn 0.99746 -0.01365 -0.06989
vn 0.7729 0.63226 -0.05363
vn 0.18668 0.98234 -0.01227
vn 0.18668 0.98234 -0.01227
vn -0.48688 0.87277 0.03483
vn -0.48688 0.87277 0.03483
vn -0.93263 0.35481 0.06563
vn -0.93263 0.35481 0.06563
vn -0.94198 -0.32916 0.06572
vn -0.94199 -0.32915 0.06572
vn -0.51058 -0.85912 0.03506
vn -0.51057 -0.85912 0.03506
vn -0.06989 0.00082 -0.99755
vn -0.06989 0.00082 -0.99755
vn -0.06989 0.00082 -0.99755
vn -0.06989 0.00082 -0.99755
vn -0.06989 0.00082 -0.99755
vn -0.06989 0.00082 -0.99755
vn -0.06989 0.00082 -0.99755
vn 0.06989 -0.00082 0.99755
vn 0.06989 -0.00082 0.99755
vn 0.06989 -0.00082 0.99755
vn 0.06989 -0.00082 0.99755
vn 0.06989 -0.00082 0.99755
vn 0.06989 -0.00082 0.99755
vn 0.15974 -0.98709 -0.01201
vn 0.15974 -0.98709 -0.01201
vn 0.75531 -0.65319 -0.05346
vn 0.99746 -0.01366 -0.06989
vn 0.99746 -0.01366 -0.06989
vn 0.77289 0.63227 -0.05363
vn 0.77289 0.63227 -0.05363
vn -0.48689 0.87277 0.03483
vn -0.48688 0.87277 0.03483
vn -0.93263 0.35481 0.06563
vn -0.94199 -0.32915 0.06572
vn -0.94198 -0.32916 0.06572
vn -0.51057 -0.85912 0.03506
vn -0.51057 -0.85912 0.03506
vn -0.06989 0.00082 -0.99755
vn -0.06989 0.00082 -0.99755
vn -0.06989 0.00082 -0.99755
vn -0.06989 0.00082 -0.99755
vn -0.06989 0.00082 -0.99755
vn -0.06989 0.00082 -0.99755
vn -0.06989 0.00082 -0.99755
vn 0.06989 -0.00082 0.99755
vn 0.06989 -0.00082 0.99755
vn 0.06989 -0.00082 0.99755
vn 0.06989 -0.00082 0.99755
vn 0.06989 -0.00082 0.99755
vn 0.06989 -0.00082 0.99755
vn 0.06989 -0.00082 0.99755
f 1//1 2//1 3//1
f 1//2 3//2 4//2
f 2//3 5//3 6//3
f 2//4 6//4 3//4
f 5//5 7//5 8//5
f 5//6 8//6 6//6
f 7//7 9//7 10//7
f 7//8 10//8 8//8
f 9//9 11//9 12//9
f 9//10 12//10 10//10
f 11//11 13//11 14//11
f 11//12 14//12 12//12
f 13//13 15//13 16//13
f 13//14 16//14 14//14
f 15//15 17//15 18//15
f 15//16 18//16 16//16
f 17//17 1//17 4//17
f 17//17 4//17 18//17
f 1//18 5//18 2//18
f 1//19 17//19 15//19
f 7//20 5//20 1//20
f 15//21 9//21 7//21
f 15//22 13//22 9//22
f 11//23 9//23 13//23
f 1//24 15//24 7//24
f 4//25 3//25 6//25
f 4//26 16//26 18//26
f 8//27 4//27 6//27
f 16//28 8//28 10//28
f 16//29 10//29 14//29
f 12//30 14//30 10//30
f 4//31 8//31 16//31
f 19//32 20//32 21//32
f 19//33 21//33 22//33
f 20//34 23//34 24//34
f 20//35 24//35 21//35
f 23//36 25//36 26//36
f 23//37 26//37 24//37
f 25//38 27//38 28//38
f 25//39 28//39 26//39
f 27//9 29//9 30//9
f 27//9 30//9 28//9
f 29//40 31//40 32//40
f 29//41 32//41 30//41
f 31//42 33//42 34//42
f 31//43 34//43 32//43
f 33//44 35//44 36//44
f 33//45 36//45 34//45
f 35//46 19//46 22//46
f 35//46 22//46 36//46
f 19//47 23//47 20//47
f 19//48 35//48 33//48
f 25//49 23//49 19//49
f 33//50 27//50 25//50
f 33//51 31//51 27//51
f 29//52 27//52 31//52
f 19//53 33//53 25//53
f 22//54 21//54 24//54
f 22//55 34//55 36//55
f 26//56 22//56 24//56
f 34//57 26//57 28//57
f 34//58 28//58 32//58
f 30//59 32//59 28//59
f 22//60 26//60 34//60
f 37//61 38//61 39//61
f 37//62 39//62 40//62
f 38//63 41//63 42//63
f 38//64 42//64 39//64
f 41//65 43//65 44//65
f 41//66 44//66 42//66
f 43//67 45//67 46//67
f 43//68 46//68 44//68
f 45//69 47//69 48//69
f 45//70 48//70 46//70
f 47//71 49//71 50//71
f 47//72 50//72 48//72
f 49//73 51//73 52//73
f 49//74 52//74 50//74
f 51//75 53//75 54//75
f 51//75 54//75 52//75
f 53//76 37//76 40//76
f 53//77 40//77 54//77
f 37//78 41//78 38//78
f 37//79 53//79 51//79
f 43//80 41//80 37//80
f 51//81 45//81 43//81
f 51//82 49//82 45//82
f 47//83 45//83 49//83
f 37//84 51//84 43//84
f 40//85 39//85 42//85
f 40//86 52//86 54//86
f 44//87 40//87 42//87
f 52//88 44//88 46//88
f 52//89 46//89 50//89
f 48//90 50//90 46//90
f 40//91 44//91 52//91
f 55//92 56//92 57//92
f 55//93 57//93 58//93
f 56//63 59//63 60//63
f 56//94 60//94 57//94
f 59//95 61//95 62//95
f 59//96 62//96 60//96
f 61//97 63//97 64//97
f 61//97 64//97 62//97
f 63//98 65//98 66//98
f 63//99 66//99 64//99
f 65//100 67//100 68//100
f 65//101 68//101 66//101
f 67//102 69//102 70//102
f 67//102 70//102 68//102
f 69//44 71//44 72//44
f 69//103 72//103 70//103
f 71//104 55//104 58//104
f 71//104 58//104 72//104
f 55//105 59//105 56//105
f 55//106 71//106 69//106
f 61//107 59//107 55//107
f 69//108 63//108 61//108
f 69//109 67//109 63//109
f 65//110 63//110 67//110
f 55//111 69//111 61//111
f 58//112 57//112 60//112
f 58//113 70//113 72//113
f 62//114 58//114 60//114
f 70//88 62//88 64//88
f 70//115 64//115 68//115
f 66//116 68//116 64//116
f 58//117 62//117 70//117
f 73//118 74//118 75//118
f 73//118 75//118 76//118
f 74//119 77//119 78//119
f 74//120 78//120 75//120
f 77//121 79//121 80//121
f 77//122 80//122 78//122
f 79//123 81//123 82//123
f 79//123 82//123 80//123
f 81//124 83//124 84//124
f 81//125 84//125 82//125
f 83//126 85//126 86//126
f 83//127 86//127 84//127
f 85//128 87//128 88//128
f 85//129 88//129 86//129
f 87//130 89//130 90//130
f 87//131 90//131 88//131
f 89//132 73//132 76//132
f 89//133 76//133 90//133
f 73//134 77//134 74//134
f 73//135 89//135 87//135
f 79//136 77//136 73//136
f 87//137 81//137 79//137
f 87//138 85//138 81//138
f 83//139 81//139 85//139
f 73//140 87//140 79//140
f 76//85 75//85 78//85
f 76//141 88//141 90//141
f 80//142 76//142 78//142
f 88//143 80//143 82//143
f 88//144 82//144 86//144
f 84//145 86//145 82//145
f 76//146 80//146 88//146
f 91//147 92//147 93//147
f 91//148 93//148 94//148
f 92//149 95//149 96//149
f 92//150 96//150 93//150
f 95//151 97//151 98//151
f 95//152 98//152 96//152
f 97//153 99//153 100//153
f 97//154 100//154 98//154
f 99//155 101//155 102//155
f 99//155 102//155 100//155
f 101//156 103//156 104//156
f 101//157 104//157 102//157
f 103//158 105//158 106//158
f 103//159 106//159 104//159
f 105//160 107//160 108//160
f 105//161 108//161 106//161
f 107//162 91//162 94//162
f 107//163 94//163 108//163
f 91//164 95//164 92//164
f 91//165 107//165 105//165
f 97//166 95//166 91//166
f 105//167 99//167 97//167
f 105//168 103//168 99//168
f 101//169 99//169 103//169
f 91//170 105//170 97//170
f 94//171 93//171 96//171
f 94//172 106//172 108//172
f 98//173 94//173 96//173
f 106//174 98//174 100//174
f 106//29 100//29 104//29
f 102//175 104//175 100//175
f 94//176 98//176 106//176
f 109//177 110//177 111//177
f 109//178 111//178 112//178
f 110//179 113//179 114//179
f 110//179 114//179 111//179
f 113//180 115//180 116//180
f 113//181 116//181 114//181
f 115//182 117//182 118//182
f 115//183 118//183 116//183
f 117//184 119//184 120//184
f 117//184 120//184 118//184
f 119//185 121//185 122//185
f 119//186 122//186 120//186
f 121//187 123//187 124//187
f 121//188 124//188 122//188
f 123//189 125//189 126//189
f 123//190 126//190 124//190
f 125//191 109//191 112//191
f 125//192 112//192 126//192
f 109//193 113//193 110//193
f 109//194 125//194 123//194
f 115//195 113//195 109//195
f 123//196 117//196 115//196
f 123//197 121//197 117//197
f 119//198 117//198 121//198
f 109//199 123//199 115//199
f 112//200 111//200 114//200
f 112//201 124//201 126//201
f 116//202 112//202 114//202
f 124//203 116//203 118//203
f 124//204 118//204 122//204
f 120//205 122//205 118//205
f 112//206 116//206 124//206
f 127//207 128//207 129//207
f 127//208 129//208 130//208
f 128//209 131//209 132//209
f 128//209 132//209 129//209
f 131//180 133//180 134//180
f 131//210 134//210 132//210
f 133//182 135//182 136//182
f 133//183 136//183 134//183
f 135//184 137//184 138//184
f 135//184 138//184 136//184
f 137//211 139//211 140//211
f 137//212 140//212 138//212
f 139//213 141//213 142//213
f 139//213 142//213 140//213
f 141//214 143//214 144//214
f 141//215 144//215 142//215
f 143//216 127//216 130//216
f 143//217 130//217 144//217
f 127//218 131//218 128//218
f 127//106 143//106 141//106
f 133//219 131//219 127//219
f 141//81 135//81 133//81
f 141//220 139//220 135//220
f 137//198 135//198 139//198
f 127//111 141//111 133//111
f 130//221 129//221 132//221
f 130//222 142//222 144//222
f 134//223 130//223 132//223
f 142//203 134//203 136//203
f 142//224 136//224 140//224
f 138//175 140//175 136//175
f 130//91 134//91 142//91
f 145//92 146//92 147//92
f 145//225 147//225 148//225
f 146//226 149//226 150//226
f 146//227 150//227 147//227
f 149//228 151//228 152//228
f 149//229 152//229 150//229
f 151//230 153//230 154//230
f 151//231 154//231 152//231
f 153//232 155//232 156//232
f 153//233 156//233 154//233
f 155//234 157//234 158//234
f 155//235 158//235 156//235
f 157//236 159//236 160//236
f 157//237 160//237 158//237
f 159//238 161//238 162//238
f 159//239 162//239 160//239
f 161//240 145//240 148//240
f 161//240 148//240 162//240
f 145//105 149//105 146//105
f 145//106 161//106 159//106
f 151//107 149//107 145//107
f 159//108 153//108 151//108
f 159//241 157//241 153//241
f 155//242 153//242 157//242
f 145//111 159//111 151//111
f 148//243 147//243 150//243
f 148//113 160//113 162//113
f 152//244 148//244 150//244
f 160//245 152//245 154//245
f 160//246 154//246 158//246
f 156//247 158//247 154//247
f 148//248 152//248 160//248
f 163//249 164//249 165//249
f 163//250 165//250 166//250
f 164//251 167//251 168//251
f 164//252 168//252 165//252
f 167//65 169//65 170//65
f 167//253 170//253 168//253
f 169//254 171//254 172//254
f 169//255 172//255 170//255
f 171//256 173//256 174//256
f 171//257 174//257 172//257
f 173//258 175//258 176//258
f 173//259 176//259 174//259
f 175//260 177//260 178//260
f 175//261 178//261 176//261
f 177//44 179//44 180//44
f 177//262 180//262 178//262
f 179//104 163//104 166//104
f 179//104 166//104 180//104
f 163//263 167//263 164//263
f 163//106 179//106 177//106
f 169//264 167//264 163//264
f 177//265 171//265 169//265
f 177//266 175//266 171//266
f 173//267 171//267 175//267
f 163//111 177//111 169//111
f 166//268 165//268 168//268
f 166//269 178//269 180//269
f 170//270 166//270 168//270
f 178//203 170//203 172//203
f 178//271 172//271 176//271
f 174//272 176//272 172//272
f 166//91 170//91 178//91
f 181//273 182//273 183//273
f 181//2 183//2 184//2
f 182//274 185//274 186//274
f 182//275 186//275 183//275
f 185//276 187//276 188//276
f 185//277 188//277 186//277
f 187//278 189//278 190//278
f 187//278 190//278 188//278
f 189//279 191//279 192//279
f 189//280 192//280 190//280
f 191//281 193//281 194//281
f 191//282 194//282 192//282
f 193//283 195//283 196//283
f 193//284 196//284 194//284
f 195//285 197//285 198//285
f 195//286 198//286 196//286
f 197//287 181//287 184//287
f 197//288 184//288 198//288
f 181//289 185//289 182//289
f 181//290 197//290 195//290
f 187//291 185//291 181//291
f 195//292 189//292 187//292
f 195//293 193//293 189//293
f 191//294 189//294 193//294
f 181//295 195//295 187//295
f 184//296 183//296 186//296
f 184//297 196//297 198//297
f 188//298 184//298 186//298
f 196//299 188//299 190//299
f 196//300 190//300 194//300
f 192//301 194//301 190//301
f 184//31 188//31 196//31
f 199//302 200//302 201//302
f 199//303 201//303 202//303
f 200//304 203//304 204//304
f 200//304 204//304 201//304
f 203//305 205//305 206//305
f 203//306 206//306 204//306
f 205//307 207//307 208//307
f 205//308 208//308 206//308
f 207//233 209//233 210//233
f 207//233 210//233 208//233
f 209//309 211//309 212//309
f 209//310 212//310 210//310
f 211//311 213//311 214//311
f 211//14 214//14 212//14
f 213//312 215//312 216//312
f 213//313 216//313 214//313
f 215//314 199//314 202//314
f 215//315 202//315 216//315
f 199//316 203//316 200//316
f 199//317 215//317 213//317
f 205//318 203//318 199//318
f 213//319 207//319 205//319
f 213//320 211//320 207//320
f 209//321 207//321 211//321
f 199//322 213//322 205//322
f 202//323 201//323 204//323
f 202//324 214//324 216//324
f 206//325 202//325 204//325
f 214//326 206//326 208//326
f 214//327 208//327 212//327
f 210//328 212//328 208//328
f 202//329 206//329 214//329
# Vertices: 216, normals: 329, texture coordinates: 0, faces: 384

