# Rhino

mtllib Osteotomy planes.mtl
usemtl diffuse_ControlText
v -18.788389205932617 170.35110473632812 -132.27470397949219
v 20.513057708740234 170.35110473632812 -48.690189361572266
v -51.412273406982422 170.35110473632812 -116.93495941162109
v -12.110825538635254 170.35110473632812 -33.350437164306641
v -51.412273406982422 170.35110473632812 -116.93495941162109
v -12.110825538635254 170.35110473632812 -33.350437164306641
v -51.412273406982422 168.33993530273438 -116.93495941162109
v -12.110825538635254 168.33993530273438 -33.350437164306641
v -51.412273406982422 168.33993530273438 -116.93495941162109
v -12.110825538635254 168.33993530273438 -33.350437164306641
v -18.788389205932617 168.33993530273438 -132.27470397949219
v 20.513057708740234 168.33993530273438 -48.690189361572266
v -18.788389205932617 168.33993530273438 -132.27470397949219
v 20.513057708740234 168.33993530273438 -48.690189361572266
v -18.788389205932617 170.35110473632812 -132.27470397949219
v 20.513057708740234 170.35110473632812 -48.690189361572266
v -18.788389205932617 170.35110473632812 -132.27470397949219
v -51.412273406982422 170.35110473632812 -116.93495941162109
v -51.412273406982422 168.33993530273438 -116.93495941162109
v -18.788389205932617 168.33993530273438 -132.27470397949219
v 20.513057708740234 170.35110473632812 -48.690189361572266
v -12.110825538635254 170.35110473632812 -33.350437164306641
v -12.110825538635254 168.33993530273438 -33.350437164306641
v 20.513057708740234 168.33993530273438 -48.690189361572266
vt 0 0
vt 0 1
vt 0.47589236497879028 0
vt 0.47589236497879028 1
vt 0.47589236497879028 0
vt 0.47589236497879028 1
vt 0.48745250701904297 0
vt 0.48745250701904297 1
vt 0.48745250701904297 0
vt 0.48745250701904297 1
vt 0.96334487199783325 0
vt 0.96334487199783325 1
vt 0.96334487199783325 0
vt 0.96334487199783325 1
vt 0.97490501403808594 0
vt 0.97490501403808594 1
vt 1 0.39031010866165161
vt 1 0
vt 0.97490596771240234 0
vt 0.97490596771240234 0.39031010866165161
vt 1 0.60968989133834839
vt 1 1
vt 0.97490596771240234 1
vt 0.97490596771240234 0.60968989133834839
vn 0 1 0
vn 0 1 0
vn 0 1 0
vn 0 1 0
vn -0.90495401620864868 0 0.42550942301750183
vn -0.90495401620864868 0 0.42550942301750183
vn -0.90495401620864868 0 0.42550942301750183
vn -0.90495401620864868 0 0.42550942301750183
vn 0 -1 0
vn 0 -1 0
vn 0 -1 0
vn 0 -1 0
vn 0.90495401620864868 0 -0.42550942301750183
vn 0.90495401620864868 0 -0.42550942301750183
vn 0.90495401620864868 0 -0.42550942301750183
vn 0.90495401620864868 0 -0.42550942301750183
vn -0.42550942301750183 0 -0.90495401620864868
vn -0.42550942301750183 0 -0.90495401620864868
vn -0.42550942301750183 0 -0.90495401620864868
vn -0.42550942301750183 0 -0.90495401620864868
vn 0.42550942301750183 0 0.90495401620864868
vn 0.42550942301750183 0 0.90495401620864868
vn 0.42550942301750183 0 0.90495401620864868
vn 0.42550942301750183 0 0.90495401620864868
f 1/1/1 3/3/3 4/4/4 2/2/2
f 5/5/5 7/7/7 8/8/8 6/6/6
f 9/9/9 11/11/11 12/12/12 10/10/10
f 13/13/13 15/15/15 16/16/16 14/14/14
f 18/18/18 17/17/17 20/20/20
f 20/20/20 19/19/19 18/18/18
f 22/22/22 24/24/24 21/21/21
f 24/24/24 22/22/22 23/23/23
usemtl diffuse_ControlText
v -14.892351150512695 259.49392700195312 -134.10662841796875
v 24.409095764160156 259.49392700195312 -50.522106170654297
v -47.516231536865234 259.49392700195312 -118.76687622070312
v -8.2147865295410156 259.49392700195312 -35.182353973388672
v -47.516231536865234 259.49392700195312 -118.76687622070312
v -8.2147865295410156 259.49392700195312 -35.182353973388672
v -47.516231536865234 257.48275756835938 -118.76687622070312
v -8.2147865295410156 257.48275756835938 -35.182353973388672
v -47.516231536865234 257.48275756835938 -118.76687622070312
v -8.2147865295410156 257.48275756835938 -35.182353973388672
v -14.892351150512695 257.48275756835938 -134.10662841796875
v 24.409095764160156 257.48275756835938 -50.522106170654297
v -14.892351150512695 257.48275756835938 -134.10662841796875
v 24.409095764160156 257.48275756835938 -50.522106170654297
v -14.892351150512695 259.49392700195312 -134.10662841796875
v 24.409095764160156 259.49392700195312 -50.522106170654297
v -14.892351150512695 259.49392700195312 -134.10662841796875
v -47.516231536865234 259.49392700195312 -118.76687622070312
v -47.516231536865234 257.48275756835938 -118.76687622070312
v -14.892351150512695 257.48275756835938 -134.10662841796875
v 24.409095764160156 259.49392700195312 -50.522106170654297
v -8.2147865295410156 259.49392700195312 -35.182353973388672
v -8.2147865295410156 257.48275756835938 -35.182353973388672
v 24.409095764160156 257.48275756835938 -50.522106170654297
vt 0 0
vt 0 1
vt 0.47589236497879028 0
vt 0.47589236497879028 1
vt 0.47589236497879028 0
vt 0.47589236497879028 1
vt 0.48745250701904297 0
vt 0.48745250701904297 1
vt 0.48745250701904297 0
vt 0.48745250701904297 1
vt 0.96334487199783325 0
vt 0.96334487199783325 1
vt 0.96334487199783325 0
vt 0.96334487199783325 1
vt 0.97490501403808594 0
vt 0.97490501403808594 1
vt 1 0.39031010866165161
vt 1 0
vt 0.97490596771240234 0
vt 0.97490596771240234 0.39031010866165161
vt 1 0.60968989133834839
vt 1 1
vt 0.97490596771240234 1
vt 0.97490596771240234 0.60968989133834839
vn 0 1 0
vn 0 1 0
vn 0 1 0
vn 0 1 0
vn -0.90495401620864868 0 0.42550942301750183
vn -0.90495401620864868 0 0.42550942301750183
vn -0.90495401620864868 0 0.42550942301750183
vn -0.90495401620864868 0 0.42550942301750183
vn 0 -1 0
vn 0 -1 0
vn 0 -1 0
vn 0 -1 0
vn 0.90495401620864868 0 -0.42550942301750183
vn 0.90495401620864868 0 -0.42550942301750183
vn 0.90495401620864868 0 -0.42550942301750183
vn 0.90495401620864868 0 -0.42550942301750183
vn -0.42550942301750183 0 -0.90495401620864868
vn -0.42550942301750183 0 -0.90495401620864868
vn -0.42550942301750183 0 -0.90495401620864868
vn -0.42550942301750183 0 -0.90495401620864868
vn 0.42550942301750183 0 0.90495401620864868
vn 0.42550942301750183 0 0.90495401620864868
vn 0.42550942301750183 0 0.90495401620864868
vn 0.42550942301750183 0 0.90495401620864868
f 25/25/25 27/27/27 28/28/28 26/26/26
f 29/29/29 31/31/31 32/32/32 30/30/30
f 33/33/33 35/35/35 36/36/36 34/34/34
f 37/37/37 39/39/39 40/40/40 38/38/38
f 42/42/42 41/41/41 44/44/44
f 44/44/44 43/43/43 42/42/42
f 46/46/46 48/48/48 45/45/45
f 48/48/48 46/46/46 47/47/47
