# File generated by ImageToStl.com - Free Image and 3D model conversion tools

o obj1
v 79.62055206 -13.44989872 43.1966629
v 79.62172699 -13.40264034 43.47263336
v 165.11450195 51.64484787 31.96866989
v 165.11332703 51.59758759 31.69270134
v 79.66904449 -13.4160862 43.74826813
v 165.16181946 51.63140106 32.24430466
v 79.75899506 -13.48923874 44.00312042
v 165.25177002 51.55825043 32.49915695
v 79.88491058 -13.61667252 44.21829605
v 165.37768555 51.43081665 32.71433258
v 80.03744507 -13.78893566 44.37783432
v 165.5302124 51.25855255 32.87387085
v 80.20529175 -13.99325371 44.46990204
v 165.69805908 51.05423355 32.96593857
v 80.37599945 -14.21447182 44.4876709
v 165.86877441 50.83301544 32.98370743
v 80.53690338 -14.43618393 44.42982101
v 166.02967834 50.61130142 32.92585754
v 80.6760788 -14.64194775 44.30064774
v 166.16885376 50.40554047 32.79668427
v 80.7831955 -14.81650066 44.10972595
v 166.27597046 50.23098755 32.60576248
v 80.85031128 -14.94689751 43.87121964
v 166.34307861 50.10058975 32.36725616
v 80.87245941 -15.02346802 43.60281754
v 166.36523438 50.02401733 32.09885406
v 80.84798431 -15.04053307 43.32442474
v 166.34074402 50.00695419 31.82045937
v 80.77870178 -14.99682713 43.0566864
v 166.27146912 50.05065918 31.55272102
v 80.66975403 -14.89559174 42.81946182
v 166.16252136 50.15189743 31.31549644
v 80.52922058 -14.74433422 42.63034439
v 166.02198792 50.30315399 31.12637901
v 80.36752319 -14.55427361 42.50335693
v 165.86029053 50.49321365 30.99939346
v 80.19665527 -14.3395052 42.44792557
v 165.68942261 50.70798111 30.94396019
v 80.02928925 -14.11595726 42.46815109
v 165.52206421 50.93153 30.96418953
v 79.87784576 -13.90021038 42.56254196
v 165.37062073 51.14727783 31.05857849
v 79.75354004 -13.70826435 42.72409439
v 165.24630737 51.33922195 31.22013092
v 79.66559601 -13.55435562 42.94082642
v 165.15837097 51.49313354 31.43686295
v 74.59253693 -4.90579796 66.72394562
v 74.57987976 -4.87597561 67.00205231
v 174.03695679 37.3237915 67.00205231
v 174.04960632 37.29397202 66.72394562
v 74.59700775 -4.91633129 67.27858734
v 174.05407715 37.28343582 67.27858734
v 74.64263153 -5.02387238 67.53304291
v 174.09971619 37.17589569 67.53304291
v 74.71338654 -5.19062328 67.74654388
v 174.17047119 37.00914383 67.74654388
v 74.80401611 -5.40421581 67.90325928
v 174.26109314 36.7955513 67.90325928
v 74.90779877 -5.64880943 67.99155426
v 174.36486816 36.55096054 67.99155426
v 75.01703644 -5.90626383 68.00489807
v 174.47410583 36.29350281 68.00489807
v 75.12362671 -6.15748453 67.94229126
v 174.58070374 36.0422821 67.94229126
v 75.21967316 -6.38384008 67.80838013
v 174.67674255 35.81592941 67.80838013
v 75.2980423 -6.568542 67.61309052
v 174.75511169 35.63122559 67.61309052
v 75.35292053 -6.69789267 67.37091064
v 174.80999756 35.50187683 67.37091064
v 75.38024902 -6.76229763 67.09980774
v 174.83732605 35.43746948 67.09980774
v 75.37799835 -6.75698137 66.81987762
v 174.83506775 35.44278717 66.81987762
v 75.34632111 -6.68233776 66.55188751
v 174.80340576 35.51742935 66.55188751
v 75.2875824 -6.5439024 66.31571198
v 174.74465942 35.65586472 66.31571198
v 75.20613861 -6.35194302 66.12886047
v 174.66320801 35.8478241 66.12886047
v 75.10801697 -6.12069607 66.00520325
v 174.56509399 36.07907104 66.00520325
v 75.00050354 -5.86731195 65.9539032
v 174.45758057 36.33245468 65.9539032
v 74.89157867 -5.61058331 65.9787674
v 174.34864807 36.58918381 65.9787674
v 74.78930664 -5.36955023 66.07795715
v 174.24638367 36.83021927 66.07795715
v 74.70127869 -5.16208887 66.24410248
v 174.15835571 37.03767776 66.24410248
v 74.63402557 -5.00358629 66.46488953
v 174.09111023 37.19618225 66.46488953
v 77.89598846 -4.4219346 62.93741608
v 77.89032745 -4.35125065 63.20827484
v 182.84390259 -28.53684998 71.71318817
v 182.8495636 -28.6075325 71.44232178
v 77.86701202 -4.35429811 63.48727417
v 182.82060242 -28.53989601 71.9921875
v 77.82778168 -4.43085098 63.75372314
v 182.78135681 -28.61644936 72.25863647
v 77.77553558 -4.57523203 63.98785782
v 182.72912598 -28.76082993 72.49276733
v 77.7141571 -4.77673244 64.17230988
v 182.66773987 -28.96233177 72.67722321
v 77.64819336 -5.02040815 64.29340363
v 182.60177612 -29.206007 72.79831696
v 77.58253479 -5.28818703 64.34216309
v 182.53611755 -29.4737854 72.84707642
v 77.52204895 -5.56020927 64.31496429
v 182.47563171 -29.74580765 72.81987762
v 77.47123718 -5.81629992 64.21382904
v 182.42481995 -30.00189781 72.71873474
v 77.43384552 -6.03746557 64.04624939
v 182.38743591 -30.22306442 72.55116272
v 77.41266632 -6.207304 63.82466507
v 182.36624146 -30.39290237 72.32957458
v 77.40926361 -6.31321907 63.56550598
v 182.36283875 -30.49881744 72.07041168
v 77.42388153 -6.34735537 63.28799057
v 182.37745667 -30.53295326 71.79290009
v 77.45545197 -6.30718088 63.01270294
v 182.4090271 -30.49277878 71.51760864
v 77.50161743 -6.19567537 62.76005936
v 182.4552002 -30.38127327 71.26496887
v 77.55895996 -6.0211091 62.54879761
v 182.51254272 -30.206707 71.05370331
v 77.62323761 -5.7964282 62.39458466
v 182.57681274 -29.98202705 70.89949799
v 77.68966675 -5.53829622 62.30886078
v 182.64324951 -29.72389412 70.81376648
v 77.75332642 -5.26585865 62.29798126
v 182.70690918 -29.45145607 70.80288696
v 77.80950165 -4.99931955 62.36275101
v 182.76307678 -29.18491745 70.86766052
v 77.85401917 -4.75844765 62.49837112
v 182.80760193 -28.94404602 71.00328064
v 77.88357544 -4.56110764 62.69478226
v 182.8371582 -28.74670601 71.19969177
v 79.7773819 -10.99990559 27.13306427
v 79.75762177 -10.93180466 27.40392494
v 187.43075562 -13.51909924 35.90883636
v 187.45051575 -13.58720112 35.63797379
v 79.73540497 -10.93947697 27.68292618
v 187.40853882 -13.52677155 36.18783569
v 79.7123642 -11.02235508 27.94937325
v 187.38549805 -13.60965061 36.45428467
v 79.69021606 -11.17429256 28.18350601
v 187.36335754 -13.76158714 36.68841553
v 79.67060852 -11.38401985 28.36796188
v 187.34373474 -13.97131443 36.8728714
v 79.65499115 -11.63598251 28.48905754
v 187.328125 -14.22327805 36.99396896
v 79.64451599 -11.91149521 28.53781509
v 187.31765747 -14.49878979 37.04272461
v 79.63996887 -12.1901226 28.5106144
v 187.31311035 -14.77741718 37.01552582
v 79.64168549 -12.45120049 28.40947723
v 187.31481934 -15.03849602 36.91438675
v 79.64953613 -12.6753664 28.2419014
v 187.32266235 -15.26266193 36.74681091
v 79.66294098 -12.8459959 28.02031517
v 187.33607483 -15.43329048 36.52522659
v 79.68090057 -12.95043182 27.76115608
v 187.35403442 -15.53772736 36.2660675
v 79.7020874 -12.98093033 27.48364067
v 187.37521362 -15.56822586 35.98855209
v 79.72492981 -12.9352293 27.20835304
v 187.39805603 -15.52252483 35.71326447
v 79.74773407 -12.8167181 26.95570946
v 187.42086792 -15.40401268 35.46062088
v 79.76880646 -12.63418579 26.74444771
v 187.44194031 -15.22148037 35.24935913
v 79.78659058 -12.40116978 26.59023476
v 187.4597168 -14.98846531 35.09514618
v 79.79975891 -12.13495255 26.50451088
v 187.47288513 -14.72224808 35.0094223
v 79.8073349 -11.85527802 26.49363136
v 187.48046875 -14.44257355 34.99853897
v 79.80876923 -11.5828886 26.55840302
v 187.48190308 -14.17018318 35.06331253
v 79.80393982 -11.33798504 26.69402313
v 187.47706604 -13.92527962 35.19893265
v 79.79321289 -11.13873196 26.89043236
v 187.46633911 -13.72602654 35.39534378
v 61.40977097 1.5392406 6.70086288
v 61.43907928 1.57633221 6.97683191
v 168.86198425 2.28947997 -4.52713203
v 168.83267212 2.25238824 -4.80310106
v 61.46885681 1.53717566 7.25246525
v 168.89176941 2.2503233 -4.2514987
v 61.49689484 1.42467511 7.5073204
v 168.9197998 2.13782287 -3.9966433
v 61.52111816 1.24717426 7.72249603
v 168.94403076 1.9603219 -3.78146791
v 61.53972626 1.01783741 7.88203335
v 168.96263123 1.73098505 -3.6219306
v 61.5513382 0.75367337 7.97410011
v 168.97424316 1.46682119 -3.52986407
v 61.55509567 0.47427419 7.99186802
v 168.97799683 1.18742192 -3.51209593
v 61.55072021 0.20036151 7.93402004
v 168.97363281 0.91350925 -3.56994414
v 61.53853226 -0.04774982 7.80484533
v 168.96144104 0.66539794 -3.69911838
v 61.5194397 -0.2516585 7.61392546
v 168.94235229 0.46148923 -3.89003849
v 61.49485779 -0.39624158 7.37541914
v 168.91777039 0.31690615 -4.12854481
v 61.46660995 -0.47077596 7.10701561
v 168.88951111 0.24237177 -4.39694786
v 61.43679047 -0.4697338 6.82862139
v 168.85969543 0.24341394 -4.67534256
v 61.40761185 -0.39319238 6.56088352
v 168.83052063 0.31995538 -4.94308043
v 61.38123322 -0.24682841 6.32365847
v 168.80413818 0.46631935 -5.18030548
v 61.35961914 -0.04149704 6.13454103
v 168.78253174 0.67165071 -5.36942291
v 61.34436417 0.20757322 6.00755596
v 168.76727295 0.92072093 -5.49640799
v 61.33660889 0.48190999 5.95212221
v 168.75952148 1.19505775 -5.55184126
v 61.33692169 0.76116693 5.97235107
v 168.75982666 1.47431469 -5.53161287
v 61.34527969 1.02463293 6.06674147
v 168.76818848 1.73778057 -5.43722248
v 61.36106491 1.2527678 6.22829342
v 168.78396606 1.96591544 -5.27567053
v 61.38310623 1.42865181 6.44502497
v 168.80601501 2.14179969 -5.05893898
vn -0.6114 0.7804 -0.13104
vn -0.6114 0.7804 -0.13104
vn -0.58759 0.797 0.13975
vn -0.58759 0.797 0.13975
vn -0.52021 0.75449 0.40017
vn -0.52021 0.75449 0.40017
vn -0.41424 0.65602 0.63091
vn -0.27755 0.5089 0.81485
vn -0.27755 0.5089 0.81485
vn -0.12027 0.32403 0.93837
vn -0.12027 0.32403 0.93837
vn 0.04592 0.11514 0.99229
vn 0.04592 0.11514 0.99229
vn 0.20871 -0.10231 0.97261
vn 0.20871 -0.10231 0.97261
vn 0.35602 -0.31214 0.88081
vn 0.35602 -0.31215 0.8808
vn 0.47693 -0.49885 0.72366
vn 0.56246 -0.64855 0.51285
vn 0.56246 -0.64856 0.51284
vn 0.60628 -0.75014 0.26403
vn 0.60628 -0.75014 0.26405
vn 0.60513 -0.79611 -0.0044
vn 0.60513 -0.79611 -0.00444
vn 0.55911 -0.78303 -0.2725
vn 0.55911 -0.78304 -0.27249
vn 0.47161 -0.71188 -0.52039
vn 0.47161 -0.71188 -0.52039
vn 0.34914 -0.58793 -0.72968
vn 0.34914 -0.58793 -0.72968
vn 0.20079 -0.42038 -0.88485
vn 0.20078 -0.42038 -0.88485
vn 0.03752 -0.22164 -0.97441
vn 0.03752 -0.22165 -0.9744
vn -0.12851 -0.00649 -0.99169
vn -0.12852 -0.00647 -0.99169
vn -0.28502 0.20918 -0.93542
vn -0.28502 0.20917 -0.93542
vn -0.42039 0.40931 -0.80978
vn -0.42038 0.4093 -0.80978
vn -0.52458 0.57908 -0.62409
vn -0.52458 0.57909 -0.62408
vn -0.58987 0.70593 -0.39208
vn -0.58987 0.70593 -0.39207
vn -0.79129 -0.6021 0.10647
vn -0.79131 -0.60208 0.10648
vn -0.7913 -0.60208 0.10648
vn -0.79131 -0.60207 0.10648
vn -0.7913 -0.60208 0.1065
vn -0.79133 -0.60205 0.10646
vn -0.7913 -0.60208 0.1065
vn -0.79131 -0.60207 0.10648
vn -0.7913 -0.60207 0.10652
vn -0.79131 -0.60208 0.10648
vn -0.7913 -0.60207 0.10656
vn -0.79131 -0.60207 0.10648
vn -0.7913 -0.60208 0.10648
vn -0.79133 -0.60206 0.10644
vn -0.79134 -0.60203 0.10648
vn -0.7913 -0.60208 0.10646
vn -0.79131 -0.60207 0.10649
vn -0.7913 -0.60208 0.10647
vn -0.79131 -0.60207 0.10649
vn -0.79131 -0.60208 0.10647
vn -0.79131 -0.60207 0.1065
vn 0.79141 0.60193 -0.10651
vn 0.7913 0.60208 -0.10647
vn 0.79133 0.60205 -0.10649
vn 0.79131 0.60207 -0.10648
vn 0.79127 0.60211 -0.10655
vn 0.79135 0.60202 -0.10643
vn 0.79129 0.60209 -0.10652
vn 0.79131 0.60208 -0.10648
vn 0.79129 0.60208 -0.10662
vn 0.79131 0.60208 -0.10648
vn 0.79132 0.60205 -0.10649
vn 0.79131 0.60207 -0.10648
vn 0.7913 0.60208 -0.10648
vn 0.79123 0.60215 -0.10658
vn 0.79133 0.60205 -0.10648
vn 0.7913 0.60211 -0.10639
vn 0.79133 0.60205 -0.10651
vn 0.7913 0.60209 -0.10647
vn 0.79131 0.60208 -0.10646
vn 0.79132 0.60206 -0.10647
vn 0.79132 0.60206 -0.10652
vn -0.38797 0.91438 -0.11571
vn -0.38797 0.91438 -0.11569
vn -0.38578 0.90921 0.15658
vn -0.38578 0.90921 0.15657
vn -0.35497 0.83661 0.41723
vn -0.35497 0.8366 0.41724
vn -0.29784 0.70196 0.64695
vn -0.29784 0.70195 0.64696
vn -0.21862 0.51525 0.82869
vn -0.21862 0.51526 0.82868
vn -0.12318 0.2903 0.94897
vn -0.12318 0.29031 0.94897
vn -0.01862 0.04387 0.99886
vn -0.01861 0.04387 0.99886
vn 0.08734 -0.20584 0.97468
vn 0.08734 -0.20584 0.97468
vn 0.18681 -0.44028 0.87821
vn 0.18681 -0.44029 0.87821
vn 0.27244 -0.64208 0.7166
vn 0.27243 -0.64208 0.7166
vn 0.33785 -0.79625 0.50184
vn 0.33785 -0.79625 0.50184
vn 0.3782 -0.89136 0.24988
vn 0.3782 -0.89136 0.24989
vn 0.39051 -0.92037 -0.02062
vn 0.39051 -0.92037 -0.02063
vn 0.37386 -0.88111 -0.28961
vn 0.37386 -0.88112 -0.28958
vn 0.32948 -0.77651 -0.5371
vn 0.32947 -0.77651 -0.53711
vn 0.26066 -0.61434 -0.74475
vn 0.26066 -0.61433 -0.74475
vn 0.17251 -0.40657 -0.89719
vn 0.17251 -0.40657 -0.89719
vn 0.07157 -0.16867 -0.98307
vn 0.07157 -0.16867 -0.98307
vn -0.03469 0.08175 -0.99605
vn -0.03469 0.08175 -0.99605
vn -0.13837 0.32612 -0.93515
vn -0.13837 0.32612 -0.93515
vn -0.23178 0.54626 -0.80491
vn -0.23178 0.54627 -0.8049
vn -0.30801 0.72592 -0.61496
vn -0.30801 0.72592 -0.61495
vn -0.36139 0.85174 -0.37939
vn -0.36139 0.85173 -0.37941
vn -0.92051 -0.39072 -2E-05
vn -0.92054 -0.39064 -8E-05
vn -0.92056 -0.3906 0
vn -0.92056 -0.39059 0
vn -0.92055 -0.39063 4E-05
vn -0.92057 -0.39059 -1E-05
vn -0.92055 -0.39062 3E-05
vn -0.92056 -0.3906 0
vn -0.92056 -0.39059 3E-05
vn -0.92056 -0.39061 -2E-05
vn -0.92057 -0.39057 -8E-05
vn -0.92056 -0.3906 -0
vn -0.92056 -0.3906 -0
vn -0.92056 -0.39061 1E-05
vn -0.92057 -0.39057 -0
vn -0.92056 -0.3906 1E-05
vn -0.92056 -0.3906 1E-05
vn -0.92058 -0.39054 0
vn -0.92056 -0.39059 2E-05
vn -0.92052 -0.39069 0
vn -0.92056 -0.39059 1E-05
vn 0.92061 0.39048 -1E-05
vn 0.92058 0.39055 -7E-05
vn 0.92053 0.39068 3E-05
vn 0.92056 0.39059 -0
vn 0.92057 0.39057 3E-05
vn 0.92056 0.39059 0
vn 0.92057 0.39058 2E-05
vn 0.92056 0.3906 -0
vn 0.92056 0.39059 8E-05
vn 0.92056 0.39061 2E-05
vn 0.92056 0.39061 -0.00011
vn 0.92056 0.39059 -0
vn 0.92057 0.39058 0
vn 0.92053 0.39068 -0.0001
vn 0.92053 0.39068 0
vn 0.92057 0.39058 1E-05
vn 0.92058 0.39056 -4E-05
vn 0.92053 0.39067 0
vn 0.92056 0.3906 2E-05
vn 0.92059 0.39053 -0
vn 0.92056 0.39059 -1E-05
vn 0.23643 0.94136 -0.24072
vn 0.23643 0.94136 -0.24071
vn 0.22221 0.97456 0.02921
vn 0.22221 0.97456 0.0292
vn 0.19151 0.93549 0.29697
vn 0.19151 0.93548 0.29698
vn 0.1466 0.82703 0.54271
vn 0.1466 0.82703 0.54271
vn 0.09082 0.65723 0.7482
vn 0.09082 0.65723 0.7482
vn 0.02831 0.43869 0.89819
vn 0.02831 0.43869 0.89819
vn -0.0363 0.18763 0.98157
vn -0.0363 0.18763 0.98157
vn -0.09823 -0.07736 0.99215
vn -0.15286 -0.33661 0.92915
vn -0.15287 -0.33663 0.92914
vn -0.19616 -0.57091 0.79723
vn -0.19616 -0.57089 0.79725
vn -0.22491 -0.76285 0.6062
vn -0.22491 -0.76285 0.6062
vn -0.23698 -0.89821 0.3702
vn -0.23698 -0.89822 0.3702
vn -0.23148 -0.96697 0.10675
vn -0.23148 -0.96697 0.10675
vn -0.2088 -0.964 -0.16463
vn -0.2088 -0.964 -0.16463
vn -0.17065 -0.88954 -0.42379
vn -0.17064 -0.88954 -0.4238
vn -0.11983 -0.74911 -0.65152
vn -0.11983 -0.74912 -0.65151
vn -0.06013 -0.55312 -0.83093
vn -0.06012 -0.5531 -0.83094
vn 0.00404 -0.3161 -0.94872
vn 0.00403 -0.31612 -0.94871
vn 0.0679 -0.05565 -0.99614
vn 0.0679 -0.05565 -0.99614
vn 0.12672 0.20893 -0.96969
vn 0.12673 0.20894 -0.96968
vn 0.17615 0.45802 -0.87131
vn 0.17615 0.45802 -0.87131
vn 0.21252 0.67315 -0.70831
vn 0.23312 0.83834 -0.49279
vn 0.23312 0.83834 -0.49279
vn -0.97141 0.22397 -0.07872
vn -0.97143 0.22394 -0.07863
vn -0.97144 0.22383 -0.07872
vn -0.97144 0.22386 -0.07872
vn -0.97143 0.22387 -0.07874
vn -0.97143 0.22387 -0.07874
vn -0.97147 0.22379 -0.07858
vn -0.97144 0.22385 -0.07872
vn -0.97144 0.22387 -0.07866
vn -0.97144 0.22385 -0.07874
vn -0.97144 0.22385 -0.07866
vn -0.97144 0.22386 -0.07872
vn -0.97144 0.22385 -0.07872
vn -0.97143 0.22388 -0.07876
vn -0.97143 0.22389 -0.07872
vn -0.97144 0.22386 -0.07871
vn -0.97144 0.22383 -0.07874
vn -0.97145 0.22382 -0.07872
vn -0.97144 0.22387 -0.0787
vn -0.97142 0.22391 -0.07873
vn -0.97144 0.22386 -0.07872
vn 0.97141 -0.22396 0.07872
vn 0.97144 -0.22388 0.07868
vn 0.97143 -0.2239 0.07872
vn 0.97144 -0.22385 0.07872
vn 0.97147 -0.22378 0.0786
vn 0.97143 -0.22388 0.07874
vn 0.97145 -0.22383 0.07869
vn 0.97144 -0.22387 0.07873
vn 0.97144 -0.22387 0.07866
vn 0.97143 -0.2239 0.07866
vn 0.97144 -0.22385 0.07875
vn 0.97144 -0.22386 0.07872
vn 0.97143 -0.22388 0.07873
vn 0.97141 -0.22395 0.07883
vn 0.97144 -0.22383 0.07872
vn 0.97144 -0.22382 0.07879
vn 0.97143 -0.22393 0.07862
vn 0.9714 -0.22401 0.07872
vn 0.97144 -0.22387 0.07869
vn 0.97147 -0.22374 0.07869
vn 0.97144 -0.22385 0.07874
vn 0.04231 0.96967 -0.24071
vn 0.04231 0.96967 -0.24071
vn 0.02171 0.99934 0.02921
vn 0.02171 0.99934 0.02921
vn -0.00051 0.95489 0.29697
vn -0.00051 0.95489 0.29697
vn -0.02269 0.83961 0.54271
vn -0.02269 0.83961 0.54271
vn -0.04319 0.66208 0.74819
vn -0.04319 0.66208 0.74819
vn -0.06048 0.43543 0.89819
vn -0.06048 0.43543 0.89819
vn -0.07329 0.1765 0.98157
vn -0.07329 0.17649 0.98157
vn -0.08066 -0.09554 0.99215
vn -0.08066 -0.09553 0.99215
vn -0.08205 -0.36048 0.92915
vn -0.08205 -0.36048 0.92915
vn -0.07736 -0.59869 0.79724
vn -0.07736 -0.59869 0.79724
vn -0.06693 -0.79249 0.6062
vn -0.06693 -0.79249 0.6062
vn -0.05153 -0.92752 0.3702
vn -0.05153 -0.92752 0.3702
vn -0.03231 -0.99376 0.10675
vn -0.03231 -0.99376 0.10675
vn -0.0107 -0.9863 -0.16462
vn 0.01171 -0.90569 -0.42379
vn 0.01171 -0.90569 -0.42379
vn 0.03325 -0.7579 -0.65152
vn 0.05232 -0.55391 -0.83093
vn 0.05232 -0.55391 -0.83093
vn 0.06752 -0.30883 -0.94872
vn 0.0777 -0.04086 -0.99614
vn 0.0777 -0.04087 -0.99614
vn 0.08212 0.23015 -0.96968
vn 0.08212 0.23015 -0.96968
vn 0.08046 0.48409 -0.87131
vn 0.08046 0.48409 -0.87131
vn 0.07282 0.70213 -0.70832
vn 0.07282 0.70213 -0.70831
vn 0.05978 0.86809 -0.49279
vn 0.05978 0.86809 -0.4928
vn -0.99661 0.02395 -0.07872
vn -0.99661 0.02399 -0.07868
vn -0.99661 0.02396 -0.07872
vn -0.99661 0.02395 -0.07872
vn -0.99661 0.02395 -0.07873
vn -0.99661 0.02393 -0.07871
vn -0.99661 0.02394 -0.07871
vn -0.99661 0.02394 -0.07872
vn -0.99661 0.02395 -0.07876
vn -0.99661 0.02394 -0.07873
vn -0.99662 0.02394 -0.0786
vn -0.99661 0.02395 -0.07872
vn -0.99661 0.02394 -0.07872
vn -0.99661 0.02394 -0.07871
vn -0.99661 0.02393 -0.07872
vn -0.99661 0.02394 -0.07872
vn -0.99661 0.02392 -0.07876
vn -0.99661 0.02399 -0.07872
vn -0.99661 0.02396 -0.07871
vn -0.99661 0.02386 -0.0787
vn -0.99661 0.02395 -0.07872
vn 0.99661 -0.02405 0.0787
vn 0.99661 -0.02392 0.07874
vn 0.99661 -0.02406 0.0787
vn 0.99661 -0.02395 0.07872
vn 0.9966 -0.02404 0.07883
vn 0.99661 -0.02395 0.07872
vn 0.99661 -0.02396 0.0787
vn 0.99661 -0.02395 0.07872
vn 0.99661 -0.02394 0.07867
vn 0.99661 -0.02396 0.0787
vn 0.99661 -0.02396 0.0787
vn 0.99661 -0.02394 0.07872
vn 0.99661 -0.02392 0.07871
vn 0.99662 -0.02386 0.07864
vn 0.99661 -0.02399 0.07872
vn 0.99659 -0.02378 0.07898
vn 0.99661 -0.02398 0.07868
vn 0.99661 -0.02399 0.07872
vn 0.99661 -0.02394 0.07873
vn 0.99661 -0.02386 0.0787
vn 0.99661 -0.02396 0.07869
vn -0.02061 0.99116 -0.13103
vn -0.02061 0.99116 -0.13103
vn 0.00839 0.99015 0.13975
vn 0.00839 0.99015 0.13975
vn 0.03678 0.9157 0.40017
vn 0.03678 0.9157 0.40017
vn 0.06243 0.77334 0.63091
vn 0.06243 0.77334 0.63091
vn 0.08346 0.57362 0.81486
vn 0.08346 0.57362 0.81486
vn 0.09829 0.33136 0.93837
vn 0.09829 0.33136 0.93837
vn 0.10584 0.06453 0.99229
vn 0.10584 0.06453 0.99229
vn 0.10553 -0.20709 0.97261
vn 0.10553 -0.20709 0.97261
vn 0.0974 -0.46336 0.8808
vn 0.0974 -0.46336 0.8808
vn 0.08205 -0.68525 0.72367
vn 0.08205 -0.68525 0.72367
vn 0.06061 -0.85633 0.51286
vn 0.03467 -0.96389 0.26402
vn 0.03467 -0.96389 0.26402
vn 0.00617 -0.99997 -0.0044
vn 0.00617 -0.99997 -0.0044
vn -0.0228 -0.96189 -0.2725
vn -0.0228 -0.96189 -0.2725
vn -0.05007 -0.85246 -0.52039
vn -0.05007 -0.85246 -0.52039
vn -0.07363 -0.67981 -0.72968
vn -0.07363 -0.67981 -0.72968
vn -0.09173 -0.45675 -0.88485
vn -0.09173 -0.45675 -0.88485
vn -0.10302 -0.19981 -0.9744
vn -0.10302 -0.1998 -0.97441
vn -0.10668 0.07196 -0.99169
vn -0.10668 0.07195 -0.99169
vn -0.10242 0.33838 -0.93542
vn -0.10242 0.33838 -0.93542
vn -0.09057 0.5797 -0.80978
vn -0.09057 0.5797 -0.80978
vn -0.072 0.77804 -0.62408
vn -0.072 0.77804 -0.62408
vn -0.04809 0.91867 -0.39209
vn -0.04809 0.91867 -0.39209
vn -0.99429 -0.00659 0.10648
vn -0.9943 -0.00663 0.10643
vn -0.99429 -0.00663 0.10647
vn -0.99429 -0.0066 0.10648
vn -0.99429 -0.00659 0.10647
vn -0.99429 -0.00659 0.10647
vn -0.99429 -0.00659 0.10647
vn -0.99429 -0.0066 0.10648
vn -0.99429 -0.0066 0.10646
vn -0.99429 -0.00659 0.1065
vn -0.9943 -0.0066 0.10646
vn -0.99429 -0.0066 0.10648
vn -0.99429 -0.00661 0.10648
vn -0.99429 -0.0066 0.10648
vn -0.99429 -0.00659 0.10648
vn -0.99429 -0.00659 0.1065
vn -0.99429 -0.00659 0.10649
vn -0.99429 -0.00659 0.10648
vn -0.99429 -0.0066 0.10648
vn -0.99429 -0.00659 0.10648
vn -0.99429 -0.0066 0.10647
vn 0.99429 0.00659 -0.10646
vn 0.99431 0.00671 -0.10631
vn 0.9943 0.00669 -0.10645
vn 0.99429 0.0066 -0.10648
vn 0.99429 0.00659 -0.10647
vn 0.99429 0.00665 -0.10653
vn 0.9943 0.00653 -0.10639
vn 0.99429 0.00658 -0.10648
vn 0.99432 0.0066 -0.10626
vn 0.99429 0.00657 -0.10651
vn 0.99428 0.00664 -0.1066
vn 0.99429 0.00661 -0.10648
vn 0.99429 0.0066 -0.10648
vn 0.99428 0.00674 -0.10662
vn 0.99429 0.00665 -0.10648
vn 0.9943 0.00662 -0.10641
vn 0.99428 0.00653 -0.10658
vn 0.99429 0.00647 -0.1065
vn 0.99429 0.00661 -0.10646
vn 0.99429 0.00664 -0.1065
vn 0.9943 0.0066 -0.10645
f 1//1 2//1 3//1
f 1//2 3//2 4//2
f 2//3 5//3 6//3
f 2//4 6//4 3//4
f 5//5 7//5 8//5
f 5//6 8//6 6//6
f 7//7 9//7 10//7
f 7//7 10//7 8//7
f 9//8 11//8 12//8
f 9//9 12//9 10//9
f 11//10 13//10 14//10
f 11//11 14//11 12//11
f 13//12 15//12 16//12
f 13//13 16//13 14//13
f 15//14 17//14 18//14
f 15//15 18//15 16//15
f 17//16 19//16 20//16
f 17//17 20//17 18//17
f 19//18 21//18 22//18
f 19//18 22//18 20//18
f 21//19 23//19 24//19
f 21//20 24//20 22//20
f 23//21 25//21 26//21
f 23//22 26//22 24//22
f 25//23 27//23 28//23
f 25//24 28//24 26//24
f 27//25 29//25 30//25
f 27//26 30//26 28//26
f 29//27 31//27 32//27
f 29//28 32//28 30//28
f 31//29 33//29 34//29
f 31//30 34//30 32//30
f 33//31 35//31 36//31
f 33//32 36//32 34//32
f 35//33 37//33 38//33
f 35//34 38//34 36//34
f 37//35 39//35 40//35
f 37//36 40//36 38//36
f 39//37 41//37 42//37
f 39//38 42//38 40//38
f 41//39 43//39 44//39
f 41//40 44//40 42//40
f 43//41 45//41 46//41
f 43//42 46//42 44//42
f 45//43 1//43 4//43
f 45//44 4//44 46//44
f 29//45 27//45 25//45
f 35//46 33//46 31//46
f 31//47 29//47 25//47
f 31//48 17//48 41//48
f 21//49 17//49 23//49
f 25//50 23//50 17//50
f 19//51 17//51 21//51
f 17//52 31//52 25//52
f 15//53 13//53 17//53
f 35//54 31//54 37//54
f 41//55 39//55 37//55
f 17//56 7//56 41//56
f 7//57 45//57 41//57
f 43//58 41//58 45//58
f 45//59 7//59 1//59
f 11//60 9//60 13//60
f 7//61 13//61 9//61
f 7//62 5//62 1//62
f 7//63 17//63 13//63
f 1//64 5//64 2//64
f 37//65 31//65 41//65
f 30//66 26//66 28//66
f 36//67 32//67 34//67
f 32//68 26//68 30//68
f 32//69 42//69 18//69
f 22//70 24//70 18//70
f 26//71 18//71 24//71
f 20//72 22//72 18//72
f 18//73 26//73 32//73
f 16//74 18//74 14//74
f 36//75 38//75 32//75
f 42//76 38//76 40//76
f 18//77 42//77 8//77
f 8//78 42//78 46//78
f 44//79 46//79 42//79
f 46//80 4//80 8//80
f 12//81 14//81 10//81
f 8//82 10//82 14//82
f 8//83 4//83 6//83
f 8//84 14//84 18//84
f 4//85 3//85 6//85
f 38//86 42//86 32//86
f 47//87 48//87 49//87
f 47//88 49//88 50//88
f 48//89 51//89 52//89
f 48//90 52//90 49//90
f 51//91 53//91 54//91
f 51//92 54//92 52//92
f 53//93 55//93 56//93
f 53//94 56//94 54//94
f 55//95 57//95 58//95
f 55//96 58//96 56//96
f 57//97 59//97 60//97
f 57//98 60//98 58//98
f 59//99 61//99 62//99
f 59//100 62//100 60//100
f 61//101 63//101 64//101
f 61//102 64//102 62//102
f 63//103 65//103 66//103
f 63//104 66//104 64//104
f 65//105 67//105 68//105
f 65//106 68//106 66//106
f 67//107 69//107 70//107
f 67//108 70//108 68//108
f 69//109 71//109 72//109
f 69//110 72//110 70//110
f 71//111 73//111 74//111
f 71//112 74//112 72//112
f 73//113 75//113 76//113
f 73//114 76//114 74//114
f 75//115 77//115 78//115
f 75//116 78//116 76//116
f 77//117 79//117 80//117
f 77//118 80//118 78//118
f 79//119 81//119 82//119
f 79//120 82//120 80//120
f 81//121 83//121 84//121
f 81//122 84//122 82//122
f 83//123 85//123 86//123
f 83//124 86//124 84//124
f 85//125 87//125 88//125
f 85//126 88//126 86//126
f 87//127 89//127 90//127
f 87//128 90//128 88//128
f 89//129 91//129 92//129
f 89//130 92//130 90//130
f 91//131 47//131 50//131
f 91//132 50//132 92//132
f 75//133 73//133 71//133
f 81//134 79//134 77//134
f 77//135 75//135 71//135
f 77//136 63//136 87//136
f 67//137 63//137 69//137
f 71//138 69//138 63//138
f 65//139 63//139 67//139
f 63//140 77//140 71//140
f 61//141 59//141 63//141
f 81//142 77//142 83//142
f 87//143 85//143 83//143
f 63//144 53//144 87//144
f 53//145 91//145 87//145
f 89//146 87//146 91//146
f 91//147 53//147 47//147
f 57//148 55//148 59//148
f 53//149 59//149 55//149
f 53//150 51//150 47//150
f 53//151 63//151 59//151
f 47//152 51//152 48//152
f 83//153 77//153 87//153
f 76//154 72//154 74//154
f 82//155 78//155 80//155
f 78//156 72//156 76//156
f 78//157 88//157 64//157
f 68//158 70//158 64//158
f 72//159 64//159 70//159
f 66//160 68//160 64//160
f 64//161 72//161 78//161
f 62//162 64//162 60//162
f 82//163 84//163 78//163
f 88//164 84//164 86//164
f 64//165 88//165 54//165
f 54//166 88//166 92//166
f 90//167 92//167 88//167
f 92//168 50//168 54//168
f 58//169 60//169 56//169
f 54//170 56//170 60//170
f 54//171 50//171 52//171
f 54//172 60//172 64//172
f 50//173 49//173 52//173
f 84//174 88//174 78//174
f 93//175 94//175 95//175
f 93//176 95//176 96//176
f 94//177 97//177 98//177
f 94//178 98//178 95//178
f 97//179 99//179 100//179
f 97//180 100//180 98//180
f 99//181 101//181 102//181
f 99//182 102//182 100//182
f 101//183 103//183 104//183
f 101//184 104//184 102//184
f 103//185 105//185 106//185
f 103//186 106//186 104//186
f 105//187 107//187 108//187
f 105//188 108//188 106//188
f 107//189 109//189 110//189
f 107//189 110//189 108//189
f 109//190 111//190 112//190
f 109//191 112//191 110//191
f 111//192 113//192 114//192
f 111//193 114//193 112//193
f 113//194 115//194 116//194
f 113//195 116//195 114//195
f 115//196 117//196 118//196
f 115//197 118//197 116//197
f 117//198 119//198 120//198
f 117//199 120//199 118//199
f 119//200 121//200 122//200
f 119//201 122//201 120//201
f 121//202 123//202 124//202
f 121//203 124//203 122//203
f 123//204 125//204 126//204
f 123//205 126//205 124//205
f 125//206 127//206 128//206
f 125//207 128//207 126//207
f 127//208 129//208 130//208
f 127//209 130//209 128//209
f 129//210 131//210 132//210
f 129//211 132//211 130//211
f 131//212 133//212 134//212
f 131//213 134//213 132//213
f 133//214 135//214 136//214
f 133//215 136//215 134//215
f 135//216 137//216 138//216
f 135//216 138//216 136//216
f 137//217 93//217 96//217
f 137//218 96//218 138//218
f 121//219 119//219 117//219
f 127//220 125//220 123//220
f 123//221 121//221 117//221
f 123//222 109//222 133//222
f 113//223 109//223 115//223
f 117//224 115//224 109//224
f 111//225 109//225 113//225
f 109//226 123//226 117//226
f 107//227 105//227 109//227
f 127//228 123//228 129//228
f 133//229 131//229 129//229
f 109//230 99//230 133//230
f 99//231 137//231 133//231
f 135//232 133//232 137//232
f 137//233 99//233 93//233
f 103//234 101//234 105//234
f 99//235 105//235 101//235
f 99//236 97//236 93//236
f 99//237 109//237 105//237
f 93//238 97//238 94//238
f 129//239 123//239 133//239
f 122//240 118//240 120//240
f 128//241 124//241 126//241
f 124//242 118//242 122//242
f 124//243 134//243 110//243
f 114//244 116//244 110//244
f 118//245 110//245 116//245
f 112//246 114//246 110//246
f 110//247 118//247 124//247
f 108//248 110//248 106//248
f 128//249 130//249 124//249
f 134//250 130//250 132//250
f 110//251 134//251 100//251
f 100//252 134//252 138//252
f 136//253 138//253 134//253
f 138//254 96//254 100//254
f 104//255 106//255 102//255
f 100//256 102//256 106//256
f 100//257 96//257 98//257
f 100//258 106//258 110//258
f 96//259 95//259 98//259
f 130//260 134//260 124//260
f 139//261 140//261 141//261
f 139//262 141//262 142//262
f 140//263 143//263 144//263
f 140//264 144//264 141//264
f 143//265 145//265 146//265
f 143//266 146//266 144//266
f 145//267 147//267 148//267
f 145//268 148//268 146//268
f 147//269 149//269 150//269
f 147//270 150//270 148//270
f 149//271 151//271 152//271
f 149//272 152//272 150//272
f 151//273 153//273 154//273
f 151//274 154//274 152//274
f 153//275 155//275 156//275
f 153//276 156//276 154//276
f 155//277 157//277 158//277
f 155//278 158//278 156//278
f 157//279 159//279 160//279
f 157//280 160//280 158//280
f 159//281 161//281 162//281
f 159//282 162//282 160//282
f 161//283 163//283 164//283
f 161//284 164//284 162//284
f 163//285 165//285 166//285
f 163//286 166//286 164//286
f 165//287 167//287 168//287
f 165//287 168//287 166//287
f 167//288 169//288 170//288
f 167//289 170//289 168//289
f 169//290 171//290 172//290
f 169//290 172//290 170//290
f 171//291 173//291 174//291
f 171//292 174//292 172//292
f 173//293 175//293 176//293
f 173//293 176//293 174//293
f 175//294 177//294 178//294
f 175//295 178//295 176//295
f 177//296 179//296 180//296
f 177//297 180//297 178//297
f 179//298 181//298 182//298
f 179//299 182//299 180//299
f 181//300 183//300 184//300
f 181//301 184//301 182//301
f 183//302 139//302 142//302
f 183//303 142//303 184//303
f 167//304 165//304 163//304
f 173//305 171//305 169//305
f 169//306 167//306 163//306
f 169//307 155//307 179//307
f 159//308 155//308 161//308
f 163//309 161//309 155//309
f 157//310 155//310 159//310
f 155//311 169//311 163//311
f 153//312 151//312 155//312
f 173//313 169//313 175//313
f 179//314 177//314 175//314
f 155//315 145//315 179//315
f 145//316 183//316 179//316
f 181//317 179//317 183//317
f 183//318 145//318 139//318
f 149//319 147//319 151//319
f 145//320 151//320 147//320
f 145//321 143//321 139//321
f 145//322 155//322 151//322
f 139//323 143//323 140//323
f 175//324 169//324 179//324
f 168//325 164//325 166//325
f 174//326 170//326 172//326
f 170//327 164//327 168//327
f 170//328 180//328 156//328
f 160//329 162//329 156//329
f 164//330 156//330 162//330
f 158//331 160//331 156//331
f 156//332 164//332 170//332
f 154//333 156//333 152//333
f 174//334 176//334 170//334
f 180//335 176//335 178//335
f 156//336 180//336 146//336
f 146//337 180//337 184//337
f 182//338 184//338 180//338
f 184//339 142//339 146//339
f 150//340 152//340 148//340
f 146//341 148//341 152//341
f 146//342 142//342 144//342
f 146//343 152//343 156//343
f 142//344 141//344 144//344
f 176//345 180//345 170//345
f 185//346 186//346 187//346
f 185//347 187//347 188//347
f 186//348 189//348 190//348
f 186//349 190//349 187//349
f 189//350 191//350 192//350
f 189//351 192//351 190//351
f 191//352 193//352 194//352
f 191//353 194//353 192//353
f 193//354 195//354 196//354
f 193//355 196//355 194//355
f 195//356 197//356 198//356
f 195//357 198//357 196//357
f 197//358 199//358 200//358
f 197//359 200//359 198//359
f 199//360 201//360 202//360
f 199//361 202//361 200//361
f 201//362 203//362 204//362
f 201//363 204//363 202//363
f 203//364 205//364 206//364
f 203//365 206//365 204//365
f 205//366 207//366 208//366
f 205//366 208//366 206//366
f 207//367 209//367 210//367
f 207//368 210//368 208//368
f 209//369 211//369 212//369
f 209//370 212//370 210//370
f 211//371 213//371 214//371
f 211//372 214//372 212//372
f 213//373 215//373 216//373
f 213//374 216//374 214//374
f 215//375 217//375 218//375
f 215//376 218//376 216//376
f 217//377 219//377 220//377
f 217//378 220//378 218//378
f 219//379 221//379 222//379
f 219//380 222//380 220//380
f 221//381 223//381 224//381
f 221//382 224//382 222//382
f 223//383 225//383 226//383
f 223//384 226//384 224//384
f 225//385 227//385 228//385
f 225//386 228//386 226//386
f 227//387 229//387 230//387
f 227//388 230//388 228//388
f 229//389 185//389 188//389
f 229//390 188//390 230//390
f 213//391 211//391 209//391
f 219//392 217//392 215//392
f 215//393 213//393 209//393
f 215//394 201//394 225//394
f 205//395 201//395 207//395
f 209//396 207//396 201//396
f 203//397 201//397 205//397
f 201//398 215//398 209//398
f 199//399 197//399 201//399
f 219//400 215//400 221//400
f 225//401 223//401 221//401
f 201//402 191//402 225//402
f 191//403 229//403 225//403
f 227//404 225//404 229//404
f 229//405 191//405 185//405
f 195//406 193//406 197//406
f 191//407 197//407 193//407
f 191//408 189//408 185//408
f 191//409 201//409 197//409
f 185//410 189//410 186//410
f 221//411 215//411 225//411
f 214//412 210//412 212//412
f 220//413 216//413 218//413
f 216//414 210//414 214//414
f 216//415 226//415 202//415
f 206//416 208//416 202//416
f 210//417 202//417 208//417
f 204//418 206//418 202//418
f 202//419 210//419 216//419
f 200//420 202//420 198//420
f 220//421 222//421 216//421
f 226//422 222//422 224//422
f 202//423 226//423 192//423
f 192//424 226//424 230//424
f 228//425 230//425 226//425
f 230//426 188//426 192//426
f 196//427 198//427 194//427
f 192//428 194//428 198//428
f 192//429 188//429 190//429
f 192//430 198//430 202//430
f 188//431 187//431 190//431
f 222//432 226//432 216//432
f 1//1 2//1 3//1
f 1//2 3//2 4//2
f 2//3 5//3 6//3
f 2//4 6//4 3//4
f 5//5 7//5 8//5
f 5//6 8//6 6//6
f 7//7 9//7 10//7
f 7//7 10//7 8//7
f 9//8 11//8 12//8
f 9//9 12//9 10//9
f 11//10 13//10 14//10
f 11//11 14//11 12//11
f 13//12 15//12 16//12
f 13//13 16//13 14//13
f 15//14 17//14 18//14
f 15//15 18//15 16//15
f 17//16 19//16 20//16
f 17//17 20//17 18//17
f 19//18 21//18 22//18
f 19//18 22//18 20//18
f 21//19 23//19 24//19
f 21//20 24//20 22//20
f 23//21 25//21 26//21
f 23//22 26//22 24//22
f 25//23 27//23 28//23
f 25//24 28//24 26//24
f 27//25 29//25 30//25
f 27//26 30//26 28//26
f 29//27 31//27 32//27
f 29//28 32//28 30//28
f 31//29 33//29 34//29
f 31//30 34//30 32//30
f 33//31 35//31 36//31
f 33//32 36//32 34//32
f 35//33 37//33 38//33
f 35//34 38//34 36//34
f 37//35 39//35 40//35
f 37//36 40//36 38//36
f 39//37 41//37 42//37
f 39//38 42//38 40//38
f 41//39 43//39 44//39
f 41//40 44//40 42//40
f 43//41 45//41 46//41
f 43//42 46//42 44//42
f 45//43 1//43 4//43
f 45//44 4//44 46//44
f 29//45 27//45 25//45
f 35//46 33//46 31//46
f 31//47 29//47 25//47
f 31//48 17//48 41//48
f 21//49 17//49 23//49
f 25//50 23//50 17//50
f 19//51 17//51 21//51
f 17//52 31//52 25//52
f 15//53 13//53 17//53
f 35//54 31//54 37//54
f 41//55 39//55 37//55
f 17//56 7//56 41//56
f 7//57 45//57 41//57
f 43//58 41//58 45//58
f 45//59 7//59 1//59
f 11//60 9//60 13//60
f 7//61 13//61 9//61
f 7//62 5//62 1//62
f 7//63 17//63 13//63
f 1//64 5//64 2//64
f 37//65 31//65 41//65
f 30//66 26//66 28//66
f 36//67 32//67 34//67
f 32//68 26//68 30//68
f 32//69 42//69 18//69
f 22//70 24//70 18//70
f 26//71 18//71 24//71
f 20//72 22//72 18//72
f 18//73 26//73 32//73
f 16//74 18//74 14//74
f 36//75 38//75 32//75
f 42//76 38//76 40//76
f 18//77 42//77 8//77
f 8//78 42//78 46//78
f 44//79 46//79 42//79
f 46//80 4//80 8//80
f 12//81 14//81 10//81
f 8//82 10//82 14//82
f 8//83 4//83 6//83
f 8//84 14//84 18//84
f 4//85 3//85 6//85
f 38//86 42//86 32//86
f 47//87 48//87 49//87
f 47//88 49//88 50//88
f 48//89 51//89 52//89
f 48//90 52//90 49//90
f 51//91 53//91 54//91
f 51//92 54//92 52//92
f 53//93 55//93 56//93
f 53//94 56//94 54//94
f 55//95 57//95 58//95
f 55//96 58//96 56//96
f 57//97 59//97 60//97
f 57//98 60//98 58//98
f 59//99 61//99 62//99
f 59//100 62//100 60//100
f 61//101 63//101 64//101
f 61//102 64//102 62//102
f 63//103 65//103 66//103
f 63//104 66//104 64//104
f 65//105 67//105 68//105
f 65//106 68//106 66//106
f 67//107 69//107 70//107
f 67//108 70//108 68//108
f 69//109 71//109 72//109
f 69//110 72//110 70//110
f 71//111 73//111 74//111
f 71//112 74//112 72//112
f 73//113 75//113 76//113
f 73//114 76//114 74//114
f 75//115 77//115 78//115
f 75//116 78//116 76//116
f 77//117 79//117 80//117
f 77//118 80//118 78//118
f 79//119 81//119 82//119
f 79//120 82//120 80//120
f 81//121 83//121 84//121
f 81//122 84//122 82//122
f 83//123 85//123 86//123
f 83//124 86//124 84//124
f 85//125 87//125 88//125
f 85//126 88//126 86//126
f 87//127 89//127 90//127
f 87//128 90//128 88//128
f 89//129 91//129 92//129
f 89//130 92//130 90//130
f 91//131 47//131 50//131
f 91//132 50//132 92//132
f 75//133 73//133 71//133
f 81//134 79//134 77//134
f 77//135 75//135 71//135
f 77//136 63//136 87//136
f 67//137 63//137 69//137
f 71//138 69//138 63//138
f 65//139 63//139 67//139
f 63//140 77//140 71//140
f 61//141 59//141 63//141
f 81//142 77//142 83//142
f 87//143 85//143 83//143
f 63//144 53//144 87//144
f 53//145 91//145 87//145
f 89//146 87//146 91//146
f 91//147 53//147 47//147
f 57//148 55//148 59//148
f 53//149 59//149 55//149
f 53//150 51//150 47//150
f 53//151 63//151 59//151
f 47//152 51//152 48//152
f 83//153 77//153 87//153
f 76//154 72//154 74//154
f 82//155 78//155 80//155
f 78//156 72//156 76//156
f 78//157 88//157 64//157
f 68//158 70//158 64//158
f 72//159 64//159 70//159
f 66//160 68//160 64//160
f 64//161 72//161 78//161
f 62//162 64//162 60//162
f 82//163 84//163 78//163
f 88//164 84//164 86//164
f 64//165 88//165 54//165
f 54//166 88//166 92//166
f 90//167 92//167 88//167
f 92//168 50//168 54//168
f 58//169 60//169 56//169
f 54//170 56//170 60//170
f 54//171 50//171 52//171
f 54//172 60//172 64//172
f 50//173 49//173 52//173
f 84//174 88//174 78//174
f 139//261 140//261 141//261
f 139//262 141//262 142//262
f 140//263 143//263 144//263
f 140//264 144//264 141//264
f 143//265 145//265 146//265
f 143//266 146//266 144//266
f 145//267 147//267 148//267
f 145//268 148//268 146//268
f 147//269 149//269 150//269
f 147//270 150//270 148//270
f 149//271 151//271 152//271
f 149//272 152//272 150//272
f 151//273 153//273 154//273
f 151//274 154//274 152//274
f 153//275 155//275 156//275
f 153//276 156//276 154//276
f 155//277 157//277 158//277
f 155//278 158//278 156//278
f 157//279 159//279 160//279
f 157//280 160//280 158//280
f 159//281 161//281 162//281
f 159//282 162//282 160//282
f 161//283 163//283 164//283
f 161//284 164//284 162//284
f 163//285 165//285 166//285
f 163//286 166//286 164//286
f 165//287 167//287 168//287
f 165//287 168//287 166//287
f 167//288 169//288 170//288
f 167//289 170//289 168//289
f 169//290 171//290 172//290
f 169//290 172//290 170//290
f 171//291 173//291 174//291
f 171//292 174//292 172//292
f 173//293 175//293 176//293
f 173//293 176//293 174//293
f 175//294 177//294 178//294
f 175//295 178//295 176//295
f 177//296 179//296 180//296
f 177//297 180//297 178//297
f 179//298 181//298 182//298
f 179//299 182//299 180//299
f 181//300 183//300 184//300
f 181//301 184//301 182//301
f 183//302 139//302 142//302
f 183//303 142//303 184//303
f 167//304 165//304 163//304
f 173//305 171//305 169//305
f 169//306 167//306 163//306
f 169//307 155//307 179//307
f 159//308 155//308 161//308
f 163//309 161//309 155//309
f 157//310 155//310 159//310
f 155//311 169//311 163//311
f 153//312 151//312 155//312
f 173//313 169//313 175//313
f 179//314 177//314 175//314
f 155//315 145//315 179//315
f 145//316 183//316 179//316
f 181//317 179//317 183//317
f 183//318 145//318 139//318
f 149//319 147//319 151//319
f 145//320 151//320 147//320
f 145//321 143//321 139//321
f 145//322 155//322 151//322
f 139//323 143//323 140//323
f 175//324 169//324 179//324
f 168//325 164//325 166//325
f 174//326 170//326 172//326
f 170//327 164//327 168//327
f 170//328 180//328 156//328
f 160//329 162//329 156//329
f 164//330 156//330 162//330
f 158//331 160//331 156//331
f 156//332 164//332 170//332
f 154//333 156//333 152//333
f 174//334 176//334 170//334
f 180//335 176//335 178//335
f 156//336 180//336 146//336
f 146//337 180//337 184//337
f 182//338 184//338 180//338
f 184//339 142//339 146//339
f 150//340 152//340 148//340
f 146//341 148//341 152//341
f 146//342 142//342 144//342
f 146//343 152//343 156//343
f 142//344 141//344 144//344
f 176//345 180//345 170//345
f 185//346 186//346 187//346
f 185//347 187//347 188//347
f 186//348 189//348 190//348
f 186//349 190//349 187//349
f 189//350 191//350 192//350
f 189//351 192//351 190//351
f 191//352 193//352 194//352
f 191//353 194//353 192//353
f 193//354 195//354 196//354
f 193//355 196//355 194//355
f 195//356 197//356 198//356
f 195//357 198//357 196//357
f 197//358 199//358 200//358
f 197//359 200//359 198//359
f 199//360 201//360 202//360
f 199//361 202//361 200//361
f 201//362 203//362 204//362
f 201//363 204//363 202//363
f 203//364 205//364 206//364
f 203//365 206//365 204//365
f 205//366 207//366 208//366
f 205//366 208//366 206//366
f 207//367 209//367 210//367
f 207//368 210//368 208//368
f 209//369 211//369 212//369
f 209//370 212//370 210//370
f 211//371 213//371 214//371
f 211//372 214//372 212//372
f 213//373 215//373 216//373
f 213//374 216//374 214//374
f 215//375 217//375 218//375
f 215//376 218//376 216//376
f 217//377 219//377 220//377
f 217//378 220//378 218//378
f 219//379 221//379 222//379
f 219//380 222//380 220//380
f 221//381 223//381 224//381
f 221//382 224//382 222//382
f 223//383 225//383 226//383
f 223//384 226//384 224//384
f 225//385 227//385 228//385
f 225//386 228//386 226//386
f 227//387 229//387 230//387
f 227//388 230//388 228//388
f 229//389 185//389 188//389
f 229//390 188//390 230//390
f 213//391 211//391 209//391
f 219//392 217//392 215//392
f 215//393 213//393 209//393
f 215//394 201//394 225//394
f 205//395 201//395 207//395
f 209//396 207//396 201//396
f 203//397 201//397 205//397
f 201//398 215//398 209//398
f 199//399 197//399 201//399
f 219//400 215//400 221//400
f 225//401 223//401 221//401
f 201//402 191//402 225//402
f 191//403 229//403 225//403
f 227//404 225//404 229//404
f 229//405 191//405 185//405
f 195//406 193//406 197//406
f 191//407 197//407 193//407
f 191//408 189//408 185//408
f 191//409 201//409 197//409
f 185//410 189//410 186//410
f 221//411 215//411 225//411
f 214//412 210//412 212//412
f 220//413 216//413 218//413
f 216//414 210//414 214//414
f 216//415 226//415 202//415
f 206//416 208//416 202//416
f 210//417 202//417 208//417
f 204//418 206//418 202//418
f 202//419 210//419 216//419
f 200//420 202//420 198//420
f 220//421 222//421 216//421
f 226//422 222//422 224//422
f 202//423 226//423 192//423
f 192//424 226//424 230//424
f 228//425 230//425 226//425
f 230//426 188//426 192//426
f 196//427 198//427 194//427
f 192//428 194//428 198//428
f 192//429 188//429 190//429
f 192//430 198//430 202//430
f 188//431 187//431 190//431
f 222//432 226//432 216//432
# Vertices: 230, normals: 432, texture coordinates: 0, faces: 792

