# File generated by ImageToStl.com - Free Image and 3D model conversion tools

o obj1
v -71.11876678 -13.4250927 43.99052429
v -71.12307739 -13.39298439 44.26863098
v 35.95848465 0.96217561 44.26863098
v 35.96278763 0.93006712 43.99052429
v -71.11724854 -13.43643379 44.54516602
v 35.96430969 0.91872591 44.54516602
v -71.10173035 -13.55221939 44.79962158
v 35.9798317 0.80294061 44.79962158
v -71.07765961 -13.73175335 45.01312256
v 36.00389862 0.62340689 45.01312256
v -71.04682922 -13.96172047 45.16983414
v 36.034729 0.39343995 45.16983414
v -71.01152802 -14.22506523 45.25813293
v 36.07003021 0.13009541 45.25813293
v -70.97436523 -14.50225544 45.27147675
v 36.10718918 -0.1470957 45.27147675
v -70.93811035 -14.7727356 45.20886612
v 36.14345169 -0.41757533 45.20886612
v -70.90543365 -15.01644325 45.07495499
v 36.17612076 -0.66128331 45.07495499
v -70.87877655 -15.21530533 44.87966537
v 36.20278168 -0.86014485 44.87966537
v -70.86010742 -15.35457134 44.63748932
v 36.22145081 -0.9994114 44.63748932
v -70.85081482 -15.42391396 44.3663826
v 36.23074722 -1.06875408 44.3663826
v -70.85157776 -15.41819 44.08645248
v 36.22998047 -1.06303024 44.08645248
v -70.86235046 -15.33782482 43.81846237
v 36.21920395 -0.98266417 43.81846237
v -70.88233185 -15.18877697 43.58228683
v 36.19922638 -0.83361644 43.58228683
v -70.91004181 -14.98210144 43.39543915
v 36.17151642 -0.62694108 43.39543915
v -70.94342041 -14.73312664 43.27178192
v 36.13814163 -0.3779664 43.27178192
v -70.9799881 -14.46031761 43.22048187
v 36.10157013 -0.10515763 43.22048187
v -71.01704407 -14.18390751 43.24534607
v 36.06451416 0.17125224 43.24534607
v -71.05183411 -13.92439747 43.34453201
v 36.02972412 0.43076313 43.34453201
v -71.08177948 -13.70103168 43.51068115
v 35.99977875 0.65412831 43.51068115
v -71.1046524 -13.53037834 43.7314682
v 35.97690201 0.82478184 43.7314682
v -73.26254272 -8.74135494 38.09989166
v -73.27158356 -8.71024704 38.37800217
v 30.47529793 21.44128036 38.37800217
v 30.48434067 21.41017151 38.09989166
v -73.25935364 -8.75234318 38.6545372
v 30.48753357 21.39918327 38.6545372
v -73.22675323 -8.86452293 38.90898895
v 30.52013588 21.28700447 38.90898895
v -73.17620087 -9.0384655 39.12248993
v 30.57068825 21.1130619 39.12248993
v -73.11144257 -9.26127148 39.27920151
v 30.63544083 20.89025497 39.27920151
v -73.03729248 -9.51641464 39.36750031
v 30.70959282 20.63511276 39.36750031
v -72.95924377 -9.7849741 39.38084412
v 30.78764153 20.36655235 39.38084412
v -72.88307953 -10.04703045 39.3182373
v 30.86380196 20.104496 39.3182373
v -72.81446075 -10.28314877 39.18432236
v 30.93242455 19.86837769 39.18432236
v -72.75846863 -10.47581768 38.98903656
v 30.98841858 19.67570877 38.98903656
v -72.71925354 -10.61074734 38.74685669
v 31.02763367 19.54077911 38.74685669
v -72.69972992 -10.67792988 38.47574997
v 31.04715919 19.47359657 38.47574997
v -72.70133972 -10.67238426 38.19581985
v 31.04554749 19.47914314 38.19581985
v -72.72396851 -10.59452152 37.92782974
v 31.0229187 19.55700493 37.92782974
v -72.76593781 -10.4501152 37.69165421
v 30.9809494 19.7014122 37.69165421
v -72.8241272 -10.24987602 37.50481033
v 30.92275429 19.90165138 37.50481033
v -72.8942337 -10.00865459 37.38114929
v 30.85264969 20.14287186 37.38114929
v -72.97105408 -9.74434185 37.32985306
v 30.77583313 20.4071846 37.32985306
v -73.04888153 -9.47653961 37.35471725
v 30.69800377 20.67498779 37.35471725
v -73.12195587 -9.22511005 37.45389938
v 30.62493134 20.9264164 37.45389938
v -73.18484497 -9.00870132 37.62004852
v 30.56203651 21.14282608 37.62004852
v -73.23290253 -8.84336185 37.84083557
v 30.51398468 21.3081646 37.84083557
v -75.81761169 -6.0332427 67.40742493
v -75.82665253 -6.00213385 67.68553162
v 27.92023277 24.14939308 67.68553162
v 27.92927361 24.11828423 67.40742493
v -75.81441498 -6.04423046 67.96206665
v 27.93246651 24.10729599 67.96206665
v -75.78181458 -6.15641022 68.21652222
v 27.96506882 23.99511719 68.21652222
v -75.73126221 -6.33035278 68.43002319
v 28.01562119 23.82117462 68.43002319
v -75.66651154 -6.55315828 68.58673096
v 28.08037567 23.59836769 68.58673096
v -75.59236145 -6.80830193 68.67503357
v 28.15452576 23.34322548 68.67503357
v -75.51430511 -7.0768609 68.68837738
v 28.23257637 23.07466507 68.68837738
v -75.4381485 -7.33891773 68.62577057
v 28.3087368 22.81260872 68.62577057
v -75.36952972 -7.57503605 68.49185181
v 28.37735939 22.5764904 68.49185181
v -75.31352997 -7.76770496 68.29656982
v 28.43335342 22.38382149 68.29656982
v -75.27431488 -7.90263414 68.05438995
v 28.47256851 22.24889183 68.05438995
v -75.25479126 -7.96981764 67.78327942
v 28.49209213 22.18170929 67.78327942
v -75.25640106 -7.96427202 67.5033493
v 28.49048042 22.18725395 67.5033493
v -75.27902985 -7.88640881 67.23535919
v 28.46785164 22.26511765 67.23535919
v -75.32099915 -7.74200249 66.99918365
v 28.42588425 22.40952492 66.99918365
v -75.37919617 -7.54176331 66.81233978
v 28.36768913 22.6097641 66.81233978
v -75.44930267 -7.30054188 66.68868256
v 28.29758453 22.85098457 66.68868256
v -75.52611542 -7.03622913 66.63738251
v 28.22076797 23.11529732 66.63738251
v -75.6039505 -6.7684269 66.6622467
v 28.14293671 23.38310051 66.6622467
v -75.67701721 -6.51699734 66.76142883
v 28.06986618 23.63452911 66.76142883
v -75.73991394 -6.30058813 66.92758179
v 28.00697136 23.8509388 66.92758179
v -75.78796387 -6.13524914 67.14836884
v 27.95891953 24.01627731 67.14836884
v -72.79036713 -3.96948481 66.72394562
v -72.78656006 -3.9373138 67.00205231
v 34.50378799 -16.63820648 67.00205231
v 34.49998093 -16.67037773 66.72394562
v -72.7917099 -3.98084807 67.27858734
v 34.49863434 -16.68174171 67.27858734
v -72.80544281 -4.09685898 67.53304291
v 34.48490143 -16.79775238 67.53304291
v -72.82673645 -4.27674294 67.74654388
v 34.46360779 -16.97763634 67.74654388
v -72.85401154 -4.50715828 67.90325928
v 34.4363327 -17.20805168 67.90325928
v -72.88524628 -4.77101612 67.99155426
v 34.40509415 -17.47190857 67.99155426
v -72.91812897 -5.04874802 68.00489807
v 34.37221909 -17.74964142 68.00489807
v -72.95021057 -5.31975508 67.94229126
v 34.34013748 -18.02064705 67.94229126
v -72.97911072 -5.56393814 67.80838013
v 34.31122971 -18.26483154 67.80838013
v -73.00270081 -5.76318741 67.61309052
v 34.28764343 -18.46408081 67.61309052
v -73.01921844 -5.90272522 67.37091064
v 34.27112579 -18.60361862 67.37091064
v -73.02744293 -5.97220325 67.09980774
v 34.26290131 -18.6730957 67.09980774
v -73.02676392 -5.96646833 66.81987762
v 34.26358032 -18.66736031 66.81987762
v -73.0172348 -5.88594532 66.55188751
v 34.27311325 -18.58683777 66.55188751
v -72.9995575 -5.73660707 66.31571198
v 34.29079056 -18.4375 66.31571198
v -72.97504425 -5.52952909 66.12886047
v 34.3153038 -18.23042107 66.12886047
v -72.94551086 -5.28006887 66.00520325
v 34.34483337 -17.98096085 66.00520325
v -72.9131546 -5.00672817 65.9539032
v 34.37719345 -17.70762062 65.9539032
v -72.88037109 -4.72977924 65.9787674
v 34.40997696 -17.43067169 65.9787674
v -72.84958649 -4.46976233 66.07795715
v 34.44075775 -17.1706543 66.07795715
v -72.82309723 -4.24596167 66.24410248
v 34.46725082 -16.94685364 66.24410248
v -72.80284882 -4.07497549 66.46488953
v 34.48749161 -16.77586746 66.46488953
vn -0.13198 0.98448 -0.11571
vn -0.13198 0.98448 -0.1157
vn -0.13123 0.97891 0.15657
vn -0.13123 0.97891 0.15657
vn -0.12075 0.90074 0.41723
vn -0.12075 0.90074 0.41723
vn -0.10132 0.75577 0.64695
vn -0.10132 0.75577 0.64695
vn -0.07437 0.55474 0.82869
vn -0.07437 0.55474 0.82869
vn -0.0419 0.31257 0.94897
vn -0.0419 0.31257 0.94897
vn -0.00633 0.04724 0.99886
vn -0.00633 0.04724 0.99886
vn 0.02971 -0.22164 0.97468
vn 0.02971 -0.22163 0.97468
vn 0.06355 -0.47403 0.87821
vn 0.06355 -0.47403 0.87821
vn 0.09267 -0.6913 0.7166
vn 0.09267 -0.6913 0.7166
vn 0.11493 -0.85729 0.50185
vn 0.11493 -0.85728 0.50185
vn 0.12865 -0.95969 0.24988
vn 0.12865 -0.95969 0.24988
vn 0.13284 -0.99092 -0.02062
vn 0.13284 -0.99092 -0.02063
vn 0.12718 -0.94866 -0.2896
vn 0.12718 -0.94866 -0.2896
vn 0.11208 -0.83604 -0.5371
vn 0.11208 -0.83604 -0.5371
vn 0.08867 -0.66142 -0.74476
vn 0.08867 -0.66142 -0.74476
vn 0.05868 -0.43773 -0.89719
vn 0.05868 -0.43774 -0.89719
vn 0.02434 -0.1816 -0.98307
vn 0.02434 -0.1816 -0.98307
vn -0.0118 0.08802 -0.99605
vn -0.0118 0.08802 -0.99605
vn -0.04707 0.35111 -0.93515
vn -0.04707 0.35111 -0.93515
vn -0.07885 0.58815 -0.8049
vn -0.07885 0.58815 -0.8049
vn -0.10478 0.78157 -0.61496
vn -0.10478 0.78157 -0.61496
vn -0.12294 0.91703 -0.3794
vn -0.12294 0.91703 -0.3794
vn -0.99113 -0.13291 -2E-05
vn -0.99113 -0.13286 3E-05
vn -0.99113 -0.13289 -1E-05
vn -0.99113 -0.13287 -0
vn -0.99113 -0.13289 1E-05
vn -0.99113 -0.13289 2E-05
vn -0.99112 -0.13293 8E-05
vn -0.99113 -0.13286 -0
vn -0.99113 -0.13288 0.00011
vn -0.99114 -0.13284 6E-05
vn -0.99113 -0.13287 0
vn -0.99113 -0.13287 -0
vn -0.99114 -0.13286 -1E-05
vn -0.99113 -0.13292 6E-05
vn -0.99114 -0.13286 -1E-05
vn -0.99114 -0.13285 4E-05
vn -0.99114 -0.13286 2E-05
vn -0.99114 -0.13284 -0
vn -0.99113 -0.13287 1E-05
vn -0.99112 -0.133 -1E-05
vn -0.99113 -0.13287 -0
vn 0.99113 0.13291 0
vn 0.99114 0.13283 -6E-05
vn 0.99114 0.13283 -1E-05
vn 0.99113 0.13287 0
vn 0.99113 0.13287 -0
vn 0.99113 0.13287 0
vn 0.99114 0.13284 4E-05
vn 0.99113 0.13287 0
vn 0.99113 0.13287 4E-05
vn 0.99113 0.13286 -1E-05
vn 0.99113 0.13287 -1E-05
vn 0.99113 0.13287 -0
vn 0.99113 0.13287 -0
vn 0.99113 0.13289 -2E-05
vn 0.99113 0.13287 -0
vn 0.99114 0.13285 -4E-05
vn 0.99113 0.13287 1E-05
vn 0.99113 0.13286 -0
vn 0.99113 0.13287 1E-05
vn 0.99114 0.13285 -0
vn 0.99113 0.13287 0
vn -0.2772 0.95382 -0.1157
vn -0.2772 0.95382 -0.11571
vn -0.27564 0.94843 0.15657
vn -0.27564 0.94842 0.15658
vn -0.25363 0.87269 0.41724
vn -0.25363 0.87269 0.41723
vn -0.21281 0.73223 0.64695
vn -0.1562 0.53747 0.82869
vn -0.1562 0.53747 0.82869
vn -0.08801 0.30284 0.94897
vn -0.08801 0.30284 0.94897
vn -0.0133 0.04576 0.99886
vn -0.0133 0.04576 0.99886
vn 0.0624 -0.21472 0.97468
vn 0.0624 -0.21472 0.97468
vn 0.13348 -0.45928 0.8782
vn 0.13348 -0.45928 0.8782
vn 0.19465 -0.66977 0.7166
vn 0.19465 -0.66977 0.7166
vn 0.24139 -0.83059 0.50185
vn 0.27023 -0.92981 0.24987
vn 0.27023 -0.92981 0.24988
vn 0.27902 -0.96006 -0.02062
vn 0.27902 -0.96006 -0.02063
vn 0.26712 -0.91912 -0.2896
vn 0.26712 -0.91912 -0.2896
vn 0.23541 -0.81 -0.5371
vn 0.23541 -0.81 -0.5371
vn 0.18624 -0.64082 -0.74476
vn 0.18624 -0.64082 -0.74476
vn 0.12326 -0.42411 -0.89718
vn 0.12326 -0.42412 -0.89718
vn 0.05113 -0.17593 -0.98307
vn 0.05113 -0.17593 -0.98307
vn -0.02478 0.08528 -0.99605
vn -0.02478 0.08528 -0.99605
vn -0.09886 0.34016 -0.93516
vn -0.09886 0.34016 -0.93516
vn -0.16561 0.56984 -0.8049
vn -0.16561 0.56983 -0.8049
vn -0.22007 0.75723 -0.61496
vn -0.22007 0.75723 -0.61496
vn -0.25821 0.88847 -0.37939
vn -0.25821 0.88847 -0.3794
vn -0.96026 -0.2791 -1E-05
vn -0.96026 -0.27912 -7E-05
vn -0.96026 -0.27909 -1E-05
vn -0.96027 -0.27908 0
vn -0.96028 -0.27905 -2E-05
vn -0.96027 -0.27907 0
vn -0.96027 -0.27906 -0
vn -0.96027 -0.27907 0
vn -0.96027 -0.27908 -7E-05
vn -0.96026 -0.2791 -5E-05
vn -0.96027 -0.27906 -6E-05
vn -0.96027 -0.27908 0
vn -0.96027 -0.27908 -0
vn -0.96029 -0.27899 -0.0001
vn -0.96028 -0.27903 0
vn -0.96028 -0.27905 7E-05
vn -0.96026 -0.27909 -1E-05
vn -0.96027 -0.27908 -1E-05
vn -0.96027 -0.27908 0
vn -0.96028 -0.27903 -1E-05
vn -0.96027 -0.27908 0
vn 0.96027 0.27908 0
vn 0.96027 0.27907 -1E-05
vn 0.96027 0.27909 0
vn 0.96027 0.27908 0
vn 0.96027 0.27907 1E-05
vn 0.96027 0.27908 0
vn 0.96027 0.27909 -1E-05
vn 0.96027 0.27908 -0
vn 0.96027 0.27907 2E-05
vn 0.96027 0.27908 0
vn 0.96027 0.27907 2E-05
vn 0.96027 0.27908 -0
vn 0.96027 0.27908 -0
vn 0.96027 0.27908 -0
vn 0.96027 0.27907 -0
vn 0.96027 0.27909 2E-05
vn 0.96027 0.27908 -0
vn 0.96027 0.27908 0
vn 0.96027 0.27908 -0
vn 0.96026 0.27911 0
vn 0.96027 0.27908 -0
vn -0.2772 0.95382 -0.11571
vn -0.27564 0.94842 0.15658
vn -0.27564 0.94842 0.15657
vn -0.25363 0.87269 0.41723
vn -0.25363 0.87269 0.41723
vn -0.1562 0.53746 0.8287
vn -0.1562 0.53746 0.8287
vn -0.08802 0.30285 0.94897
vn -0.08802 0.30285 0.94897
vn -0.0133 0.04576 0.99886
vn -0.0133 0.04576 0.99886
vn 0.0624 -0.21472 0.97468
vn 0.13348 -0.45929 0.8782
vn 0.13348 -0.45929 0.8782
vn 0.19465 -0.66976 0.71661
vn 0.19465 -0.66976 0.71661
vn 0.24139 -0.83059 0.50185
vn 0.24139 -0.83059 0.50185
vn 0.27023 -0.92981 0.24987
vn 0.27023 -0.92981 0.24987
vn 0.27902 -0.96006 -0.02062
vn 0.27902 -0.96006 -0.02062
vn 0.26712 -0.91912 -0.2896
vn 0.26712 -0.91912 -0.2896
vn 0.23541 -0.81 -0.5371
vn 0.23541 -0.81 -0.5371
vn 0.18624 -0.64081 -0.74476
vn 0.12326 -0.4241 -0.89719
vn 0.12326 -0.4241 -0.89719
vn 0.05113 -0.17594 -0.98307
vn 0.05113 -0.17594 -0.98307
vn -0.02478 0.08528 -0.99605
vn -0.02478 0.08528 -0.99605
vn -0.09886 0.34016 -0.93516
vn -0.09886 0.34016 -0.93516
vn -0.16561 0.56984 -0.80489
vn -0.16561 0.56984 -0.80489
vn -0.22007 0.75723 -0.61496
vn -0.22007 0.75723 -0.61496
vn -0.25821 0.88847 -0.3794
vn -0.25821 0.88847 -0.3794
vn -0.96026 -0.2791 -1E-05
vn -0.96027 -0.27908 1E-05
vn -0.96026 -0.2791 -1E-05
vn -0.96027 -0.27908 -0
vn -0.96027 -0.27908 -0
vn -0.96026 -0.27909 1E-05
vn -0.96029 -0.27902 -9E-05
vn -0.96027 -0.27908 -0
vn -0.96026 -0.27909 0.00013
vn -0.96027 -0.27906 4E-05
vn -0.96026 -0.27911 0.00012
vn -0.96027 -0.27908 -0
vn -0.96027 -0.27908 -0
vn -0.96026 -0.27912 4E-05
vn -0.96026 -0.27909 -0
vn -0.96027 -0.27908 -2E-05
vn -0.96027 -0.27907 1E-05
vn -0.96028 -0.27905 1E-05
vn -0.96027 -0.27908 -1E-05
vn -0.96026 -0.27911 1E-05
vn 0.96027 0.27907 -0
vn 0.96027 0.27907 -1E-05
vn 0.96027 0.27907 -0
vn 0.96027 0.27908 0
vn 0.96027 0.27909 -1E-05
vn 0.96027 0.27909 -1E-05
vn 0.96027 0.27908 0
vn 0.96027 0.27908 0
vn 0.96027 0.27908 0
vn 0.96027 0.27908 -2E-05
vn 0.96027 0.27908 0
vn 0.96027 0.27908 0
vn 0.96027 0.27908 -0
vn 0.96027 0.27908 0
vn 0.96027 0.27907 -2E-05
vn 0.96027 0.27908 0
vn 0.96027 0.27908 -0
vn 0.96027 0.27907 0
vn 0.11677 0.9864 -0.1157
vn 0.11677 0.9864 -0.1157
vn 0.11611 0.98082 0.15657
vn 0.11611 0.98082 0.15658
vn 0.10684 0.9025 0.41723
vn 0.10684 0.9025 0.41723
vn 0.08964 0.75724 0.64695
vn 0.0658 0.55584 0.82868
vn 0.03707 0.31317 0.94897
vn 0.03707 0.31317 0.94897
vn 0.0056 0.04733 0.99886
vn 0.0056 0.04733 0.99886
vn -0.02629 -0.22205 0.97468
vn -0.02629 -0.22206 0.97468
vn -0.05623 -0.47496 0.87821
vn -0.05622 -0.47496 0.87821
vn -0.08199 -0.69265 0.7166
vn -0.082 -0.69265 0.7166
vn -0.10168 -0.85896 0.50185
vn -0.11383 -0.96156 0.24988
vn -0.11383 -0.96156 0.24988
vn -0.11753 -0.99285 -0.02063
vn -0.11753 -0.99285 -0.02063
vn -0.11252 -0.95051 -0.2896
vn -0.11252 -0.95051 -0.2896
vn -0.09916 -0.83767 -0.5371
vn -0.09916 -0.83767 -0.5371
vn -0.07845 -0.66272 -0.74475
vn -0.07845 -0.66272 -0.74475
vn -0.05192 -0.43859 -0.89719
vn -0.05192 -0.43859 -0.89719
vn -0.02154 -0.18195 -0.98307
vn -0.02154 -0.18195 -0.98307
vn 0.01044 0.08819 -0.99605
vn 0.04165 0.3518 -0.93515
vn 0.04165 0.3518 -0.93515
vn 0.06976 0.58929 -0.8049
vn 0.06976 0.58929 -0.80491
vn 0.0927 0.78309 -0.61496
vn 0.0927 0.78309 -0.61496
vn 0.10877 0.91882 -0.37939
vn 0.10877 0.91882 -0.37939
vn -0.99307 0.11752 -0
vn -0.99306 0.11758 3E-05
vn -0.99307 0.11756 1E-05
vn -0.99307 0.11756 -0
vn -0.99307 0.11755 0
vn -0.99307 0.11755 0
vn -0.99307 0.11748 9E-05
vn -0.99307 0.11755 0
vn -0.99306 0.11757 -6E-05
vn -0.99307 0.11755 -2E-05
vn -0.99307 0.11755 7E-05
vn -0.99307 0.11756 -0
vn -0.99306 0.11757 -0
vn -0.99308 0.11746 0.00011
vn -0.99307 0.11751 -0
vn -0.99307 0.11756 1E-05
vn -0.99307 0.11756 0
vn -0.99307 0.11756 0
vn -0.99307 0.11757 2E-05
vn -0.99307 0.11749 0
vn -0.99307 0.11756 1E-05
vn 0.99306 -0.11757 0
vn 0.99307 -0.11755 1E-05
vn 0.99307 -0.11755 0
vn 0.99307 -0.11756 -0
vn 0.99307 -0.11756 1E-05
vn 0.99307 -0.11756 0
vn 0.99306 -0.11758 2E-05
vn 0.99307 -0.11756 -0
vn 0.99307 -0.11755 -4E-05
vn 0.99306 -0.11757 -3E-05
vn 0.99307 -0.11755 -2E-05
vn 0.99307 -0.11756 -0
vn 0.99307 -0.11756 -0
vn 0.99307 -0.11756 0
vn 0.99306 -0.11757 -0
vn 0.99306 -0.11759 -5E-05
vn 0.99306 -0.11757 -1E-05
vn 0.99307 -0.11755 0
vn 0.99307 -0.11755 1E-05
vn 0.99307 -0.11754 0
vn 0.99307 -0.11756 0
f 1//1 2//1 3//1
f 1//2 3//2 4//2
f 2//3 5//3 6//3
f 2//4 6//4 3//4
f 5//5 7//5 8//5
f 5//6 8//6 6//6
f 7//7 9//7 10//7
f 7//8 10//8 8//8
f 9//9 11//9 12//9
f 9//10 12//10 10//10
f 11//11 13//11 14//11
f 11//12 14//12 12//12
f 13//13 15//13 16//13
f 13//14 16//14 14//14
f 15//15 17//15 18//15
f 15//16 18//16 16//16
f 17//17 19//17 20//17
f 17//18 20//18 18//18
f 19//19 21//19 22//19
f 19//20 22//20 20//20
f 21//21 23//21 24//21
f 21//22 24//22 22//22
f 23//23 25//23 26//23
f 23//24 26//24 24//24
f 25//25 27//25 28//25
f 25//26 28//26 26//26
f 27//27 29//27 30//27
f 27//28 30//28 28//28
f 29//29 31//29 32//29
f 29//30 32//30 30//30
f 31//31 33//31 34//31
f 31//32 34//32 32//32
f 33//33 35//33 36//33
f 33//34 36//34 34//34
f 35//35 37//35 38//35
f 35//36 38//36 36//36
f 37//37 39//37 40//37
f 37//38 40//38 38//38
f 39//39 41//39 42//39
f 39//40 42//40 40//40
f 41//41 43//41 44//41
f 41//42 44//42 42//42
f 43//43 45//43 46//43
f 43//44 46//44 44//44
f 45//45 1//45 4//45
f 45//46 4//46 46//46
f 29//47 27//47 25//47
f 35//48 33//48 31//48
f 31//49 29//49 25//49
f 31//50 17//50 41//50
f 21//51 17//51 23//51
f 25//52 23//52 17//52
f 19//53 17//53 21//53
f 17//54 31//54 25//54
f 15//55 13//55 17//55
f 35//56 31//56 37//56
f 41//57 39//57 37//57
f 17//58 7//58 41//58
f 7//59 45//59 41//59
f 43//60 41//60 45//60
f 45//61 7//61 1//61
f 11//62 9//62 13//62
f 7//63 13//63 9//63
f 7//64 5//64 1//64
f 7//65 17//65 13//65
f 1//66 5//66 2//66
f 37//67 31//67 41//67
f 30//68 26//68 28//68
f 36//69 32//69 34//69
f 32//70 26//70 30//70
f 32//71 42//71 18//71
f 22//72 24//72 18//72
f 26//73 18//73 24//73
f 20//74 22//74 18//74
f 18//75 26//75 32//75
f 16//76 18//76 14//76
f 36//77 38//77 32//77
f 42//78 38//78 40//78
f 18//79 42//79 8//79
f 8//80 42//80 46//80
f 44//81 46//81 42//81
f 46//82 4//82 8//82
f 12//83 14//83 10//83
f 8//84 10//84 14//84
f 8//85 4//85 6//85
f 8//86 14//86 18//86
f 4//87 3//87 6//87
f 38//88 42//88 32//88
f 47//89 48//89 49//89
f 47//90 49//90 50//90
f 48//91 51//91 52//91
f 48//92 52//92 49//92
f 51//93 53//93 54//93
f 51//94 54//94 52//94
f 53//95 55//95 56//95
f 53//95 56//95 54//95
f 55//96 57//96 58//96
f 55//97 58//97 56//97
f 57//98 59//98 60//98
f 57//99 60//99 58//99
f 59//100 61//100 62//100
f 59//101 62//101 60//101
f 61//102 63//102 64//102
f 61//103 64//103 62//103
f 63//104 65//104 66//104
f 63//105 66//105 64//105
f 65//106 67//106 68//106
f 65//107 68//107 66//107
f 67//108 69//108 70//108
f 67//108 70//108 68//108
f 69//109 71//109 72//109
f 69//110 72//110 70//110
f 71//111 73//111 74//111
f 71//112 74//112 72//112
f 73//113 75//113 76//113
f 73//114 76//114 74//114
f 75//115 77//115 78//115
f 75//116 78//116 76//116
f 77//117 79//117 80//117
f 77//118 80//118 78//118
f 79//119 81//119 82//119
f 79//120 82//120 80//120
f 81//121 83//121 84//121
f 81//122 84//122 82//122
f 83//123 85//123 86//123
f 83//124 86//124 84//124
f 85//125 87//125 88//125
f 85//126 88//126 86//126
f 87//127 89//127 90//127
f 87//128 90//128 88//128
f 89//129 91//129 92//129
f 89//130 92//130 90//130
f 91//131 47//131 50//131
f 91//132 50//132 92//132
f 75//133 73//133 71//133
f 81//134 79//134 77//134
f 77//135 75//135 71//135
f 77//136 63//136 87//136
f 67//137 63//137 69//137
f 71//138 69//138 63//138
f 65//139 63//139 67//139
f 63//140 77//140 71//140
f 61//141 59//141 63//141
f 81//142 77//142 83//142
f 87//143 85//143 83//143
f 63//144 53//144 87//144
f 53//145 91//145 87//145
f 89//146 87//146 91//146
f 91//147 53//147 47//147
f 57//148 55//148 59//148
f 53//149 59//149 55//149
f 53//150 51//150 47//150
f 53//151 63//151 59//151
f 47//152 51//152 48//152
f 83//153 77//153 87//153
f 76//154 72//154 74//154
f 82//155 78//155 80//155
f 78//156 72//156 76//156
f 78//157 88//157 64//157
f 68//158 70//158 64//158
f 72//159 64//159 70//159
f 66//160 68//160 64//160
f 64//161 72//161 78//161
f 62//162 64//162 60//162
f 82//163 84//163 78//163
f 88//164 84//164 86//164
f 64//165 88//165 54//165
f 54//166 88//166 92//166
f 90//167 92//167 88//167
f 92//168 50//168 54//168
f 58//169 60//169 56//169
f 54//170 56//170 60//170
f 54//171 50//171 52//171
f 54//172 60//172 64//172
f 50//173 49//173 52//173
f 84//174 88//174 78//174
f 93//175 94//175 95//175
f 93//175 95//175 96//175
f 94//176 97//176 98//176
f 94//177 98//177 95//177
f 97//178 99//178 100//178
f 97//179 100//179 98//179
f 99//95 101//95 102//95
f 99//95 102//95 100//95
f 101//180 103//180 104//180
f 101//181 104//181 102//181
f 103//182 105//182 106//182
f 103//183 106//183 104//183
f 105//184 107//184 108//184
f 105//185 108//185 106//185
f 107//186 109//186 110//186
f 107//103 110//103 108//103
f 109//187 111//187 112//187
f 109//188 112//188 110//188
f 111//189 113//189 114//189
f 111//190 114//190 112//190
f 113//191 115//191 116//191
f 113//192 116//192 114//192
f 115//193 117//193 118//193
f 115//194 118//194 116//194
f 117//195 119//195 120//195
f 117//196 120//196 118//196
f 119//197 121//197 122//197
f 119//198 122//198 120//198
f 121//199 123//199 124//199
f 121//200 124//200 122//200
f 123//201 125//201 126//201
f 123//118 126//118 124//118
f 125//202 127//202 128//202
f 125//203 128//203 126//203
f 127//204 129//204 130//204
f 127//205 130//205 128//205
f 129//206 131//206 132//206
f 129//207 132//207 130//207
f 131//208 133//208 134//208
f 131//209 134//209 132//209
f 133//210 135//210 136//210
f 133//211 136//211 134//211
f 135//212 137//212 138//212
f 135//213 138//213 136//213
f 137//214 93//214 96//214
f 137//215 96//215 138//215
f 121//216 119//216 117//216
f 127//217 125//217 123//217
f 123//218 121//218 117//218
f 123//219 109//219 133//219
f 113//220 109//220 115//220
f 117//221 115//221 109//221
f 111//222 109//222 113//222
f 109//223 123//223 117//223
f 107//224 105//224 109//224
f 127//225 123//225 129//225
f 133//226 131//226 129//226
f 109//227 99//227 133//227
f 99//228 137//228 133//228
f 135//229 133//229 137//229
f 137//230 99//230 93//230
f 103//231 101//231 105//231
f 99//232 105//232 101//232
f 99//233 97//233 93//233
f 99//234 109//234 105//234
f 93//235 97//235 94//235
f 129//153 123//153 133//153
f 122//236 118//236 120//236
f 128//237 124//237 126//237
f 124//238 118//238 122//238
f 124//239 134//239 110//239
f 114//158 116//158 110//158
f 118//240 110//240 116//240
f 112//241 114//241 110//241
f 110//242 118//242 124//242
f 108//243 110//243 106//243
f 128//244 130//244 124//244
f 134//245 130//245 132//245
f 110//246 134//246 100//246
f 100//247 134//247 138//247
f 136//248 138//248 134//248
f 138//249 96//249 100//249
f 104//250 106//250 102//250
f 100//170 102//170 106//170
f 100//251 96//251 98//251
f 100//252 106//252 110//252
f 96//253 95//253 98//253
f 130//174 134//174 124//174
f 139//254 140//254 141//254
f 139//255 141//255 142//255
f 140//256 143//256 144//256
f 140//257 144//257 141//257
f 143//258 145//258 146//258
f 143//259 146//259 144//259
f 145//260 147//260 148//260
f 145//260 148//260 146//260
f 147//261 149//261 150//261
f 147//261 150//261 148//261
f 149//262 151//262 152//262
f 149//263 152//263 150//263
f 151//264 153//264 154//264
f 151//265 154//265 152//265
f 153//266 155//266 156//266
f 153//267 156//267 154//267
f 155//268 157//268 158//268
f 155//269 158//269 156//269
f 157//270 159//270 160//270
f 157//271 160//271 158//271
f 159//272 161//272 162//272
f 159//272 162//272 160//272
f 161//273 163//273 164//273
f 161//274 164//274 162//274
f 163//275 165//275 166//275
f 163//276 166//276 164//276
f 165//277 167//277 168//277
f 165//278 168//278 166//278
f 167//279 169//279 170//279
f 167//280 170//280 168//280
f 169//281 171//281 172//281
f 169//282 172//282 170//282
f 171//283 173//283 174//283
f 171//284 174//284 172//284
f 173//285 175//285 176//285
f 173//286 176//286 174//286
f 175//287 177//287 178//287
f 175//287 178//287 176//287
f 177//288 179//288 180//288
f 177//289 180//289 178//289
f 179//290 181//290 182//290
f 179//291 182//291 180//291
f 181//292 183//292 184//292
f 181//293 184//293 182//293
f 183//294 139//294 142//294
f 183//295 142//295 184//295
f 167//296 165//296 163//296
f 173//297 171//297 169//297
f 169//298 167//298 163//298
f 169//299 155//299 179//299
f 159//300 155//300 161//300
f 163//301 161//301 155//301
f 157//302 155//302 159//302
f 155//303 169//303 163//303
f 153//304 151//304 155//304
f 173//305 169//305 175//305
f 179//306 177//306 175//306
f 155//307 145//307 179//307
f 145//308 183//308 179//308
f 181//309 179//309 183//309
f 183//310 145//310 139//310
f 149//311 147//311 151//311
f 145//312 151//312 147//312
f 145//313 143//313 139//313
f 145//314 155//314 151//314
f 139//315 143//315 140//315
f 175//316 169//316 179//316
f 168//317 164//317 166//317
f 174//318 170//318 172//318
f 170//319 164//319 168//319
f 170//320 180//320 156//320
f 160//321 162//321 156//321
f 164//322 156//322 162//322
f 158//323 160//323 156//323
f 156//324 164//324 170//324
f 154//325 156//325 152//325
f 174//326 176//326 170//326
f 180//327 176//327 178//327
f 156//328 180//328 146//328
f 146//329 180//329 184//329
f 182//330 184//330 180//330
f 184//331 142//331 146//331
f 150//332 152//332 148//332
f 146//333 148//333 152//333
f 146//334 142//334 144//334
f 146//335 152//335 156//335
f 142//336 141//336 144//336
f 176//337 180//337 170//337
f 1//1 2//1 3//1
f 1//2 3//2 4//2
f 2//3 5//3 6//3
f 2//4 6//4 3//4
f 5//5 7//5 8//5
f 5//6 8//6 6//6
f 7//7 9//7 10//7
f 7//8 10//8 8//8
f 9//9 11//9 12//9
f 9//10 12//10 10//10
f 11//11 13//11 14//11
f 11//12 14//12 12//12
f 13//13 15//13 16//13
f 13//14 16//14 14//14
f 15//15 17//15 18//15
f 15//16 18//16 16//16
f 17//17 19//17 20//17
f 17//18 20//18 18//18
f 19//19 21//19 22//19
f 19//20 22//20 20//20
f 21//21 23//21 24//21
f 21//22 24//22 22//22
f 23//23 25//23 26//23
f 23//24 26//24 24//24
f 25//25 27//25 28//25
f 25//26 28//26 26//26
f 27//27 29//27 30//27
f 27//28 30//28 28//28
f 29//29 31//29 32//29
f 29//30 32//30 30//30
f 31//31 33//31 34//31
f 31//32 34//32 32//32
f 33//33 35//33 36//33
f 33//34 36//34 34//34
f 35//35 37//35 38//35
f 35//36 38//36 36//36
f 37//37 39//37 40//37
f 37//38 40//38 38//38
f 39//39 41//39 42//39
f 39//40 42//40 40//40
f 41//41 43//41 44//41
f 41//42 44//42 42//42
f 43//43 45//43 46//43
f 43//44 46//44 44//44
f 45//45 1//45 4//45
f 45//46 4//46 46//46
f 29//47 27//47 25//47
f 35//48 33//48 31//48
f 31//49 29//49 25//49
f 31//50 17//50 41//50
f 21//51 17//51 23//51
f 25//52 23//52 17//52
f 19//53 17//53 21//53
f 17//54 31//54 25//54
f 15//55 13//55 17//55
f 35//56 31//56 37//56
f 41//57 39//57 37//57
f 17//58 7//58 41//58
f 7//59 45//59 41//59
f 43//60 41//60 45//60
f 45//61 7//61 1//61
f 11//62 9//62 13//62
f 7//63 13//63 9//63
f 7//64 5//64 1//64
f 7//65 17//65 13//65
f 1//66 5//66 2//66
f 37//67 31//67 41//67
f 30//68 26//68 28//68
f 36//69 32//69 34//69
f 32//70 26//70 30//70
f 32//71 42//71 18//71
f 22//72 24//72 18//72
f 26//73 18//73 24//73
f 20//74 22//74 18//74
f 18//75 26//75 32//75
f 16//76 18//76 14//76
f 36//77 38//77 32//77
f 42//78 38//78 40//78
f 18//79 42//79 8//79
f 8//80 42//80 46//80
f 44//81 46//81 42//81
f 46//82 4//82 8//82
f 12//83 14//83 10//83
f 8//84 10//84 14//84
f 8//85 4//85 6//85
f 8//86 14//86 18//86
f 4//87 3//87 6//87
f 38//88 42//88 32//88
f 47//89 48//89 49//89
f 47//90 49//90 50//90
f 48//91 51//91 52//91
f 48//92 52//92 49//92
f 51//93 53//93 54//93
f 51//94 54//94 52//94
f 53//95 55//95 56//95
f 53//95 56//95 54//95
f 55//96 57//96 58//96
f 55//97 58//97 56//97
f 57//98 59//98 60//98
f 57//99 60//99 58//99
f 59//100 61//100 62//100
f 59//101 62//101 60//101
f 61//102 63//102 64//102
f 61//103 64//103 62//103
f 63//104 65//104 66//104
f 63//105 66//105 64//105
f 65//106 67//106 68//106
f 65//107 68//107 66//107
f 67//108 69//108 70//108
f 67//108 70//108 68//108
f 69//109 71//109 72//109
f 69//110 72//110 70//110
f 71//111 73//111 74//111
f 71//112 74//112 72//112
f 73//113 75//113 76//113
f 73//114 76//114 74//114
f 75//115 77//115 78//115
f 75//116 78//116 76//116
f 77//117 79//117 80//117
f 77//118 80//118 78//118
f 79//119 81//119 82//119
f 79//120 82//120 80//120
f 81//121 83//121 84//121
f 81//122 84//122 82//122
f 83//123 85//123 86//123
f 83//124 86//124 84//124
f 85//125 87//125 88//125
f 85//126 88//126 86//126
f 87//127 89//127 90//127
f 87//128 90//128 88//128
f 89//129 91//129 92//129
f 89//130 92//130 90//130
f 91//131 47//131 50//131
f 91//132 50//132 92//132
f 75//133 73//133 71//133
f 81//134 79//134 77//134
f 77//135 75//135 71//135
f 77//136 63//136 87//136
f 67//137 63//137 69//137
f 71//138 69//138 63//138
f 65//139 63//139 67//139
f 63//140 77//140 71//140
f 61//141 59//141 63//141
f 81//142 77//142 83//142
f 87//143 85//143 83//143
f 63//144 53//144 87//144
f 53//145 91//145 87//145
f 89//146 87//146 91//146
f 91//147 53//147 47//147
f 57//148 55//148 59//148
f 53//149 59//149 55//149
f 53//150 51//150 47//150
f 53//151 63//151 59//151
f 47//152 51//152 48//152
f 83//153 77//153 87//153
f 76//154 72//154 74//154
f 82//155 78//155 80//155
f 78//156 72//156 76//156
f 78//157 88//157 64//157
f 68//158 70//158 64//158
f 72//159 64//159 70//159
f 66//160 68//160 64//160
f 64//161 72//161 78//161
f 62//162 64//162 60//162
f 82//163 84//163 78//163
f 88//164 84//164 86//164
f 64//165 88//165 54//165
f 54//166 88//166 92//166
f 90//167 92//167 88//167
f 92//168 50//168 54//168
f 58//169 60//169 56//169
f 54//170 56//170 60//170
f 54//171 50//171 52//171
f 54//172 60//172 64//172
f 50//173 49//173 52//173
f 84//174 88//174 78//174
f 93//175 94//175 95//175
f 93//175 95//175 96//175
f 94//176 97//176 98//176
f 94//177 98//177 95//177
f 97//178 99//178 100//178
f 97//179 100//179 98//179
f 99//95 101//95 102//95
f 99//95 102//95 100//95
f 101//180 103//180 104//180
f 101//181 104//181 102//181
f 103//182 105//182 106//182
f 103//183 106//183 104//183
f 105//184 107//184 108//184
f 105//185 108//185 106//185
f 107//186 109//186 110//186
f 107//103 110//103 108//103
f 109//187 111//187 112//187
f 109//188 112//188 110//188
f 111//189 113//189 114//189
f 111//190 114//190 112//190
f 113//191 115//191 116//191
f 113//192 116//192 114//192
f 115//193 117//193 118//193
f 115//194 118//194 116//194
f 117//195 119//195 120//195
f 117//196 120//196 118//196
f 119//197 121//197 122//197
f 119//198 122//198 120//198
f 121//199 123//199 124//199
f 121//200 124//200 122//200
f 123//201 125//201 126//201
f 123//118 126//118 124//118
f 125//202 127//202 128//202
f 125//203 128//203 126//203
f 127//204 129//204 130//204
f 127//205 130//205 128//205
f 129//206 131//206 132//206
f 129//207 132//207 130//207
f 131//208 133//208 134//208
f 131//209 134//209 132//209
f 133//210 135//210 136//210
f 133//211 136//211 134//211
f 135//212 137//212 138//212
f 135//213 138//213 136//213
f 137//214 93//214 96//214
f 137//215 96//215 138//215
f 121//216 119//216 117//216
f 127//217 125//217 123//217
f 123//218 121//218 117//218
f 123//219 109//219 133//219
f 113//220 109//220 115//220
f 117//221 115//221 109//221
f 111//222 109//222 113//222
f 109//223 123//223 117//223
f 107//224 105//224 109//224
f 127//225 123//225 129//225
f 133//226 131//226 129//226
f 109//227 99//227 133//227
f 99//228 137//228 133//228
f 135//229 133//229 137//229
f 137//230 99//230 93//230
f 103//231 101//231 105//231
f 99//232 105//232 101//232
f 99//233 97//233 93//233
f 99//234 109//234 105//234
f 93//235 97//235 94//235
f 129//153 123//153 133//153
f 122//236 118//236 120//236
f 128//237 124//237 126//237
f 124//238 118//238 122//238
f 124//239 134//239 110//239
f 114//158 116//158 110//158
f 118//240 110//240 116//240
f 112//241 114//241 110//241
f 110//242 118//242 124//242
f 108//243 110//243 106//243
f 128//244 130//244 124//244
f 134//245 130//245 132//245
f 110//246 134//246 100//246
f 100//247 134//247 138//247
f 136//248 138//248 134//248
f 138//249 96//249 100//249
f 104//250 106//250 102//250
f 100//170 102//170 106//170
f 100//251 96//251 98//251
f 100//252 106//252 110//252
f 96//253 95//253 98//253
f 130//174 134//174 124//174
f 139//254 140//254 141//254
f 139//255 141//255 142//255
f 140//256 143//256 144//256
f 140//257 144//257 141//257
f 143//258 145//258 146//258
f 143//259 146//259 144//259
f 145//260 147//260 148//260
f 145//260 148//260 146//260
f 147//261 149//261 150//261
f 147//261 150//261 148//261
f 149//262 151//262 152//262
f 149//263 152//263 150//263
f 151//264 153//264 154//264
f 151//265 154//265 152//265
f 153//266 155//266 156//266
f 153//267 156//267 154//267
f 155//268 157//268 158//268
f 155//269 158//269 156//269
f 157//270 159//270 160//270
f 157//271 160//271 158//271
f 159//272 161//272 162//272
f 159//272 162//272 160//272
f 161//273 163//273 164//273
f 161//274 164//274 162//274
f 163//275 165//275 166//275
f 163//276 166//276 164//276
f 165//277 167//277 168//277
f 165//278 168//278 166//278
f 167//279 169//279 170//279
f 167//280 170//280 168//280
f 169//281 171//281 172//281
f 169//282 172//282 170//282
f 171//283 173//283 174//283
f 171//284 174//284 172//284
f 173//285 175//285 176//285
f 173//286 176//286 174//286
f 175//287 177//287 178//287
f 175//287 178//287 176//287
f 177//288 179//288 180//288
f 177//289 180//289 178//289
f 179//290 181//290 182//290
f 179//291 182//291 180//291
f 181//292 183//292 184//292
f 181//293 184//293 182//293
f 183//294 139//294 142//294
f 183//295 142//295 184//295
f 167//296 165//296 163//296
f 173//297 171//297 169//297
f 169//298 167//298 163//298
f 169//299 155//299 179//299
f 159//300 155//300 161//300
f 163//301 161//301 155//301
f 157//302 155//302 159//302
f 155//303 169//303 163//303
f 153//304 151//304 155//304
f 173//305 169//305 175//305
f 179//306 177//306 175//306
f 155//307 145//307 179//307
f 145//308 183//308 179//308
f 181//309 179//309 183//309
f 183//310 145//310 139//310
f 149//311 147//311 151//311
f 145//312 151//312 147//312
f 145//313 143//313 139//313
f 145//314 155//314 151//314
f 139//315 143//315 140//315
f 175//316 169//316 179//316
f 168//317 164//317 166//317
f 174//318 170//318 172//318
f 170//319 164//319 168//319
f 170//320 180//320 156//320
f 160//321 162//321 156//321
f 164//322 156//322 162//322
f 158//323 160//323 156//323
f 156//324 164//324 170//324
f 154//325 156//325 152//325
f 174//326 176//326 170//326
f 180//327 176//327 178//327
f 156//328 180//328 146//328
f 146//329 180//329 184//329
f 182//330 184//330 180//330
f 184//331 142//331 146//331
f 150//332 152//332 148//332
f 146//333 148//333 152//333
f 146//334 142//334 144//334
f 146//335 152//335 156//335
f 142//336 141//336 144//336
f 176//337 180//337 170//337
# Vertices: 184, normals: 337, texture coordinates: 0, faces: 704

