# File generated by ImageToStl.com - Free Image and 3D model conversion tools

o obj1
v 166.56582642 28.49042702 79.52836609
v 166.57124329 28.45521164 79.04679871
v 95.19712067 17.48233795 79.04679871
v 95.19171143 17.51755333 79.52836609
v 166.58833313 28.34410095 78.57719421
v 95.21420288 17.37122726 78.57719421
v 166.61663818 28.15997314 78.13169098
v 95.24250793 17.18709946 78.13169098
v 166.65544128 27.9075985 77.72184753
v 95.28131104 16.9347229 77.72184753
v 166.70372009 27.59350967 77.35826874
v 95.32959747 16.62063599 77.35826874
v 166.76025391 27.22584343 77.05037689
v 95.38612366 16.25296974 77.05037689
v 166.82354736 26.81412315 76.80613708
v 95.44941711 15.84124851 76.80613708
v 166.89196777 26.36901093 76.63188934
v 95.51785278 15.39613628 76.63188934
v 166.96376038 25.90203476 76.53212738
v 95.58963776 14.92916012 76.53212738
v 167.0370636 25.42528915 76.50945282
v 95.66293335 14.45241451 76.50945282
v 167.10995483 24.95112228 76.5644455
v 95.73583221 13.9782486 76.5644455
v 167.18057251 24.49181557 76.69567871
v 95.80644226 13.51894093 76.69567871
v 167.24707031 24.05926132 76.89975739
v 95.87294769 13.08638763 76.89975739
v 167.30773926 23.66466713 77.17139435
v 95.93360901 12.69179249 77.17139435
v 167.36099243 23.31824875 77.5035553
v 95.98686218 12.34537506 77.5035553
v 167.40545654 23.02898216 77.88763428
v 96.03133392 12.05610752 77.88763428
v 167.44000244 22.80435562 78.31369019
v 96.06587219 11.83148098 78.31369019
v 167.46369934 22.65018845 78.77068329
v 96.08956909 11.6773138 78.77068329
v 167.47595215 22.57047272 79.2467804
v 96.10182953 11.59759903 79.2467804
v 167.47644043 22.56727409 79.72964478
v 96.10231781 11.59440041 79.72964478
v 167.46516418 22.6406765 80.20677948
v 96.09103394 11.66780186 80.20677948
v 167.44239807 22.78877449 80.66582489
v 96.06826782 11.8159008 80.66582489
v 167.40872192 23.00773621 81.09488678
v 96.0345993 12.03486252 81.09488678
v 167.36503601 23.2918911 81.48285675
v 95.99092102 12.31901646 81.48285675
v 167.31246948 23.6338768 81.81968689
v 95.93833923 12.66100311 81.81968689
v 167.25236511 24.02483749 82.09664917
v 95.87823486 13.05196381 82.09664917
v 167.1862793 24.45464897 82.30657196
v 95.81215668 13.48177433 82.30657196
v 167.11595154 24.91217613 82.44402313
v 95.74182129 13.93930244 82.44402313
v 167.04316711 25.38557243 82.50543976
v 95.66904449 14.41269779 82.50543976
v 166.96983337 25.86257553 82.48922729
v 95.59571075 14.88969994 82.48922729
v 166.89784241 26.33082962 82.39581299
v 95.52371979 15.35795593 82.39581299
v 166.82907104 26.77821159 82.22761536
v 95.4549408 15.80533695 82.22761536
v 166.76527405 27.19313049 81.98898315
v 95.39115143 16.22025681 81.98898315
v 166.70812988 27.56484222 81.68610382
v 95.33400726 16.59196854 81.68610382
v 166.65910339 27.88371849 81.32681274
v 95.28498077 16.9108448 81.32681274
v 166.61947632 28.14150238 80.92042542
v 95.2453537 17.16862679 80.92042542
v 166.590271 28.33151436 80.4774704
v 95.21614075 17.35864067 80.4774704
v 166.57223511 28.44883537 80.00940704
v 95.19810486 17.47596169 80.00940704
v 163.49794006 10.89874172 80.60185242
v 163.49874878 10.86312103 80.12029266
v 91.30426025 9.24250698 80.12029266
v 91.30345917 9.27812672 80.60185242
v 163.50126648 10.75073338 79.65068054
v 91.30677795 9.13011932 79.65068054
v 163.50544739 10.56448936 79.20518494
v 91.31095886 8.94387531 79.20518494
v 163.51116943 10.30921268 78.79533386
v 91.31669617 8.68859863 78.79533386
v 163.51831055 9.99151421 78.4317627
v 91.32382202 8.37090015 78.4317627
v 163.5266571 9.61962223 78.12386322
v 91.33216858 7.99900818 78.12386322
v 163.53601074 9.20316887 77.87963104
v 91.34152222 7.58255482 77.87963104
v 163.54611206 8.75294113 77.70537567
v 91.35163116 7.1323266 77.70537567
v 163.55671692 8.28059769 77.60562134
v 91.36222839 6.65998316 77.60562134
v 163.5675354 7.79837275 77.58293915
v 91.3730545 6.17775869 77.58293915
v 163.57830811 7.3187561 77.63793182
v 91.38381958 5.69814205 77.63793182
v 163.58872986 6.85416937 77.76916504
v 91.39424896 5.23355532 77.76916504
v 163.59855652 6.41664505 77.97324371
v 91.40407562 4.79603052 77.97324371
v 163.60751343 6.01751423 78.24488068
v 91.41303253 4.39690018 78.24488068
v 163.61538696 5.66711521 78.57704163
v 91.42089844 4.04650116 78.57704163
v 163.62194824 5.37452269 78.96112061
v 91.42746735 3.75390863 78.96112061
v 163.62704468 5.14731455 79.38717651
v 91.43256378 3.5267005 79.38717651
v 163.6305542 4.99137545 79.84416962
v 91.43606567 3.37076139 79.84416962
v 163.63235474 4.91074419 80.32026672
v 91.43787384 3.29013014 80.32026672
v 163.63243103 4.90750885 80.80313873
v 91.43795013 3.2868948 80.80313873
v 163.63076782 4.98175335 81.28027344
v 91.4362793 3.3611393 81.28027344
v 163.62739563 5.13155508 81.73931122
v 91.43292236 3.51094103 81.73931122
v 163.62243652 5.35303402 82.16837311
v 91.427948 3.73241973 82.16837311
v 163.61598206 5.64045382 82.55634308
v 91.42149353 4.01983976 82.55634308
v 163.60821533 5.98637056 82.89317322
v 91.41373444 4.36575651 82.89317322
v 163.59933472 6.38182497 83.1701355
v 91.40485382 4.76121092 83.1701355
v 163.58958435 6.81657553 83.38005829
v 91.39509583 5.19596148 83.38005829
v 163.57919312 7.2793622 83.51750946
v 91.38470459 5.65874815 83.51750946
v 163.56843567 7.75819921 83.57892609
v 91.37395477 6.13758469 83.57892609
v 163.55760193 8.24068451 83.56272125
v 91.36312866 6.62006998 83.56272125
v 163.54698181 8.71432209 83.46930695
v 91.35249329 7.09370756 83.46930695
v 163.53681946 9.16684437 83.30110168
v 91.34233856 7.54623079 83.30110168
v 163.52740479 9.58653355 83.06246948
v 91.33291626 7.96591902 83.06246948
v 163.51895142 9.96251678 82.75959015
v 91.32447815 8.34190273 82.75959015
v 163.51171875 10.28505898 82.4003067
v 91.31723785 8.66444492 82.4003067
v 163.50585938 10.54580498 81.99391937
v 91.31137848 8.92519093 81.99391937
v 163.5015564 10.73800182 81.55095673
v 91.30706787 9.11738777 81.55095673
v 163.49888611 10.85667133 81.08289337
v 91.30440521 9.23605728 81.08289337
v 152.2203064 8.51984119 23.32788277
v 152.22190857 8.48424816 22.8463192
v 80.08248901 5.23245668 22.8463192
v 80.08088684 5.26804972 23.32788277
v 152.22697449 8.37194633 22.37670898
v 80.0875473 5.12015486 22.37670898
v 152.23535156 8.18584347 21.93121147
v 80.09593964 4.93405294 21.93121147
v 152.24685669 7.93076181 21.52136612
v 80.10743713 4.67897081 21.52136612
v 152.26116943 7.61330557 21.15778923
v 80.12174988 4.36151457 21.15778923
v 152.27790833 7.24169731 20.84989357
v 80.1384964 3.98990631 20.84989357
v 152.29667664 6.825562 20.60565758
v 80.15725708 3.573771 20.60565758
v 152.31695557 6.37567711 20.43140411
v 80.17753601 3.12388587 20.43140411
v 152.33822632 5.90369368 20.33164787
v 80.19880676 2.65190291 20.33164787
v 152.35995483 5.42183685 20.30897141
v 80.22052765 2.17004609 20.30897141
v 152.38154602 4.94258595 20.36396217
v 80.24213409 1.69079518 20.36396217
v 152.40248108 4.4783535 20.49519539
v 80.26306152 1.22656274 20.49519539
v 152.42218018 4.04116297 20.69927406
v 80.28276825 0.78937203 20.69927406
v 152.44015503 3.64233708 20.97091103
v 80.3007431 0.39054608 20.97091103
v 152.45594788 3.29220533 21.30307198
v 80.31652832 0.04041428 21.30307198
v 152.46911621 2.99983573 21.68715286
v 80.32970428 -0.25195515 21.68715286
v 152.47935486 2.77280092 22.11320877
v 80.33994293 -0.47898999 22.11320877
v 152.48638916 2.61698079 22.57020187
v 80.34696198 -0.63481015 22.57020187
v 152.49002075 2.53641105 23.04629707
v 80.35059357 -0.71538001 23.04629707
v 152.49015808 2.53317809 23.52916527
v 80.35073853 -0.71861279 23.52916527
v 152.48681641 2.60736609 24.00629997
v 80.34739685 -0.6444248 24.00629997
v 152.48007202 2.75705361 24.46534157
v 80.34065247 -0.49473751 24.46534157
v 152.47009277 2.97836328 24.89440346
v 80.33067322 -0.27342767 24.89440346
v 152.45715332 3.26556396 25.28237343
v 80.31772614 0.0137729 25.28237343
v 152.44155884 3.61121678 25.61920166
v 80.30214691 0.35942584 25.61920166
v 152.42375183 4.00637007 25.89616585
v 80.28433228 0.75457889 25.89616585
v 152.4041748 4.44078875 26.10609055
v 80.26475525 1.18899786 26.10609055
v 152.3833313 4.90322256 26.24354172
v 80.24391174 1.65143144 26.24354172
v 152.36175537 5.38169384 26.30495834
v 80.22234344 2.12990284 26.30495834
v 152.34002686 5.86381102 26.28874779
v 80.2006073 2.61202025 26.28874779
v 152.31869507 6.33708763 26.19533348
v 80.17927551 3.08529639 26.19533348
v 152.29830933 6.78926516 26.02713013
v 80.15888977 3.53747439 26.02713013
v 152.27940369 7.20863342 25.78849983
v 80.13999176 3.95684242 25.78849983
v 152.26246643 7.58433056 25.48561859
v 80.1230545 4.33253956 25.48561859
v 152.24794006 7.90662622 25.12633324
v 80.10852814 4.65483522 25.12633324
v 152.2361908 8.16717339 24.71994591
v 80.09677887 4.91538239 24.71994591
v 152.22753906 8.35922337 24.27698708
v 80.08812714 5.10743284 24.27698708
v 152.22219849 8.47780323 23.80892372
v 80.08277893 5.22601223 23.80892372
v 151.81343079 8.41181183 23.32788277
v 151.81536865 8.37623501 22.8463192
v 79.70822906 4.4735198 22.8463192
v 79.70630646 4.5090971 23.32788277
v 151.82144165 8.26398373 22.37670898
v 79.71430969 4.36126852 22.37670898
v 151.83151245 8.07796478 21.93121147
v 79.72437286 4.17524958 21.93121147
v 151.8453064 7.82299662 21.52136612
v 79.73817444 3.92028141 21.52136612
v 151.86248779 7.50568247 21.15778923
v 79.75534821 3.60296726 21.15778923
v 151.88258362 7.13424063 20.84989357
v 79.77545166 3.23152566 20.84989357
v 151.90509033 6.71829128 20.60565758
v 79.797966 2.81557631 20.60565758
v 151.92944336 6.26860762 20.43140411
v 79.82230377 2.36589265 20.43140411
v 151.95497131 5.7968359 20.33164787
v 79.84783936 1.89412081 20.33164787
v 151.98103333 5.31519461 20.30897141
v 79.873909 1.41247952 20.30897141
v 152.00697327 4.83615828 20.36396217
v 79.89983368 0.93344325 20.36396217
v 152.03207397 4.37213373 20.49519539
v 79.92494965 0.46941856 20.49519539
v 152.0557251 3.93513846 20.69927406
v 79.94860077 0.0324235 20.69927406
v 152.07731628 3.53649116 20.97091103
v 79.9701767 -0.36622396 20.97091103
v 152.09625244 3.18651605 21.30307198
v 79.98912048 -0.71619904 21.30307198
v 152.11206055 2.89427733 21.68715286
v 80.00493622 -1.00843763 21.68715286
v 152.12434387 2.66734409 22.11320877
v 80.01721954 -1.23537087 22.11320877
v 152.13278198 2.51159382 22.57020187
v 80.02565002 -1.39112127 22.57020187
v 152.137146 2.43106008 23.04629707
v 80.03000641 -1.47165513 23.04629707
v 152.13731384 2.42782855 23.52916527
v 80.03018188 -1.47488642 23.52916527
v 152.13330078 2.5019834 24.00629997
v 80.02616882 -1.40073168 24.00629997
v 152.12519836 2.6516037 24.46534157
v 80.01806641 -1.25111127 24.46534157
v 152.11323547 2.87281442 24.89440346
v 80.00609589 -1.02990055 24.89440346
v 152.09768677 3.1598866 25.28237343
v 79.99056244 -0.74282849 25.28237343
v 152.07899475 3.50538468 25.61920166
v 79.97186279 -0.39733025 25.61920166
v 152.05761719 3.90036106 25.89616585
v 79.95048523 -0.00235404 25.89616585
v 152.03411865 4.33458567 26.10609055
v 79.92697906 0.43187049 26.10609055
v 152.00909424 4.79681206 26.24354172
v 79.90196228 0.89409715 26.24354172
v 151.98321533 5.27506971 26.30495834
v 79.87607574 1.37235451 26.30495834
v 151.9571228 5.75697088 26.28874779
v 79.84999847 1.85425591 26.28874779
v 151.93151855 6.23003531 26.19533348
v 79.82439423 2.32732034 26.19533348
v 151.90705872 6.68201113 26.02713013
v 79.79992676 2.77929592 26.02713013
v 151.8843689 7.10119152 25.78849983
v 79.77724457 3.19847655 25.78849983
v 151.86404419 7.47672033 25.48561859
v 79.75691223 3.57400537 25.48561859
v 151.84661865 7.79887199 25.12633324
v 79.73947906 3.89615703 25.12633324
v 151.83251953 8.05930233 24.71994591
v 79.72538757 4.15658712 24.71994591
v 151.8221283 8.25126648 24.27698708
v 79.71499634 4.34855175 24.27698708
v 151.81570435 8.36979294 23.80892372
v 79.70858002 4.46707821 23.80892372
v 169.1783905 -3.5567522 81.14834595
v 169.17713928 -3.59235954 80.66678619
v 97.00896454 -1.05773616 80.66678619
v 97.01021576 -1.02212894 81.14834595
v 169.17318726 -3.70470595 80.19717407
v 97.00502014 -1.17008269 80.19717407
v 169.16665649 -3.89088225 79.75167847
v 96.99848175 -1.35625899 79.75167847
v 169.15769958 -4.14606619 79.34182739
v 96.98951721 -1.61144304 79.34182739
v 169.14654541 -4.4636488 78.97825623
v 96.97836304 -1.92902577 78.97825623
v 169.13348389 -4.83540535 78.67035675
v 96.96530914 -2.30078197 78.67035675
v 169.11886597 -5.2517066 78.42612457
v 96.95069122 -2.71708322 78.42612457
v 169.10305786 -5.70177078 78.2518692
v 96.93488312 -3.16714764 78.2518692
v 169.08647156 -6.17394209 78.15211487
v 96.91829681 -3.6393187 78.15211487
v 169.06954956 -6.65599108 78.12943268
v 96.90136719 -4.12136793 78.12943268
v 169.05270386 -7.13543272 78.18442535
v 96.88452911 -4.60080957 78.18442535
v 169.03639221 -7.59985018 78.31565857
v 96.86821747 -5.06522703 78.31565857
v 169.02102661 -8.03721523 78.51973724
v 96.8528595 -5.50259209 78.51973724
v 169.00701904 -8.43620014 78.79137421
v 96.8388443 -5.901577 78.79137421
v 168.99472046 -8.78647137 79.12353516
v 96.82654572 -6.25184822 79.12353516
v 168.98445129 -9.07895756 79.50761414
v 96.81626892 -6.54433441 79.50761414
v 168.97647095 -9.30608273 79.93367004
v 96.8082962 -6.77145958 79.93367004
v 168.97099304 -9.46196556 80.39066315
v 96.8028183 -6.92734194 80.39066315
v 168.96815491 -9.54256725 80.86676025
v 96.79998779 -7.00794411 80.86676025
v 168.9680481 -9.54580116 81.34963226
v 96.79987335 -7.01117802 81.34963226
v 168.97065735 -9.47158337 81.82676697
v 96.8024826 -6.9369607 81.82676697
v 168.97592163 -9.32183647 82.28580475
v 96.80773926 -6.78721333 82.28580475
v 168.98368835 -9.10043907 82.71486664
v 96.81551361 -6.56581545 82.71486664
v 168.99377441 -8.8131237 83.10283661
v 96.8256073 -6.27850056 83.10283661
v 169.00592041 -8.46733284 83.43966675
v 96.8377533 -5.93270969 83.43966675
v 169.01980591 -8.07202244 83.71662903
v 96.85163116 -5.53739929 83.71662903
v 169.03507996 -7.63743019 83.92655182
v 96.86689758 -5.10280704 83.92655182
v 169.05131531 -7.17481232 84.06400299
v 96.88314819 -4.64018917 84.06400299
v 169.06813049 -6.6961503 84.12541962
v 96.89995575 -4.16152668 84.12541962
v 169.08506775 -6.21384048 84.10921478
v 96.91689301 -3.67921734 84.10921478
v 169.10169983 -5.74037552 84.01580048
v 96.93352509 -3.20575237 84.01580048
v 169.11758423 -5.28801775 83.84759521
v 96.94940948 -2.75339437 83.84759521
v 169.13232422 -4.86848211 83.60896301
v 96.96414948 -2.33385897 83.60896301
v 169.14552307 -4.49263525 83.30608368
v 96.97734833 -1.95801198 83.30608368
v 169.15684509 -4.17021132 82.94680023
v 96.98867035 -1.63558781 82.94680023
v 169.16600037 -3.9095602 82.5404129
v 96.99782562 -1.37493694 82.5404129
v 169.17274475 -3.71743345 82.09745026
v 97.00457001 -1.18281019 82.09745026
v 169.1769104 -3.59880662 81.6293869
v 97.00873566 -1.06418335 81.6293869
vn -0.15154 0.98569 -0.07378
vn -0.15154 0.98569 -0.07378
vn -0.14778 0.96123 -0.23281
vn -0.14778 0.96123 -0.23281
vn -0.14019 0.91187 -0.38579
vn -0.12897 0.8389 -0.52879
vn -0.12897 0.8389 -0.52879
vn -0.11441 0.7442 -0.65809
vn -0.11441 0.7442 -0.65809
vn -0.09689 0.63021 -0.77035
vn -0.09689 0.63021 -0.77035
vn -0.07686 0.49993 -0.86265
vn -0.07686 0.49992 -0.86265
vn -0.05483 0.35666 -0.93262
vn -0.05483 0.35666 -0.93262
vn -0.03139 0.2042 -0.97843
vn -0.03139 0.2042 -0.97843
vn -0.00714 0.04641 -0.9989
vn -0.00714 0.04641 -0.9989
vn 0.01731 -0.11256 -0.99349
vn 0.01731 -0.11256 -0.99349
vn 0.0413 -0.26862 -0.96236
vn 0.0413 -0.26862 -0.96236
vn 0.06422 -0.41772 -0.9063
vn 0.06422 -0.41772 -0.9063
vn 0.08548 -0.556 -0.82677
vn 0.08548 -0.556 -0.82677
vn 0.10452 -0.67989 -0.72583
vn 0.10452 -0.67989 -0.72583
vn 0.12086 -0.78616 -0.60609
vn 0.12086 -0.78616 -0.60609
vn 0.13407 -0.87207 -0.47065
vn 0.13407 -0.87208 -0.47065
vn 0.14381 -0.9354 -0.32302
vn 0.14982 -0.9745 -0.16702
vn 0.14982 -0.9745 -0.16702
vn 0.15195 -0.98837 -0.0067
vn 0.15014 -0.97663 0.15379
vn 0.15014 -0.97663 0.15379
vn 0.14445 -0.9396 0.3103
vn 0.14445 -0.9396 0.3103
vn 0.13502 -0.87823 0.45878
vn 0.13502 -0.87823 0.45878
vn 0.12209 -0.79412 0.59537
vn 0.12209 -0.79412 0.59537
vn 0.10599 -0.68945 0.71654
vn 0.10599 -0.68944 0.71654
vn 0.08715 -0.56691 0.81916
vn 0.06606 -0.42968 0.90056
vn 0.06606 -0.42968 0.90056
vn 0.04325 -0.28135 0.95863
vn 0.04325 -0.28134 0.95863
vn 0.01933 -0.12571 0.99188
vn 0.01933 -0.12571 0.99188
vn -0.0051 0.03318 0.99944
vn -0.0051 0.03318 0.99944
vn -0.0294 0.19121 0.98111
vn -0.0294 0.19121 0.98111
vn -0.05293 0.34428 0.93737
vn -0.05293 0.34428 0.93737
vn -0.07509 0.48845 0.86936
vn -0.07509 0.48845 0.86936
vn -0.09531 0.61995 0.77883
vn -0.11306 0.73541 0.66812
vn -0.12788 0.83182 0.54012
vn -0.12788 0.83182 0.54011
vn -0.13939 0.90668 0.39812
vn -0.13939 0.90668 0.39813
vn -0.14729 0.95806 0.24582
vn -0.15137 0.98463 0.08715
vn -0.15137 0.98463 0.08714
vn 0.98839 0.15192 3E-05
vn 0.98836 0.15214 -7E-05
vn 0.9884 0.15188 5E-05
vn 0.98839 0.15196 -2E-05
vn 0.98838 0.15201 -9E-05
vn 0.9884 0.1519 0.00011
vn 0.98839 0.15195 -0
vn 0.98839 0.15195 0
vn 0.98839 0.15191 -0
vn 0.98839 0.15197 1E-05
vn 0.98839 0.15192 -5E-05
vn 0.98841 0.1518 1E-05
vn 0.98838 0.15203 9E-05
vn 0.98838 0.15199 8E-05
vn 0.98839 0.15196 1E-05
vn 0.98838 0.15197 3E-05
vn 0.98839 0.15195 -0
vn 0.98839 0.15196 7E-05
vn 0.98838 0.15198 0.00013
vn 0.98838 0.15203 0.0001
vn 0.98839 0.15194 -3E-05
vn 0.98839 0.15195 0
vn 0.98839 0.15194 -1E-05
vn 0.98842 0.15177 -5E-05
vn 0.9884 0.15184 -3E-05
vn 0.98838 0.15202 6E-05
vn 0.98838 0.15198 1E-05
vn 0.98839 0.15196 -7E-05
vn 0.98839 0.15196 0.0002
vn 0.98839 0.15195 -1E-05
vn 0.98839 0.15196 -1E-05
vn 0.98838 0.15201 -5E-05
vn 0.98841 0.15183 9E-05
vn 0.98839 0.15195 -0
vn 0.98839 0.15195 0
vn 0.98838 0.15202 0
vn 0.98839 0.15195 -0
vn -0.9884 -0.15189 -3E-05
vn -0.98837 -0.15205 4E-05
vn -0.98838 -0.15199 2E-05
vn -0.98839 -0.15195 1E-05
vn -0.98839 -0.15196 1E-05
vn -0.98839 -0.15194 -3E-05
vn -0.98839 -0.15195 0
vn -0.98839 -0.15195 -0
vn -0.98838 -0.15201 0
vn -0.98839 -0.15196 -1E-05
vn -0.98839 -0.15194 2E-05
vn -0.9884 -0.1519 -1E-05
vn -0.98839 -0.15196 -2E-05
vn -0.98839 -0.15192 0.0001
vn -0.98839 -0.15197 -3E-05
vn -0.98839 -0.15195 1E-05
vn -0.98839 -0.15195 0
vn -0.98839 -0.15195 3E-05
vn -0.98839 -0.15196 -3E-05
vn -0.98839 -0.15197 -3E-05
vn -0.98839 -0.15196 -1E-05
vn -0.98839 -0.15195 0
vn -0.98839 -0.15195 -0
vn -0.98839 -0.15195 -0
vn -0.98839 -0.15196 -0
vn -0.98838 -0.15202 -5E-05
vn -0.98839 -0.15194 0
vn -0.98839 -0.15195 -4E-05
vn -0.98839 -0.15196 -0
vn -0.98839 -0.15196 2E-05
vn -0.98839 -0.15195 7E-05
vn -0.98839 -0.15196 1E-05
vn -0.98839 -0.15192 -3E-05
vn -0.98838 -0.15198 2E-05
vn -0.98839 -0.15195 0
vn -0.98838 -0.15201 1E-05
vn -0.98839 -0.15195 0
vn -0.02238 0.99702 -0.07379
vn -0.02238 0.99702 -0.07378
vn -0.02183 0.97228 -0.2328
vn -0.0207 0.92235 -0.38579
vn -0.01905 0.84854 -0.52878
vn -0.01905 0.84854 -0.52878
vn -0.0169 0.75274 -0.6581
vn -0.0169 0.75274 -0.6581
vn -0.01431 0.63747 -0.77034
vn -0.01135 0.50566 -0.86266
vn -0.0081 0.36078 -0.93262
vn -0.0081 0.36078 -0.93262
vn -0.00464 0.20653 -0.97843
vn -0.00464 0.20653 -0.97843
vn -0.00105 0.04696 -0.9989
vn -0.00105 0.04696 -0.9989
vn 0.00256 -0.11386 -0.99349
vn 0.00256 -0.11386 -0.99349
vn 0.0061 -0.2717 -0.96236
vn 0.0061 -0.2717 -0.96236
vn 0.00948 -0.42252 -0.9063
vn 0.00948 -0.42252 -0.9063
vn 0.01262 -0.56239 -0.82677
vn 0.01262 -0.56239 -0.82677
vn 0.01544 -0.6877 -0.72583
vn 0.01544 -0.6877 -0.72583
vn 0.01785 -0.7952 -0.60609
vn 0.01785 -0.7952 -0.60609
vn 0.0198 -0.8821 -0.47065
vn 0.02124 -0.94615 -0.32302
vn 0.02124 -0.94615 -0.32302
vn 0.02213 -0.9857 -0.16702
vn 0.02213 -0.9857 -0.16702
vn 0.02244 -0.99973 -0.0067
vn 0.02218 -0.98785 0.15379
vn 0.02218 -0.98785 0.15379
vn 0.02133 -0.9504 0.31031
vn 0.02133 -0.9504 0.31031
vn 0.01994 -0.88833 0.45878
vn 0.01994 -0.88833 0.45878
vn 0.01803 -0.80325 0.59537
vn 0.01803 -0.80325 0.59537
vn 0.01565 -0.69737 0.71654
vn 0.01565 -0.69737 0.71654
vn 0.01287 -0.57342 0.81916
vn 0.00976 -0.43462 0.90056
vn 0.00976 -0.43462 0.90056
vn 0.00639 -0.28458 0.95863
vn 0.00285 -0.12716 0.99188
vn 0.00285 -0.12716 0.99188
vn -0.00075 0.03355 0.99944
vn -0.00075 0.03355 0.99944
vn -0.00434 0.1934 0.98111
vn -0.00434 0.1934 0.98111
vn -0.00782 0.34825 0.93737
vn -0.00782 0.34825 0.93737
vn -0.01109 0.49406 0.86936
vn -0.01109 0.49406 0.86936
vn -0.01408 0.62708 0.77883
vn -0.01408 0.62708 0.77883
vn -0.0167 0.74386 0.66813
vn -0.0167 0.74386 0.66813
vn -0.01889 0.84138 0.54012
vn -0.02059 0.9171 0.39812
vn -0.02059 0.9171 0.39812
vn -0.02175 0.96907 0.24582
vn -0.02175 0.96907 0.24582
vn -0.02236 0.99594 0.08715
vn -0.02236 0.99594 0.08714
vn 0.99975 0.02247 -2E-05
vn 0.99975 0.02218 0.00011
vn 0.99975 0.02245 -1E-05
vn 0.99975 0.02246 -3E-05
vn 0.99975 0.02236 0.00013
vn 0.99975 0.02246 -4E-05
vn 0.99975 0.02244 0
vn 0.99975 0.02244 -0
vn 0.99975 0.02233 0
vn 0.99975 0.02242 -3E-05
vn 0.99975 0.02245 1E-05
vn 0.99975 0.02244 -1E-05
vn 0.99975 0.02236 -0.00011
vn 0.99975 0.02238 -0.00015
vn 0.99975 0.02243 -2E-05
vn 0.99975 0.02246 3E-05
vn 0.99975 0.02244 0
vn 0.99975 0.02245 7E-05
vn 0.99975 0.02238 -0.0002
vn 0.99975 0.0223 -0.00021
vn 0.99975 0.02242 -4E-05
vn 0.99975 0.02244 0
vn 0.99975 0.02244 0
vn 0.99975 0.0225 0
vn 0.99975 0.02231 -3E-05
vn 0.99975 0.0223 -0.00011
vn 0.99975 0.02245 0
vn 0.99975 0.02245 -4E-05
vn 0.99975 0.02244 -0.00016
vn 0.99975 0.02244 3E-05
vn 0.99975 0.02244 2E-05
vn 0.99975 0.02243 1E-05
vn 0.99974 0.02263 -0.00014
vn 0.99975 0.02245 -0
vn 0.99975 0.02244 0
vn 0.99975 0.02226 3E-05
vn 0.99975 0.02244 1E-05
vn -0.99975 -0.02247 2E-05
vn -0.99975 -0.02254 4E-05
vn -0.99975 -0.02241 -2E-05
vn -0.99975 -0.02244 -2E-05
vn -0.99975 -0.02241 -5E-05
vn -0.99975 -0.02245 1E-05
vn -0.99975 -0.02244 0
vn -0.99975 -0.02244 0
vn -0.99975 -0.02243 -0
vn -0.99975 -0.02244 0
vn -0.99975 -0.02246 -2E-05
vn -0.99975 -0.02254 1E-05
vn -0.99975 -0.02242 3E-05
vn -0.99975 -0.02243 6E-05
vn -0.99975 -0.02246 -2E-05
vn -0.99975 -0.02244 0
vn -0.99975 -0.02244 -0
vn -0.99975 -0.02243 -7E-05
vn -0.99975 -0.02247 -8E-05
vn -0.99975 -0.02246 -3E-05
vn -0.99975 -0.02244 -0
vn -0.99975 -0.02244 0
vn -0.99975 -0.02246 -1E-05
vn -0.99975 -0.02241 1E-05
vn -0.99975 -0.02241 1E-05
vn -0.99975 -0.02238 5E-05
vn -0.99975 -0.02244 0
vn -0.99975 -0.02244 -3E-05
vn -0.99975 -0.02244 -3E-05
vn -0.99975 -0.02244 -3E-05
vn -0.99975 -0.02244 5E-05
vn -0.99975 -0.02243 -1E-05
vn -0.99975 -0.02231 -0.0001
vn -0.99975 -0.02245 0
vn -0.99975 -0.02244 0
vn -0.99975 -0.02236 -1E-05
vn -0.99975 -0.02244 -0
vn -0.04491 0.99626 -0.07378
vn -0.04379 0.97154 -0.2328
vn -0.04379 0.97154 -0.2328
vn -0.04154 0.92165 -0.38579
vn -0.04154 0.92165 -0.38579
vn -0.03822 0.84789 -0.52879
vn -0.03822 0.84789 -0.52879
vn -0.03391 0.75217 -0.65809
vn -0.02871 0.63698 -0.77035
vn -0.02871 0.63698 -0.77035
vn -0.02278 0.50528 -0.86266
vn -0.02278 0.50528 -0.86266
vn -0.01625 0.3605 -0.93262
vn -0.01625 0.3605 -0.93262
vn -0.0093 0.20638 -0.97843
vn -0.0093 0.20638 -0.97843
vn -0.00211 0.04691 -0.9989
vn -0.00211 0.04691 -0.9989
vn 0.00513 -0.11377 -0.99349
vn 0.00513 -0.11377 -0.99349
vn 0.01224 -0.2715 -0.96236
vn 0.01224 -0.2715 -0.96236
vn 0.01903 -0.4222 -0.9063
vn 0.01903 -0.4222 -0.9063
vn 0.02533 -0.56197 -0.82677
vn 0.02533 -0.56197 -0.82677
vn 0.03098 -0.68718 -0.72583
vn 0.03098 -0.68718 -0.72583
vn 0.03582 -0.79459 -0.60609
vn 0.03582 -0.79459 -0.60609
vn 0.03973 -0.88143 -0.47065
vn 0.03973 -0.88143 -0.47065
vn 0.04262 -0.94543 -0.32302
vn 0.04262 -0.94543 -0.32302
vn 0.0444 -0.98495 -0.16702
vn 0.0444 -0.98495 -0.16702
vn 0.04503 -0.99896 -0.0067
vn 0.04503 -0.99896 -0.0067
vn 0.0445 -0.9871 0.15379
vn 0.04281 -0.94967 0.3103
vn 0.04281 -0.94967 0.3103
vn 0.04001 -0.88765 0.45878
vn 0.04001 -0.88765 0.45878
vn 0.03618 -0.80264 0.59537
vn 0.03618 -0.80264 0.59537
vn 0.03141 -0.69683 0.71654
vn 0.03141 -0.69683 0.71654
vn 0.02583 -0.57299 0.81916
vn 0.02583 -0.57299 0.81916
vn 0.01958 -0.4343 0.90056
vn 0.01958 -0.4343 0.90056
vn 0.01282 -0.28436 0.95863
vn 0.01282 -0.28436 0.95863
vn 0.00573 -0.12706 0.99188
vn 0.00573 -0.12706 0.99188
vn -0.00151 0.03354 0.99944
vn -0.00151 0.03354 0.99944
vn -0.00871 0.19326 0.98111
vn -0.00871 0.19326 0.98111
vn -0.01569 0.34798 0.93737
vn -0.01569 0.34798 0.93737
vn -0.02225 0.49368 0.86936
vn -0.02225 0.49368 0.86936
vn -0.02825 0.6266 0.77883
vn -0.03351 0.74329 0.66812
vn -0.0379 0.84074 0.54012
vn -0.04131 0.9164 0.39812
vn -0.04131 0.9164 0.39812
vn -0.04365 0.96833 0.24582
vn -0.04365 0.96833 0.24582
vn -0.04486 0.99519 0.08715
vn -0.04486 0.99519 0.08714
vn 0.99899 0.04498 2E-05
vn 0.99898 0.04511 -3E-05
vn 0.99898 0.04512 -5E-05
vn 0.99899 0.04504 -3E-05
vn 0.99899 0.04502 -1E-05
vn 0.99899 0.04504 -3E-05
vn 0.99899 0.04503 -0
vn 0.99899 0.04503 0
vn 0.99898 0.04505 0
vn 0.99899 0.04501 -3E-05
vn 0.99899 0.04502 -2E-05
vn 0.99899 0.04489 2E-05
vn 0.99899 0.04493 -0.00013
vn 0.99898 0.04511 0.0002
vn 0.99899 0.04502 -2E-05
vn 0.99898 0.04507 6E-05
vn 0.99899 0.04504 0
vn 0.99899 0.04503 0.00015
vn 0.99899 0.04501 -6E-05
vn 0.99899 0.04503 -0
vn 0.99899 0.04503 -1E-05
vn 0.99899 0.04503 -0
vn 0.99898 0.04506 2E-05
vn 0.99899 0.04501 0
vn 0.99899 0.04502 1E-05
vn 0.99899 0.04497 -5E-05
vn 0.99899 0.04503 0
vn 0.99899 0.04502 1E-05
vn 0.99899 0.04504 0.00026
vn 0.99899 0.04502 6E-05
vn 0.99899 0.04503 -2E-05
vn 0.99899 0.04497 4E-05
vn 0.99899 0.045 4E-05
vn 0.99898 0.04515 -8E-05
vn 0.99899 0.04502 0
vn 0.99898 0.04511 -1E-05
vn 0.99899 0.04503 -1E-05
vn -0.99899 -0.04504 0
vn -0.99898 -0.04511 3E-05
vn -0.99899 -0.04502 -1E-05
vn -0.99899 -0.04504 2E-05
vn -0.99899 -0.04498 -8E-05
vn -0.99899 -0.04503 0
vn -0.99899 -0.04503 0
vn -0.99899 -0.04503 -0
vn -0.99899 -0.04502 0
vn -0.99898 -0.04504 -1E-05
vn -0.99899 -0.04502 2E-05
vn -0.99899 -0.04499 -0
vn -0.99899 -0.04499 5E-05
vn -0.99899 -0.04504 -2E-05
vn -0.99899 -0.04503 -0
vn -0.99899 -0.04504 -1E-05
vn -0.99899 -0.04503 0
vn -0.99899 -0.04504 4E-05
vn -0.99899 -0.04501 6E-05
vn -0.99899 -0.04497 8E-05
vn -0.99899 -0.04504 -1E-05
vn -0.99899 -0.04503 0
vn -0.99898 -0.04505 -1E-05
vn -0.99898 -0.04511 -1E-05
vn -0.99899 -0.04499 1E-05
vn -0.99899 -0.04497 5E-05
vn -0.99899 -0.04502 0
vn -0.99899 -0.04503 0
vn -0.99899 -0.04503 4E-05
vn -0.99899 -0.04503 -2E-05
vn -0.99899 -0.04503 6E-05
vn -0.99899 -0.045 -2E-05
vn -0.99898 -0.04507 3E-05
vn -0.99899 -0.04502 -1E-05
vn -0.99899 -0.04503 0
vn -0.99899 -0.04501 0
vn -0.99899 -0.04503 -0
vn -0.0539 0.99582 -0.07379
vn -0.0539 0.99582 -0.07378
vn -0.05256 0.9711 -0.2328
vn -0.05256 0.9711 -0.2328
vn -0.04986 0.92124 -0.38579
vn -0.04986 0.92124 -0.38579
vn -0.04587 0.84751 -0.52879
vn -0.04587 0.84751 -0.52879
vn -0.04069 0.75184 -0.65809
vn -0.04069 0.75184 -0.65809
vn -0.03446 0.63669 -0.77035
vn -0.03446 0.63669 -0.77035
vn -0.02734 0.50505 -0.86266
vn -0.02734 0.50505 -0.86266
vn -0.0195 0.36034 -0.93262
vn -0.0195 0.36034 -0.93262
vn -0.01116 0.20628 -0.97843
vn -0.01116 0.20628 -0.97843
vn -0.00254 0.04689 -0.9989
vn -0.00254 0.04689 -0.9989
vn 0.00615 -0.11371 -0.99349
vn 0.00615 -0.11371 -0.99349
vn 0.01469 -0.27138 -0.96236
vn 0.01469 -0.27138 -0.96236
vn 0.02284 -0.42201 -0.9063
vn 0.02284 -0.42201 -0.9063
vn 0.0304 -0.56171 -0.82677
vn 0.0304 -0.56171 -0.82677
vn 0.03718 -0.68687 -0.72583
vn 0.03718 -0.68687 -0.72583
vn 0.04299 -0.79424 -0.60609
vn 0.04299 -0.79424 -0.60609
vn 0.04768 -0.88103 -0.47065
vn 0.05115 -0.94501 -0.32302
vn 0.05115 -0.94501 -0.32302
vn 0.05329 -0.98451 -0.16702
vn 0.05329 -0.98451 -0.16702
vn 0.05404 -0.99852 -0.0067
vn 0.05404 -0.99852 -0.0067
vn 0.0534 -0.98666 0.15379
vn 0.0534 -0.98666 0.15379
vn 0.05138 -0.94925 0.31031
vn 0.05138 -0.94925 0.31031
vn 0.04802 -0.88725 0.45878
vn 0.04802 -0.88725 0.45878
vn 0.04342 -0.80228 0.59537
vn 0.04342 -0.80228 0.59537
vn 0.0377 -0.69652 0.71654
vn 0.0377 -0.69652 0.71654
vn 0.031 -0.57273 0.81916
vn 0.031 -0.57273 0.81916
vn 0.0235 -0.4341 0.90056
vn 0.0235 -0.4341 0.90056
vn 0.01538 -0.28423 0.95863
vn 0.01538 -0.28423 0.95863
vn 0.00687 -0.127 0.99188
vn 0.00687 -0.127 0.99188
vn -0.00181 0.03352 0.99944
vn -0.00181 0.03352 0.99944
vn -0.01046 0.19317 0.98111
vn -0.01883 0.34782 0.93737
vn -0.01883 0.34782 0.93737
vn -0.02671 0.49346 0.86936
vn -0.02671 0.49346 0.86936
vn -0.0339 0.62632 0.77883
vn -0.0339 0.62632 0.77883
vn -0.04021 0.74296 0.66812
vn -0.04021 0.74296 0.66812
vn -0.04548 0.84036 0.54012
vn -0.04548 0.84036 0.54012
vn -0.04958 0.91599 0.39812
vn -0.04958 0.91599 0.39812
vn -0.05239 0.9679 0.24582
vn -0.05239 0.9679 0.24582
vn -0.05384 0.99474 0.08714
vn 0.99853 0.05415 -5E-05
vn 0.99855 0.05387 7E-05
vn 0.99854 0.05399 3E-05
vn 0.99854 0.05405 -0
vn 0.99854 0.05402 3E-05
vn 0.99854 0.05408 -7E-05
vn 0.99854 0.05405 0
vn 0.99854 0.05405 -0
vn 0.99853 0.05412 0
vn 0.99854 0.05402 -3E-05
vn 0.99854 0.05403 -1E-05
vn 0.99854 0.05395 1E-05
vn 0.99853 0.05422 0.0002
vn 0.99854 0.05397 -0.00016
vn 0.99854 0.054 -7E-05
vn 0.99854 0.05406 4E-05
vn 0.99854 0.05404 0
vn 0.99854 0.05406 -0.00021
vn 0.99854 0.05405 4E-05
vn 0.99854 0.05406 3E-05
vn 0.99854 0.05404 -1E-05
vn 0.99854 0.05405 0
vn 0.99854 0.05401 -1E-05
vn 0.99853 0.05417 1E-05
vn 0.99854 0.05402 -1E-05
vn 0.99855 0.0539 -0.0001
vn 0.99854 0.05406 1E-05
vn 0.99854 0.05404 9E-05
vn 0.99854 0.05404 -0.00024
vn 0.99854 0.05406 -5E-05
vn 0.99854 0.05405 -8E-05
vn 0.99854 0.05399 3E-05
vn 0.99853 0.05418 -0.0001
vn 0.99854 0.05403 1E-05
vn 0.99854 0.05404 0
vn 0.99855 0.05386 4E-05
vn 0.99854 0.05405 0
vn -0.99854 -0.05401 -2E-05
vn -0.99854 -0.05397 -3E-05
vn -0.99854 -0.05405 0
vn -0.99854 -0.05404 -1E-05
vn -0.99854 -0.05408 5E-05
vn -0.99854 -0.05404 -2E-05
vn -0.99854 -0.05405 -0
vn -0.99854 -0.05405 0
vn -0.99854 -0.05402 -0
vn -0.99854 -0.05404 0
vn -0.99854 -0.05404 0
vn -0.99854 -0.05405 0
vn -0.99854 -0.05403 2E-05
vn -0.99854 -0.05405 -2E-05
vn -0.99854 -0.05404 0
vn -0.99854 -0.05405 -1E-05
vn -0.99854 -0.05405 -0
vn -0.99854 -0.05404 -8E-05
vn -0.99854 -0.05403 6E-05
vn -0.99854 -0.05395 0.00014
vn -0.99854 -0.05405 -1E-05
vn -0.99854 -0.05405 -0
vn -0.99854 -0.05402 1E-05
vn -0.99854 -0.05407 -0
vn -0.99854 -0.05405 -0
vn -0.99854 -0.05405 -1E-05
vn -0.99854 -0.05404 -0
vn -0.99854 -0.05405 1E-05
vn -0.99854 -0.05405 -5E-05
vn -0.99854 -0.05404 -1E-05
vn -0.99854 -0.05404 -2E-05
vn -0.99854 -0.05405 0
vn -0.99854 -0.05402 -2E-05
vn -0.99854 -0.05408 3E-05
vn -0.99854 -0.05404 -0
vn -0.99853 -0.05415 1E-05
vn -0.99854 -0.05405 1E-05
vn 0.035 0.99666 -0.07379
vn 0.035 0.99666 -0.07379
vn 0.03414 0.97192 -0.2328
vn 0.03414 0.97192 -0.2328
vn 0.03238 0.92202 -0.38579
vn 0.03238 0.92202 -0.38579
vn 0.02979 0.84823 -0.52878
vn 0.02979 0.84823 -0.52878
vn 0.02643 0.75247 -0.6581
vn 0.02643 0.75247 -0.6581
vn 0.02238 0.63724 -0.77034
vn 0.02238 0.63724 -0.77034
vn 0.01775 0.50547 -0.86266
vn 0.01267 0.36064 -0.93262
vn 0.01267 0.36064 -0.93262
vn 0.00725 0.20646 -0.97843
vn 0.00725 0.20646 -0.97843
vn 0.00165 0.04694 -0.9989
vn 0.00165 0.04694 -0.9989
vn -0.004 -0.11381 -0.99349
vn -0.004 -0.11381 -0.99349
vn -0.00954 -0.27161 -0.96236
vn -0.01483 -0.42237 -0.9063
vn -0.01483 -0.42237 -0.9063
vn -0.01974 -0.56219 -0.82677
vn -0.01974 -0.56219 -0.82677
vn -0.02414 -0.68745 -0.72583
vn -0.02792 -0.79491 -0.60609
vn -0.02792 -0.79491 -0.60609
vn -0.03097 -0.88178 -0.47065
vn -0.03097 -0.88178 -0.47065
vn -0.03322 -0.94581 -0.32302
vn -0.03322 -0.94581 -0.32302
vn -0.03461 -0.98535 -0.16702
vn -0.03461 -0.98535 -0.16702
vn -0.0351 -0.99936 -0.0067
vn -0.0351 -0.99936 -0.0067
vn -0.03468 -0.98749 0.15379
vn -0.03468 -0.98749 0.15379
vn -0.03337 -0.95005 0.31031
vn -0.03337 -0.95005 0.31031
vn -0.03119 -0.888 0.45878
vn -0.03119 -0.888 0.45878
vn -0.0282 -0.80296 0.59537
vn -0.0282 -0.80296 0.59537
vn -0.02448 -0.69711 0.71654
vn -0.02013 -0.57321 0.81916
vn -0.02013 -0.57321 0.81916
vn -0.01526 -0.43446 0.90056
vn -0.01526 -0.43446 0.90056
vn -0.00999 -0.28447 0.95863
vn -0.00999 -0.28447 0.95863
vn -0.00446 -0.12711 0.99188
vn -0.00446 -0.12711 0.99188
vn 0.00118 0.03354 0.99944
vn 0.00118 0.03354 0.99944
vn 0.00679 0.19333 0.98111
vn 0.01223 0.34812 0.93737
vn 0.01223 0.34812 0.93737
vn 0.01735 0.49388 0.86936
vn 0.01735 0.49388 0.86936
vn 0.02202 0.62685 0.77883
vn 0.02202 0.62685 0.77883
vn 0.02612 0.74359 0.66813
vn 0.02612 0.74359 0.66813
vn 0.02954 0.84107 0.54012
vn 0.02954 0.84107 0.54012
vn 0.0322 0.91677 0.39812
vn 0.03402 0.96872 0.24582
vn 0.03497 0.99558 0.08715
vn 0.99938 -0.03508 -1E-05
vn 0.99939 -0.03493 -7E-05
vn 0.99938 -0.03512 2E-05
vn 0.99938 -0.0351 0
vn 0.99938 -0.03517 9E-05
vn 0.99939 -0.03503 -0.00014
vn 0.99938 -0.0351 -0
vn 0.99938 -0.0351 1E-05
vn 0.99938 -0.0352 -0
vn 0.99938 -0.03509 1E-05
vn 0.99938 -0.03509 2E-05
vn 0.99939 -0.03505 -1E-05
vn 0.99938 -0.03508 1E-05
vn 0.99938 -0.03509 5E-05
vn 0.99938 -0.03512 -4E-05
vn 0.99938 -0.0351 -1E-05
vn 0.99938 -0.0351 -0
vn 0.99938 -0.0351 -8E-05
vn 0.99938 -0.03512 -8E-05
vn 0.99938 -0.03515 -7E-05
vn 0.99938 -0.0351 1E-05
vn 0.99938 -0.0351 -0
vn 0.99938 -0.0351 -0
vn 0.99939 -0.03505 1E-05
vn 0.99939 -0.03506 1E-05
vn 0.99938 -0.03507 2E-05
vn 0.99938 -0.03511 -1E-05
vn 0.99938 -0.0351 -0
vn 0.99938 -0.03509 0.0002
vn 0.99938 -0.0351 2E-05
vn 0.99938 -0.0351 -3E-05
vn 0.99938 -0.03515 4E-05
vn 0.99938 -0.03516 5E-05
vn 0.99938 -0.03513 3E-05
vn 0.99938 -0.03509 -0
vn 0.99938 -0.03517 0
vn 0.99938 -0.0351 0
vn -0.99938 0.03514 -2E-05
vn -0.99938 0.03511 -1E-05
vn -0.99938 0.03511 -1E-05
vn -0.99938 0.03509 1E-05
vn -0.99938 0.03515 -0.0001
vn -0.99938 0.03512 -3E-05
vn -0.99938 0.0351 0
vn -0.99938 0.0351 0
vn -0.99938 0.0351 0
vn -0.99938 0.03509 -1E-05
vn -0.99938 0.03511 2E-05
vn -0.99938 0.03514 -0
vn -0.99938 0.03514 6E-05
vn -0.99938 0.03511 4E-05
vn -0.99938 0.0351 -0
vn -0.99938 0.03509 -2E-05
vn -0.99938 0.0351 0
vn -0.99938 0.03509 -2E-05
vn -0.99938 0.03512 8E-05
vn -0.99938 0.03515 7E-05
vn -0.99938 0.0351 -1E-05
vn -0.99938 0.0351 0
vn -0.99938 0.0351 0
vn -0.99939 0.03505 -1E-05
vn -0.99939 0.03506 -1E-05
vn -0.99938 0.03507 -2E-05
vn -0.99938 0.0351 -0
vn -0.99938 0.0351 0
vn -0.99938 0.0351 -0
vn -0.99938 0.0351 -2E-05
vn -0.99938 0.0351 3E-05
vn -0.99938 0.03508 1E-05
vn -0.99938 0.03508 2E-05
vn -0.99938 0.03511 -1E-05
vn -0.99938 0.0351 0
vn -0.99938 0.03507 0
vn -0.99938 0.0351 -1E-05
f 1//1 2//1 3//1
f 1//2 3//2 4//2
f 2//3 5//3 6//3
f 2//4 6//4 3//4
f 5//5 7//5 8//5
f 5//5 8//5 6//5
f 7//6 9//6 10//6
f 7//7 10//7 8//7
f 9//8 11//8 12//8
f 9//9 12//9 10//9
f 11//10 13//10 14//10
f 11//11 14//11 12//11
f 13//12 15//12 16//12
f 13//13 16//13 14//13
f 15//14 17//14 18//14
f 15//15 18//15 16//15
f 17//16 19//16 20//16
f 17//17 20//17 18//17
f 19//18 21//18 22//18
f 19//19 22//19 20//19
f 21//20 23//20 24//20
f 21//21 24//21 22//21
f 23//22 25//22 26//22
f 23//23 26//23 24//23
f 25//24 27//24 28//24
f 25//25 28//25 26//25
f 27//26 29//26 30//26
f 27//27 30//27 28//27
f 29//28 31//28 32//28
f 29//29 32//29 30//29
f 31//30 33//30 34//30
f 31//31 34//31 32//31
f 33//32 35//32 36//32
f 33//33 36//33 34//33
f 35//34 37//34 38//34
f 35//34 38//34 36//34
f 37//35 39//35 40//35
f 37//36 40//36 38//36
f 39//37 41//37 42//37
f 39//37 42//37 40//37
f 41//38 43//38 44//38
f 41//39 44//39 42//39
f 43//40 45//40 46//40
f 43//41 46//41 44//41
f 45//42 47//42 48//42
f 45//43 48//43 46//43
f 47//44 49//44 50//44
f 47//45 50//45 48//45
f 49//46 51//46 52//46
f 49//47 52//47 50//47
f 51//48 53//48 54//48
f 51//48 54//48 52//48
f 53//49 55//49 56//49
f 53//50 56//50 54//50
f 55//51 57//51 58//51
f 55//52 58//52 56//52
f 57//53 59//53 60//53
f 57//54 60//54 58//54
f 59//55 61//55 62//55
f 59//56 62//56 60//56
f 61//57 63//57 64//57
f 61//58 64//58 62//58
f 63//59 65//59 66//59
f 63//60 66//60 64//60
f 65//61 67//61 68//61
f 65//62 68//62 66//62
f 67//63 69//63 70//63
f 67//63 70//63 68//63
f 69//64 71//64 72//64
f 69//64 72//64 70//64
f 71//65 73//65 74//65
f 71//66 74//66 72//66
f 73//67 75//67 76//67
f 73//68 76//68 74//68
f 75//69 77//69 78//69
f 75//69 78//69 76//69
f 77//70 1//70 4//70
f 77//71 4//71 78//71
f 43//72 49//72 47//72
f 47//73 45//73 43//73
f 43//74 51//74 49//74
f 61//75 57//75 51//75
f 55//76 53//76 51//76
f 57//77 55//77 51//77
f 23//78 69//78 43//78
f 43//79 69//79 51//79
f 39//80 37//80 43//80
f 35//81 23//81 37//81
f 23//82 35//82 33//82
f 39//83 43//83 41//83
f 27//84 31//84 29//84
f 25//85 23//85 27//85
f 31//86 27//86 23//86
f 23//87 33//87 31//87
f 43//88 37//88 23//88
f 59//89 57//89 61//89
f 65//90 63//90 61//90
f 69//91 67//91 65//91
f 61//92 69//92 65//92
f 13//93 69//93 23//93
f 69//94 1//94 73//94
f 1//95 77//95 75//95
f 73//96 1//96 75//96
f 71//97 69//97 73//97
f 1//98 69//98 5//98
f 23//99 17//99 15//99
f 21//100 19//100 23//100
f 23//101 15//101 13//101
f 19//102 17//102 23//102
f 13//103 11//103 5//103
f 9//104 7//104 11//104
f 5//105 11//105 7//105
f 69//106 13//106 5//106
f 5//107 2//107 1//107
f 51//108 69//108 61//108
f 44//109 48//109 50//109
f 48//110 44//110 46//110
f 44//111 50//111 52//111
f 62//112 52//112 58//112
f 56//113 52//113 54//113
f 58//114 52//114 56//114
f 24//115 44//115 70//115
f 44//116 52//116 70//116
f 40//117 44//117 38//117
f 36//118 38//118 24//118
f 24//119 34//119 36//119
f 40//120 42//120 44//120
f 28//121 30//121 32//121
f 26//122 28//122 24//122
f 32//123 24//123 28//123
f 24//124 32//124 34//124
f 44//125 24//125 38//125
f 60//126 62//126 58//126
f 66//127 62//127 64//127
f 70//128 66//128 68//128
f 62//129 66//129 70//129
f 14//130 24//130 70//130
f 70//131 74//131 4//131
f 4//132 76//132 78//132
f 74//133 76//133 4//133
f 72//134 74//134 70//134
f 4//135 6//135 70//135
f 24//136 16//136 18//136
f 22//137 24//137 20//137
f 24//138 14//138 16//138
f 20//139 24//139 18//139
f 14//140 6//140 12//140
f 10//141 12//141 8//141
f 6//142 8//142 12//142
f 70//143 6//143 14//143
f 6//144 4//144 3//144
f 52//145 62//145 70//145
f 79//146 80//146 81//146
f 79//147 81//147 82//147
f 80//148 83//148 84//148
f 80//148 84//148 81//148
f 83//149 85//149 86//149
f 83//149 86//149 84//149
f 85//150 87//150 88//150
f 85//151 88//151 86//151
f 87//152 89//152 90//152
f 87//153 90//153 88//153
f 89//154 91//154 92//154
f 89//154 92//154 90//154
f 91//155 93//155 94//155
f 91//155 94//155 92//155
f 93//156 95//156 96//156
f 93//157 96//157 94//157
f 95//158 97//158 98//158
f 95//159 98//159 96//159
f 97//160 99//160 100//160
f 97//161 100//161 98//161
f 99//162 101//162 102//162
f 99//163 102//163 100//163
f 101//164 103//164 104//164
f 101//165 104//165 102//165
f 103//166 105//166 106//166
f 103//167 106//167 104//167
f 105//168 107//168 108//168
f 105//169 108//169 106//169
f 107//170 109//170 110//170
f 107//171 110//171 108//171
f 109//172 111//172 112//172
f 109//173 112//173 110//173
f 111//174 113//174 114//174
f 111//174 114//174 112//174
f 113//175 115//175 116//175
f 113//176 116//176 114//176
f 115//177 117//177 118//177
f 115//178 118//178 116//178
f 117//179 119//179 120//179
f 117//179 120//179 118//179
f 119//180 121//180 122//180
f 119//181 122//181 120//181
f 121//182 123//182 124//182
f 121//183 124//183 122//183
f 123//184 125//184 126//184
f 123//185 126//185 124//185
f 125//186 127//186 128//186
f 125//187 128//187 126//187
f 127//188 129//188 130//188
f 127//189 130//189 128//189
f 129//190 131//190 132//190
f 129//190 132//190 130//190
f 131//191 133//191 134//191
f 131//192 134//192 132//192
f 133//193 135//193 136//193
f 133//193 136//193 134//193
f 135//194 137//194 138//194
f 135//195 138//195 136//195
f 137//196 139//196 140//196
f 137//197 140//197 138//197
f 139//198 141//198 142//198
f 139//199 142//199 140//199
f 141//200 143//200 144//200
f 141//201 144//201 142//201
f 143//202 145//202 146//202
f 143//203 146//203 144//203
f 145//204 147//204 148//204
f 145//205 148//205 146//205
f 147//206 149//206 150//206
f 147//207 150//207 148//207
f 149//208 151//208 152//208
f 149//208 152//208 150//208
f 151//209 153//209 154//209
f 151//210 154//210 152//210
f 153//211 155//211 156//211
f 153//212 156//212 154//212
f 155//213 79//213 82//213
f 155//214 82//214 156//214
f 121//215 127//215 125//215
f 125//216 123//216 121//216
f 121//217 129//217 127//217
f 139//218 135//218 129//218
f 133//219 131//219 129//219
f 135//220 133//220 129//220
f 101//221 147//221 121//221
f 121//222 147//222 129//222
f 117//223 115//223 121//223
f 113//224 101//224 115//224
f 101//225 113//225 111//225
f 117//226 121//226 119//226
f 105//227 109//227 107//227
f 103//228 101//228 105//228
f 109//229 105//229 101//229
f 101//230 111//230 109//230
f 121//231 115//231 101//231
f 137//232 135//232 139//232
f 143//233 141//233 139//233
f 147//234 145//234 143//234
f 139//235 147//235 143//235
f 91//236 147//236 101//236
f 147//237 79//237 151//237
f 79//238 155//238 153//238
f 151//239 79//239 153//239
f 149//240 147//240 151//240
f 79//241 147//241 83//241
f 101//242 95//242 93//242
f 99//243 97//243 101//243
f 101//244 93//244 91//244
f 97//245 95//245 101//245
f 91//246 89//246 83//246
f 87//247 85//247 89//247
f 83//248 89//248 85//248
f 147//249 91//249 83//249
f 83//250 80//250 79//250
f 129//251 147//251 139//251
f 122//252 126//252 128//252
f 126//253 122//253 124//253
f 122//254 128//254 130//254
f 140//255 130//255 136//255
f 134//256 130//256 132//256
f 136//257 130//257 134//257
f 102//258 122//258 148//258
f 122//259 130//259 148//259
f 118//260 122//260 116//260
f 114//261 116//261 102//261
f 102//262 112//262 114//262
f 118//263 120//263 122//263
f 106//264 108//264 110//264
f 104//265 106//265 102//265
f 110//266 102//266 106//266
f 102//267 110//267 112//267
f 122//268 102//268 116//268
f 138//269 140//269 136//269
f 144//270 140//270 142//270
f 148//271 144//271 146//271
f 140//272 144//272 148//272
f 92//273 102//273 148//273
f 148//274 152//274 82//274
f 82//275 154//275 156//275
f 152//276 154//276 82//276
f 150//277 152//277 148//277
f 82//278 84//278 148//278
f 102//279 94//279 96//279
f 100//280 102//280 98//280
f 102//281 92//281 94//281
f 98//282 102//282 96//282
f 92//283 84//283 90//283
f 88//284 90//284 86//284
f 84//285 86//285 90//285
f 148//286 84//286 92//286
f 84//287 82//287 81//287
f 130//288 140//288 148//288
f 157//289 158//289 159//289
f 157//289 159//289 160//289
f 158//290 161//290 162//290
f 158//291 162//291 159//291
f 161//292 163//292 164//292
f 161//293 164//293 162//293
f 163//294 165//294 166//294
f 163//295 166//295 164//295
f 165//296 167//296 168//296
f 165//296 168//296 166//296
f 167//297 169//297 170//297
f 167//298 170//298 168//298
f 169//299 171//299 172//299
f 169//300 172//300 170//300
f 171//301 173//301 174//301
f 171//302 174//302 172//302
f 173//303 175//303 176//303
f 173//304 176//304 174//304
f 175//305 177//305 178//305
f 175//306 178//306 176//306
f 177//307 179//307 180//307
f 177//308 180//308 178//308
f 179//309 181//309 182//309
f 179//310 182//310 180//310
f 181//311 183//311 184//311
f 181//312 184//312 182//312
f 183//313 185//313 186//313
f 183//314 186//314 184//314
f 185//315 187//315 188//315
f 185//316 188//316 186//316
f 187//317 189//317 190//317
f 187//318 190//318 188//318
f 189//319 191//319 192//319
f 189//320 192//320 190//320
f 191//321 193//321 194//321
f 191//322 194//322 192//322
f 193//323 195//323 196//323
f 193//324 196//324 194//324
f 195//325 197//325 198//325
f 195//326 198//326 196//326
f 197//327 199//327 200//327
f 197//327 200//327 198//327
f 199//328 201//328 202//328
f 199//329 202//329 200//329
f 201//330 203//330 204//330
f 201//331 204//331 202//331
f 203//332 205//332 206//332
f 203//333 206//333 204//333
f 205//334 207//334 208//334
f 205//335 208//335 206//335
f 207//336 209//336 210//336
f 207//337 210//337 208//337
f 209//338 211//338 212//338
f 209//339 212//339 210//339
f 211//340 213//340 214//340
f 211//341 214//341 212//341
f 213//342 215//342 216//342
f 213//343 216//343 214//343
f 215//344 217//344 218//344
f 215//345 218//345 216//345
f 217//346 219//346 220//346
f 217//347 220//347 218//347
f 219//348 221//348 222//348
f 219//349 222//349 220//349
f 221//350 223//350 224//350
f 221//351 224//351 222//351
f 223//352 225//352 226//352
f 223//352 226//352 224//352
f 225//353 227//353 228//353
f 225//353 228//353 226//353
f 227//354 229//354 230//354
f 227//354 230//354 228//354
f 229//355 231//355 232//355
f 229//356 232//356 230//356
f 231//357 233//357 234//357
f 231//358 234//358 232//358
f 233//359 157//359 160//359
f 233//360 160//360 234//360
f 199//361 205//361 203//361
f 203//362 201//362 199//362
f 199//363 207//363 205//363
f 217//364 213//364 207//364
f 211//365 209//365 207//365
f 213//366 211//366 207//366
f 179//367 225//367 199//367
f 199//368 225//368 207//368
f 195//369 193//369 199//369
f 191//370 179//370 193//370
f 179//371 191//371 189//371
f 195//372 199//372 197//372
f 183//373 187//373 185//373
f 181//374 179//374 183//374
f 187//375 183//375 179//375
f 179//376 189//376 187//376
f 199//377 193//377 179//377
f 215//378 213//378 217//378
f 221//379 219//379 217//379
f 225//380 223//380 221//380
f 217//381 225//381 221//381
f 169//382 225//382 179//382
f 225//383 157//383 229//383
f 157//384 233//384 231//384
f 229//385 157//385 231//385
f 227//386 225//386 229//386
f 157//387 225//387 161//387
f 179//388 173//388 171//388
f 177//389 175//389 179//389
f 179//390 171//390 169//390
f 175//391 173//391 179//391
f 169//392 167//392 161//392
f 165//393 163//393 167//393
f 161//394 167//394 163//394
f 225//395 169//395 161//395
f 161//396 158//396 157//396
f 207//397 225//397 217//397
f 200//398 204//398 206//398
f 204//399 200//399 202//399
f 200//400 206//400 208//400
f 218//401 208//401 214//401
f 212//402 208//402 210//402
f 214//403 208//403 212//403
f 180//404 200//404 226//404
f 200//405 208//405 226//405
f 196//406 200//406 194//406
f 192//407 194//407 180//407
f 180//408 190//408 192//408
f 196//409 198//409 200//409
f 184//410 186//410 188//410
f 182//411 184//411 180//411
f 188//412 180//412 184//412
f 180//413 188//413 190//413
f 200//414 180//414 194//414
f 216//415 218//415 214//415
f 222//416 218//416 220//416
f 226//417 222//417 224//417
f 218//418 222//418 226//418
f 170//419 180//419 226//419
f 226//420 230//420 160//420
f 160//421 232//421 234//421
f 230//422 232//422 160//422
f 228//423 230//423 226//423
f 160//424 162//424 226//424
f 180//425 172//425 174//425
f 178//426 180//426 176//426
f 180//427 170//427 172//427
f 176//428 180//428 174//428
f 170//429 162//429 168//429
f 166//430 168//430 164//430
f 162//431 164//431 168//431
f 226//432 162//432 170//432
f 162//433 160//433 159//433
f 208//434 218//434 226//434
f 157//289 158//289 159//289
f 157//289 159//289 160//289
f 158//290 161//290 162//290
f 158//291 162//291 159//291
f 161//292 163//292 164//292
f 161//293 164//293 162//293
f 163//294 165//294 166//294
f 163//295 166//295 164//295
f 165//296 167//296 168//296
f 165//296 168//296 166//296
f 167//297 169//297 170//297
f 167//298 170//298 168//298
f 169//299 171//299 172//299
f 169//300 172//300 170//300
f 171//301 173//301 174//301
f 171//302 174//302 172//302
f 173//303 175//303 176//303
f 173//304 176//304 174//304
f 175//305 177//305 178//305
f 175//306 178//306 176//306
f 177//307 179//307 180//307
f 177//308 180//308 178//308
f 179//309 181//309 182//309
f 179//310 182//310 180//310
f 181//311 183//311 184//311
f 181//312 184//312 182//312
f 183//313 185//313 186//313
f 183//314 186//314 184//314
f 185//315 187//315 188//315
f 185//316 188//316 186//316
f 187//317 189//317 190//317
f 187//318 190//318 188//318
f 189//319 191//319 192//319
f 189//320 192//320 190//320
f 191//321 193//321 194//321
f 191//322 194//322 192//322
f 193//323 195//323 196//323
f 193//324 196//324 194//324
f 195//325 197//325 198//325
f 195//326 198//326 196//326
f 197//327 199//327 200//327
f 197//327 200//327 198//327
f 199//328 201//328 202//328
f 199//329 202//329 200//329
f 201//330 203//330 204//330
f 201//331 204//331 202//331
f 203//332 205//332 206//332
f 203//333 206//333 204//333
f 205//334 207//334 208//334
f 205//335 208//335 206//335
f 207//336 209//336 210//336
f 207//337 210//337 208//337
f 209//338 211//338 212//338
f 209//339 212//339 210//339
f 211//340 213//340 214//340
f 211//341 214//341 212//341
f 213//342 215//342 216//342
f 213//343 216//343 214//343
f 215//344 217//344 218//344
f 215//345 218//345 216//345
f 217//346 219//346 220//346
f 217//347 220//347 218//347
f 219//348 221//348 222//348
f 219//349 222//349 220//349
f 221//350 223//350 224//350
f 221//351 224//351 222//351
f 223//352 225//352 226//352
f 223//352 226//352 224//352
f 225//353 227//353 228//353
f 225//353 228//353 226//353
f 227//354 229//354 230//354
f 227//354 230//354 228//354
f 229//355 231//355 232//355
f 229//356 232//356 230//356
f 231//357 233//357 234//357
f 231//358 234//358 232//358
f 233//359 157//359 160//359
f 233//360 160//360 234//360
f 199//361 205//361 203//361
f 203//362 201//362 199//362
f 199//363 207//363 205//363
f 217//364 213//364 207//364
f 211//365 209//365 207//365
f 213//366 211//366 207//366
f 179//367 225//367 199//367
f 199//368 225//368 207//368
f 195//369 193//369 199//369
f 191//370 179//370 193//370
f 179//371 191//371 189//371
f 195//372 199//372 197//372
f 183//373 187//373 185//373
f 181//374 179//374 183//374
f 187//375 183//375 179//375
f 179//376 189//376 187//376
f 199//377 193//377 179//377
f 215//378 213//378 217//378
f 221//379 219//379 217//379
f 225//380 223//380 221//380
f 217//381 225//381 221//381
f 169//382 225//382 179//382
f 225//383 157//383 229//383
f 157//384 233//384 231//384
f 229//385 157//385 231//385
f 227//386 225//386 229//386
f 157//387 225//387 161//387
f 179//388 173//388 171//388
f 177//389 175//389 179//389
f 179//390 171//390 169//390
f 175//391 173//391 179//391
f 169//392 167//392 161//392
f 165//393 163//393 167//393
f 161//394 167//394 163//394
f 225//395 169//395 161//395
f 161//396 158//396 157//396
f 207//397 225//397 217//397
f 200//398 204//398 206//398
f 204//399 200//399 202//399
f 200//400 206//400 208//400
f 218//401 208//401 214//401
f 212//402 208//402 210//402
f 214//403 208//403 212//403
f 180//404 200//404 226//404
f 200//405 208//405 226//405
f 196//406 200//406 194//406
f 192//407 194//407 180//407
f 180//408 190//408 192//408
f 196//409 198//409 200//409
f 184//410 186//410 188//410
f 182//411 184//411 180//411
f 188//412 180//412 184//412
f 180//413 188//413 190//413
f 200//414 180//414 194//414
f 216//415 218//415 214//415
f 222//416 218//416 220//416
f 226//417 222//417 224//417
f 218//418 222//418 226//418
f 170//419 180//419 226//419
f 226//420 230//420 160//420
f 160//421 232//421 234//421
f 230//422 232//422 160//422
f 228//423 230//423 226//423
f 160//424 162//424 226//424
f 180//425 172//425 174//425
f 178//426 180//426 176//426
f 180//427 170//427 172//427
f 176//428 180//428 174//428
f 170//429 162//429 168//429
f 166//430 168//430 164//430
f 162//431 164//431 168//431
f 226//432 162//432 170//432
f 162//433 160//433 159//433
f 208//434 218//434 226//434
f 235//435 236//435 237//435
f 235//436 237//436 238//436
f 236//437 239//437 240//437
f 236//438 240//438 237//438
f 239//439 241//439 242//439
f 239//440 242//440 240//440
f 241//441 243//441 244//441
f 241//442 244//442 242//442
f 243//443 245//443 246//443
f 243//444 246//444 244//444
f 245//445 247//445 248//445
f 245//446 248//446 246//446
f 247//447 249//447 250//447
f 247//448 250//448 248//448
f 249//449 251//449 252//449
f 249//450 252//450 250//450
f 251//451 253//451 254//451
f 251//452 254//452 252//452
f 253//453 255//453 256//453
f 253//454 256//454 254//454
f 255//455 257//455 258//455
f 255//456 258//456 256//456
f 257//457 259//457 260//457
f 257//458 260//458 258//458
f 259//459 261//459 262//459
f 259//460 262//460 260//460
f 261//461 263//461 264//461
f 261//462 264//462 262//462
f 263//463 265//463 266//463
f 263//464 266//464 264//464
f 265//465 267//465 268//465
f 265//466 268//466 266//466
f 267//467 269//467 270//467
f 267//467 270//467 268//467
f 269//468 271//468 272//468
f 269//469 272//469 270//469
f 271//470 273//470 274//470
f 271//471 274//471 272//471
f 273//472 275//472 276//472
f 273//473 276//473 274//473
f 275//474 277//474 278//474
f 275//475 278//475 276//475
f 277//476 279//476 280//476
f 277//477 280//477 278//477
f 279//478 281//478 282//478
f 279//479 282//479 280//479
f 281//480 283//480 284//480
f 281//481 284//481 282//481
f 283//482 285//482 286//482
f 283//483 286//483 284//483
f 285//484 287//484 288//484
f 285//485 288//485 286//485
f 287//486 289//486 290//486
f 287//487 290//487 288//487
f 289//488 291//488 292//488
f 289//489 292//489 290//489
f 291//490 293//490 294//490
f 291//491 294//491 292//491
f 293//492 295//492 296//492
f 293//493 296//493 294//493
f 295//494 297//494 298//494
f 295//494 298//494 296//494
f 297//495 299//495 300//495
f 297//496 300//496 298//496
f 299//497 301//497 302//497
f 299//498 302//498 300//498
f 301//499 303//499 304//499
f 301//500 304//500 302//500
f 303//501 305//501 306//501
f 303//502 306//502 304//502
f 305//503 307//503 308//503
f 305//504 308//504 306//504
f 307//505 309//505 310//505
f 307//506 310//506 308//506
f 309//507 311//507 312//507
f 309//508 312//508 310//508
f 311//509 235//509 238//509
f 311//509 238//509 312//509
f 277//510 283//510 281//510
f 281//511 279//511 277//511
f 277//512 285//512 283//512
f 295//513 291//513 285//513
f 289//514 287//514 285//514
f 291//515 289//515 285//515
f 257//516 303//516 277//516
f 277//517 303//517 285//517
f 273//518 271//518 277//518
f 269//519 257//519 271//519
f 257//520 269//520 267//520
f 273//521 277//521 275//521
f 261//522 265//522 263//522
f 259//523 257//523 261//523
f 265//524 261//524 257//524
f 257//525 267//525 265//525
f 277//526 271//526 257//526
f 293//527 291//527 295//527
f 299//528 297//528 295//528
f 303//529 301//529 299//529
f 295//530 303//530 299//530
f 247//531 303//531 257//531
f 303//532 235//532 307//532
f 235//533 311//533 309//533
f 307//534 235//534 309//534
f 305//535 303//535 307//535
f 235//536 303//536 239//536
f 257//537 251//537 249//537
f 255//538 253//538 257//538
f 257//539 249//539 247//539
f 253//540 251//540 257//540
f 247//541 245//541 239//541
f 243//542 241//542 245//542
f 239//543 245//543 241//543
f 303//544 247//544 239//544
f 239//545 236//545 235//545
f 285//546 303//546 295//546
f 278//547 282//547 284//547
f 282//548 278//548 280//548
f 278//549 284//549 286//549
f 296//550 286//550 292//550
f 290//551 286//551 288//551
f 292//552 286//552 290//552
f 258//553 278//553 304//553
f 278//554 286//554 304//554
f 274//555 278//555 272//555
f 270//556 272//556 258//556
f 258//557 268//557 270//557
f 274//558 276//558 278//558
f 262//559 264//559 266//559
f 260//560 262//560 258//560
f 266//561 258//561 262//561
f 258//562 266//562 268//562
f 278//563 258//563 272//563
f 294//564 296//564 292//564
f 300//565 296//565 298//565
f 304//566 300//566 302//566
f 296//567 300//567 304//567
f 248//568 258//568 304//568
f 304//569 308//569 238//569
f 238//570 310//570 312//570
f 308//571 310//571 238//571
f 306//572 308//572 304//572
f 238//573 240//573 304//573
f 258//574 250//574 252//574
f 256//575 258//575 254//575
f 258//576 248//576 250//576
f 254//577 258//577 252//577
f 248//578 240//578 246//578
f 244//579 246//579 242//579
f 240//580 242//580 246//580
f 304//581 240//581 248//581
f 240//582 238//582 237//582
f 286//583 296//583 304//583
f 313//584 314//584 315//584
f 313//585 315//585 316//585
f 314//586 317//586 318//586
f 314//587 318//587 315//587
f 317//588 319//588 320//588
f 317//589 320//589 318//589
f 319//590 321//590 322//590
f 319//591 322//591 320//591
f 321//592 323//592 324//592
f 321//593 324//593 322//593
f 323//594 325//594 326//594
f 323//595 326//595 324//595
f 325//596 327//596 328//596
f 325//596 328//596 326//596
f 327//597 329//597 330//597
f 327//598 330//598 328//598
f 329//599 331//599 332//599
f 329//600 332//600 330//600
f 331//601 333//601 334//601
f 331//602 334//602 332//602
f 333//603 335//603 336//603
f 333//604 336//604 334//604
f 335//605 337//605 338//605
f 335//605 338//605 336//605
f 337//606 339//606 340//606
f 337//607 340//607 338//607
f 339//608 341//608 342//608
f 339//609 342//609 340//609
f 341//610 343//610 344//610
f 341//610 344//610 342//610
f 343//611 345//611 346//611
f 343//612 346//612 344//612
f 345//613 347//613 348//613
f 345//614 348//614 346//614
f 347//615 349//615 350//615
f 347//616 350//616 348//616
f 349//617 351//617 352//617
f 349//618 352//618 350//618
f 351//619 353//619 354//619
f 351//620 354//620 352//620
f 353//621 355//621 356//621
f 353//622 356//622 354//622
f 355//623 357//623 358//623
f 355//624 358//624 356//624
f 357//625 359//625 360//625
f 357//626 360//626 358//626
f 359//627 361//627 362//627
f 359//628 362//628 360//628
f 361//629 363//629 364//629
f 361//629 364//629 362//629
f 363//630 365//630 366//630
f 363//631 366//631 364//631
f 365//632 367//632 368//632
f 365//633 368//633 366//633
f 367//634 369//634 370//634
f 367//635 370//635 368//635
f 369//636 371//636 372//636
f 369//637 372//637 370//637
f 371//638 373//638 374//638
f 371//639 374//639 372//639
f 373//640 375//640 376//640
f 373//640 376//640 374//640
f 375//641 377//641 378//641
f 375//642 378//642 376//642
f 377//643 379//643 380//643
f 377//644 380//644 378//644
f 379//645 381//645 382//645
f 379//646 382//646 380//646
f 381//647 383//647 384//647
f 381//648 384//648 382//648
f 383//649 385//649 386//649
f 383//650 386//650 384//650
f 385//651 387//651 388//651
f 385//651 388//651 386//651
f 387//652 389//652 390//652
f 387//652 390//652 388//652
f 389//653 313//653 316//653
f 389//653 316//653 390//653
f 355//654 361//654 359//654
f 359//655 357//655 355//655
f 355//656 363//656 361//656
f 373//657 369//657 363//657
f 367//658 365//658 363//658
f 369//659 367//659 363//659
f 335//660 381//660 355//660
f 355//661 381//661 363//661
f 351//662 349//662 355//662
f 347//663 335//663 349//663
f 335//664 347//664 345//664
f 351//665 355//665 353//665
f 339//666 343//666 341//666
f 337//667 335//667 339//667
f 343//668 339//668 335//668
f 335//669 345//669 343//669
f 355//670 349//670 335//670
f 371//671 369//671 373//671
f 377//672 375//672 373//672
f 381//673 379//673 377//673
f 373//674 381//674 377//674
f 325//675 381//675 335//675
f 381//676 313//676 385//676
f 313//677 389//677 387//677
f 385//678 313//678 387//678
f 383//679 381//679 385//679
f 313//680 381//680 317//680
f 335//681 329//681 327//681
f 333//682 331//682 335//682
f 335//683 327//683 325//683
f 331//684 329//684 335//684
f 325//685 323//685 317//685
f 321//686 319//686 323//686
f 317//687 323//687 319//687
f 381//688 325//688 317//688
f 317//689 314//689 313//689
f 363//690 381//690 373//690
f 356//691 360//691 362//691
f 360//692 356//692 358//692
f 356//693 362//693 364//693
f 374//694 364//694 370//694
f 368//695 364//695 366//695
f 370//696 364//696 368//696
f 336//697 356//697 382//697
f 356//698 364//698 382//698
f 352//699 356//699 350//699
f 348//700 350//700 336//700
f 336//701 346//701 348//701
f 352//702 354//702 356//702
f 340//703 342//703 344//703
f 338//704 340//704 336//704
f 344//705 336//705 340//705
f 336//706 344//706 346//706
f 356//707 336//707 350//707
f 372//708 374//708 370//708
f 378//709 374//709 376//709
f 382//710 378//710 380//710
f 374//711 378//711 382//711
f 326//712 336//712 382//712
f 382//713 386//713 316//713
f 316//714 388//714 390//714
f 386//715 388//715 316//715
f 384//716 386//716 382//716
f 316//717 318//717 382//717
f 336//718 328//718 330//718
f 334//719 336//719 332//719
f 336//720 326//720 328//720
f 332//721 336//721 330//721
f 326//722 318//722 324//722
f 322//723 324//723 320//723
f 318//724 320//724 324//724
f 382//725 318//725 326//725
f 318//726 316//726 315//726
f 364//727 374//727 382//727
f 1//1 2//1 3//1
f 1//2 3//2 4//2
f 2//3 5//3 6//3
f 2//4 6//4 3//4
f 5//5 7//5 8//5
f 5//5 8//5 6//5
f 7//6 9//6 10//6
f 7//7 10//7 8//7
f 9//8 11//8 12//8
f 9//9 12//9 10//9
f 11//10 13//10 14//10
f 11//11 14//11 12//11
f 13//12 15//12 16//12
f 13//13 16//13 14//13
f 15//14 17//14 18//14
f 15//15 18//15 16//15
f 17//16 19//16 20//16
f 17//17 20//17 18//17
f 19//18 21//18 22//18
f 19//19 22//19 20//19
f 21//20 23//20 24//20
f 21//21 24//21 22//21
f 23//22 25//22 26//22
f 23//23 26//23 24//23
f 25//24 27//24 28//24
f 25//25 28//25 26//25
f 27//26 29//26 30//26
f 27//27 30//27 28//27
f 29//28 31//28 32//28
f 29//29 32//29 30//29
f 31//30 33//30 34//30
f 31//31 34//31 32//31
f 33//32 35//32 36//32
f 33//33 36//33 34//33
f 35//34 37//34 38//34
f 35//34 38//34 36//34
f 37//35 39//35 40//35
f 37//36 40//36 38//36
f 39//37 41//37 42//37
f 39//37 42//37 40//37
f 41//38 43//38 44//38
f 41//39 44//39 42//39
f 43//40 45//40 46//40
f 43//41 46//41 44//41
f 45//42 47//42 48//42
f 45//43 48//43 46//43
f 47//44 49//44 50//44
f 47//45 50//45 48//45
f 49//46 51//46 52//46
f 49//47 52//47 50//47
f 51//48 53//48 54//48
f 51//48 54//48 52//48
f 53//49 55//49 56//49
f 53//50 56//50 54//50
f 55//51 57//51 58//51
f 55//52 58//52 56//52
f 57//53 59//53 60//53
f 57//54 60//54 58//54
f 59//55 61//55 62//55
f 59//56 62//56 60//56
f 61//57 63//57 64//57
f 61//58 64//58 62//58
f 63//59 65//59 66//59
f 63//60 66//60 64//60
f 65//61 67//61 68//61
f 65//62 68//62 66//62
f 67//63 69//63 70//63
f 67//63 70//63 68//63
f 69//64 71//64 72//64
f 69//64 72//64 70//64
f 71//65 73//65 74//65
f 71//66 74//66 72//66
f 73//67 75//67 76//67
f 73//68 76//68 74//68
f 75//69 77//69 78//69
f 75//69 78//69 76//69
f 77//70 1//70 4//70
f 77//71 4//71 78//71
f 43//72 49//72 47//72
f 47//73 45//73 43//73
f 43//74 51//74 49//74
f 61//75 57//75 51//75
f 55//76 53//76 51//76
f 57//77 55//77 51//77
f 23//78 69//78 43//78
f 43//79 69//79 51//79
f 39//80 37//80 43//80
f 35//81 23//81 37//81
f 23//82 35//82 33//82
f 39//83 43//83 41//83
f 27//84 31//84 29//84
f 25//85 23//85 27//85
f 31//86 27//86 23//86
f 23//87 33//87 31//87
f 43//88 37//88 23//88
f 59//89 57//89 61//89
f 65//90 63//90 61//90
f 69//91 67//91 65//91
f 61//92 69//92 65//92
f 13//93 69//93 23//93
f 69//94 1//94 73//94
f 1//95 77//95 75//95
f 73//96 1//96 75//96
f 71//97 69//97 73//97
f 1//98 69//98 5//98
f 23//99 17//99 15//99
f 21//100 19//100 23//100
f 23//101 15//101 13//101
f 19//102 17//102 23//102
f 13//103 11//103 5//103
f 9//104 7//104 11//104
f 5//105 11//105 7//105
f 69//106 13//106 5//106
f 5//107 2//107 1//107
f 51//108 69//108 61//108
f 44//109 48//109 50//109
f 48//110 44//110 46//110
f 44//111 50//111 52//111
f 62//112 52//112 58//112
f 56//113 52//113 54//113
f 58//114 52//114 56//114
f 24//115 44//115 70//115
f 44//116 52//116 70//116
f 40//117 44//117 38//117
f 36//118 38//118 24//118
f 24//119 34//119 36//119
f 40//120 42//120 44//120
f 28//121 30//121 32//121
f 26//122 28//122 24//122
f 32//123 24//123 28//123
f 24//124 32//124 34//124
f 44//125 24//125 38//125
f 60//126 62//126 58//126
f 66//127 62//127 64//127
f 70//128 66//128 68//128
f 62//129 66//129 70//129
f 14//130 24//130 70//130
f 70//131 74//131 4//131
f 4//132 76//132 78//132
f 74//133 76//133 4//133
f 72//134 74//134 70//134
f 4//135 6//135 70//135
f 24//136 16//136 18//136
f 22//137 24//137 20//137
f 24//138 14//138 16//138
f 20//139 24//139 18//139
f 14//140 6//140 12//140
f 10//141 12//141 8//141
f 6//142 8//142 12//142
f 70//143 6//143 14//143
f 6//144 4//144 3//144
f 52//145 62//145 70//145
f 79//146 80//146 81//146
f 79//147 81//147 82//147
f 80//148 83//148 84//148
f 80//148 84//148 81//148
f 83//149 85//149 86//149
f 83//149 86//149 84//149
f 85//150 87//150 88//150
f 85//151 88//151 86//151
f 87//152 89//152 90//152
f 87//153 90//153 88//153
f 89//154 91//154 92//154
f 89//154 92//154 90//154
f 91//155 93//155 94//155
f 91//155 94//155 92//155
f 93//156 95//156 96//156
f 93//157 96//157 94//157
f 95//158 97//158 98//158
f 95//159 98//159 96//159
f 97//160 99//160 100//160
f 97//161 100//161 98//161
f 99//162 101//162 102//162
f 99//163 102//163 100//163
f 101//164 103//164 104//164
f 101//165 104//165 102//165
f 103//166 105//166 106//166
f 103//167 106//167 104//167
f 105//168 107//168 108//168
f 105//169 108//169 106//169
f 107//170 109//170 110//170
f 107//171 110//171 108//171
f 109//172 111//172 112//172
f 109//173 112//173 110//173
f 111//174 113//174 114//174
f 111//174 114//174 112//174
f 113//175 115//175 116//175
f 113//176 116//176 114//176
f 115//177 117//177 118//177
f 115//178 118//178 116//178
f 117//179 119//179 120//179
f 117//179 120//179 118//179
f 119//180 121//180 122//180
f 119//181 122//181 120//181
f 121//182 123//182 124//182
f 121//183 124//183 122//183
f 123//184 125//184 126//184
f 123//185 126//185 124//185
f 125//186 127//186 128//186
f 125//187 128//187 126//187
f 127//188 129//188 130//188
f 127//189 130//189 128//189
f 129//190 131//190 132//190
f 129//190 132//190 130//190
f 131//191 133//191 134//191
f 131//192 134//192 132//192
f 133//193 135//193 136//193
f 133//193 136//193 134//193
f 135//194 137//194 138//194
f 135//195 138//195 136//195
f 137//196 139//196 140//196
f 137//197 140//197 138//197
f 139//198 141//198 142//198
f 139//199 142//199 140//199
f 141//200 143//200 144//200
f 141//201 144//201 142//201
f 143//202 145//202 146//202
f 143//203 146//203 144//203
f 145//204 147//204 148//204
f 145//205 148//205 146//205
f 147//206 149//206 150//206
f 147//207 150//207 148//207
f 149//208 151//208 152//208
f 149//208 152//208 150//208
f 151//209 153//209 154//209
f 151//210 154//210 152//210
f 153//211 155//211 156//211
f 153//212 156//212 154//212
f 155//213 79//213 82//213
f 155//214 82//214 156//214
f 121//215 127//215 125//215
f 125//216 123//216 121//216
f 121//217 129//217 127//217
f 139//218 135//218 129//218
f 133//219 131//219 129//219
f 135//220 133//220 129//220
f 101//221 147//221 121//221
f 121//222 147//222 129//222
f 117//223 115//223 121//223
f 113//224 101//224 115//224
f 101//225 113//225 111//225
f 117//226 121//226 119//226
f 105//227 109//227 107//227
f 103//228 101//228 105//228
f 109//229 105//229 101//229
f 101//230 111//230 109//230
f 121//231 115//231 101//231
f 137//232 135//232 139//232
f 143//233 141//233 139//233
f 147//234 145//234 143//234
f 139//235 147//235 143//235
f 91//236 147//236 101//236
f 147//237 79//237 151//237
f 79//238 155//238 153//238
f 151//239 79//239 153//239
f 149//240 147//240 151//240
f 79//241 147//241 83//241
f 101//242 95//242 93//242
f 99//243 97//243 101//243
f 101//244 93//244 91//244
f 97//245 95//245 101//245
f 91//246 89//246 83//246
f 87//247 85//247 89//247
f 83//248 89//248 85//248
f 147//249 91//249 83//249
f 83//250 80//250 79//250
f 129//251 147//251 139//251
f 122//252 126//252 128//252
f 126//253 122//253 124//253
f 122//254 128//254 130//254
f 140//255 130//255 136//255
f 134//256 130//256 132//256
f 136//257 130//257 134//257
f 102//258 122//258 148//258
f 122//259 130//259 148//259
f 118//260 122//260 116//260
f 114//261 116//261 102//261
f 102//262 112//262 114//262
f 118//263 120//263 122//263
f 106//264 108//264 110//264
f 104//265 106//265 102//265
f 110//266 102//266 106//266
f 102//267 110//267 112//267
f 122//268 102//268 116//268
f 138//269 140//269 136//269
f 144//270 140//270 142//270
f 148//271 144//271 146//271
f 140//272 144//272 148//272
f 92//273 102//273 148//273
f 148//274 152//274 82//274
f 82//275 154//275 156//275
f 152//276 154//276 82//276
f 150//277 152//277 148//277
f 82//278 84//278 148//278
f 102//279 94//279 96//279
f 100//280 102//280 98//280
f 102//281 92//281 94//281
f 98//282 102//282 96//282
f 92//283 84//283 90//283
f 88//284 90//284 86//284
f 84//285 86//285 90//285
f 148//286 84//286 92//286
f 84//287 82//287 81//287
f 130//288 140//288 148//288
f 235//435 236//435 237//435
f 235//436 237//436 238//436
f 236//437 239//437 240//437
f 236//438 240//438 237//438
f 239//439 241//439 242//439
f 239//440 242//440 240//440
f 241//441 243//441 244//441
f 241//442 244//442 242//442
f 243//443 245//443 246//443
f 243//444 246//444 244//444
f 245//445 247//445 248//445
f 245//446 248//446 246//446
f 247//447 249//447 250//447
f 247//448 250//448 248//448
f 249//449 251//449 252//449
f 249//450 252//450 250//450
f 251//451 253//451 254//451
f 251//452 254//452 252//452
f 253//453 255//453 256//453
f 253//454 256//454 254//454
f 255//455 257//455 258//455
f 255//456 258//456 256//456
f 257//457 259//457 260//457
f 257//458 260//458 258//458
f 259//459 261//459 262//459
f 259//460 262//460 260//460
f 261//461 263//461 264//461
f 261//462 264//462 262//462
f 263//463 265//463 266//463
f 263//464 266//464 264//464
f 265//465 267//465 268//465
f 265//466 268//466 266//466
f 267//467 269//467 270//467
f 267//467 270//467 268//467
f 269//468 271//468 272//468
f 269//469 272//469 270//469
f 271//470 273//470 274//470
f 271//471 274//471 272//471
f 273//472 275//472 276//472
f 273//473 276//473 274//473
f 275//474 277//474 278//474
f 275//475 278//475 276//475
f 277//476 279//476 280//476
f 277//477 280//477 278//477
f 279//478 281//478 282//478
f 279//479 282//479 280//479
f 281//480 283//480 284//480
f 281//481 284//481 282//481
f 283//482 285//482 286//482
f 283//483 286//483 284//483
f 285//484 287//484 288//484
f 285//485 288//485 286//485
f 287//486 289//486 290//486
f 287//487 290//487 288//487
f 289//488 291//488 292//488
f 289//489 292//489 290//489
f 291//490 293//490 294//490
f 291//491 294//491 292//491
f 293//492 295//492 296//492
f 293//493 296//493 294//493
f 295//494 297//494 298//494
f 295//494 298//494 296//494
f 297//495 299//495 300//495
f 297//496 300//496 298//496
f 299//497 301//497 302//497
f 299//498 302//498 300//498
f 301//499 303//499 304//499
f 301//500 304//500 302//500
f 303//501 305//501 306//501
f 303//502 306//502 304//502
f 305//503 307//503 308//503
f 305//504 308//504 306//504
f 307//505 309//505 310//505
f 307//506 310//506 308//506
f 309//507 311//507 312//507
f 309//508 312//508 310//508
f 311//509 235//509 238//509
f 311//509 238//509 312//509
f 277//510 283//510 281//510
f 281//511 279//511 277//511
f 277//512 285//512 283//512
f 295//513 291//513 285//513
f 289//514 287//514 285//514
f 291//515 289//515 285//515
f 257//516 303//516 277//516
f 277//517 303//517 285//517
f 273//518 271//518 277//518
f 269//519 257//519 271//519
f 257//520 269//520 267//520
f 273//521 277//521 275//521
f 261//522 265//522 263//522
f 259//523 257//523 261//523
f 265//524 261//524 257//524
f 257//525 267//525 265//525
f 277//526 271//526 257//526
f 293//527 291//527 295//527
f 299//528 297//528 295//528
f 303//529 301//529 299//529
f 295//530 303//530 299//530
f 247//531 303//531 257//531
f 303//532 235//532 307//532
f 235//533 311//533 309//533
f 307//534 235//534 309//534
f 305//535 303//535 307//535
f 235//536 303//536 239//536
f 257//537 251//537 249//537
f 255//538 253//538 257//538
f 257//539 249//539 247//539
f 253//540 251//540 257//540
f 247//541 245//541 239//541
f 243//542 241//542 245//542
f 239//543 245//543 241//543
f 303//544 247//544 239//544
f 239//545 236//545 235//545
f 285//546 303//546 295//546
f 278//547 282//547 284//547
f 282//548 278//548 280//548
f 278//549 284//549 286//549
f 296//550 286//550 292//550
f 290//551 286//551 288//551
f 292//552 286//552 290//552
f 258//553 278//553 304//553
f 278//554 286//554 304//554
f 274//555 278//555 272//555
f 270//556 272//556 258//556
f 258//557 268//557 270//557
f 274//558 276//558 278//558
f 262//559 264//559 266//559
f 260//560 262//560 258//560
f 266//561 258//561 262//561
f 258//562 266//562 268//562
f 278//563 258//563 272//563
f 294//564 296//564 292//564
f 300//565 296//565 298//565
f 304//566 300//566 302//566
f 296//567 300//567 304//567
f 248//568 258//568 304//568
f 304//569 308//569 238//569
f 238//570 310//570 312//570
f 308//571 310//571 238//571
f 306//572 308//572 304//572
f 238//573 240//573 304//573
f 258//574 250//574 252//574
f 256//575 258//575 254//575
f 258//576 248//576 250//576
f 254//577 258//577 252//577
f 248//578 240//578 246//578
f 244//579 246//579 242//579
f 240//580 242//580 246//580
f 304//581 240//581 248//581
f 240//582 238//582 237//582
f 286//583 296//583 304//583
f 313//584 314//584 315//584
f 313//585 315//585 316//585
f 314//586 317//586 318//586
f 314//587 318//587 315//587
f 317//588 319//588 320//588
f 317//589 320//589 318//589
f 319//590 321//590 322//590
f 319//591 322//591 320//591
f 321//592 323//592 324//592
f 321//593 324//593 322//593
f 323//594 325//594 326//594
f 323//595 326//595 324//595
f 325//596 327//596 328//596
f 325//596 328//596 326//596
f 327//597 329//597 330//597
f 327//598 330//598 328//598
f 329//599 331//599 332//599
f 329//600 332//600 330//600
f 331//601 333//601 334//601
f 331//602 334//602 332//602
f 333//603 335//603 336//603
f 333//604 336//604 334//604
f 335//605 337//605 338//605
f 335//605 338//605 336//605
f 337//606 339//606 340//606
f 337//607 340//607 338//607
f 339//608 341//608 342//608
f 339//609 342//609 340//609
f 341//610 343//610 344//610
f 341//610 344//610 342//610
f 343//611 345//611 346//611
f 343//612 346//612 344//612
f 345//613 347//613 348//613
f 345//614 348//614 346//614
f 347//615 349//615 350//615
f 347//616 350//616 348//616
f 349//617 351//617 352//617
f 349//618 352//618 350//618
f 351//619 353//619 354//619
f 351//620 354//620 352//620
f 353//621 355//621 356//621
f 353//622 356//622 354//622
f 355//623 357//623 358//623
f 355//624 358//624 356//624
f 357//625 359//625 360//625
f 357//626 360//626 358//626
f 359//627 361//627 362//627
f 359//628 362//628 360//628
f 361//629 363//629 364//629
f 361//629 364//629 362//629
f 363//630 365//630 366//630
f 363//631 366//631 364//631
f 365//632 367//632 368//632
f 365//633 368//633 366//633
f 367//634 369//634 370//634
f 367//635 370//635 368//635
f 369//636 371//636 372//636
f 369//637 372//637 370//637
f 371//638 373//638 374//638
f 371//639 374//639 372//639
f 373//640 375//640 376//640
f 373//640 376//640 374//640
f 375//641 377//641 378//641
f 375//642 378//642 376//642
f 377//643 379//643 380//643
f 377//644 380//644 378//644
f 379//645 381//645 382//645
f 379//646 382//646 380//646
f 381//647 383//647 384//647
f 381//648 384//648 382//648
f 383//649 385//649 386//649
f 383//650 386//650 384//650
f 385//651 387//651 388//651
f 385//651 388//651 386//651
f 387//652 389//652 390//652
f 387//652 390//652 388//652
f 389//653 313//653 316//653
f 389//653 316//653 390//653
f 355//654 361//654 359//654
f 359//655 357//655 355//655
f 355//656 363//656 361//656
f 373//657 369//657 363//657
f 367//658 365//658 363//658
f 369//659 367//659 363//659
f 335//660 381//660 355//660
f 355//661 381//661 363//661
f 351//662 349//662 355//662
f 347//663 335//663 349//663
f 335//664 347//664 345//664
f 351//665 355//665 353//665
f 339//666 343//666 341//666
f 337//667 335//667 339//667
f 343//668 339//668 335//668
f 335//669 345//669 343//669
f 355//670 349//670 335//670
f 371//671 369//671 373//671
f 377//672 375//672 373//672
f 381//673 379//673 377//673
f 373//674 381//674 377//674
f 325//675 381//675 335//675
f 381//676 313//676 385//676
f 313//677 389//677 387//677
f 385//678 313//678 387//678
f 383//679 381//679 385//679
f 313//680 381//680 317//680
f 335//681 329//681 327//681
f 333//682 331//682 335//682
f 335//683 327//683 325//683
f 331//684 329//684 335//684
f 325//685 323//685 317//685
f 321//686 319//686 323//686
f 317//687 323//687 319//687
f 381//688 325//688 317//688
f 317//689 314//689 313//689
f 363//690 381//690 373//690
f 356//691 360//691 362//691
f 360//692 356//692 358//692
f 356//693 362//693 364//693
f 374//694 364//694 370//694
f 368//695 364//695 366//695
f 370//696 364//696 368//696
f 336//697 356//697 382//697
f 356//698 364//698 382//698
f 352//699 356//699 350//699
f 348//700 350//700 336//700
f 336//701 346//701 348//701
f 352//702 354//702 356//702
f 340//703 342//703 344//703
f 338//704 340//704 336//704
f 344//705 336//705 340//705
f 336//706 344//706 346//706
f 356//707 336//707 350//707
f 372//708 374//708 370//708
f 378//709 374//709 376//709
f 382//710 378//710 380//710
f 374//711 378//711 382//711
f 326//712 336//712 382//712
f 382//713 386//713 316//713
f 316//714 388//714 390//714
f 386//715 388//715 316//715
f 384//716 386//716 382//716
f 316//717 318//717 382//717
f 336//718 328//718 330//718
f 334//719 336//719 332//719
f 336//720 326//720 328//720
f 332//721 336//721 330//721
f 326//722 318//722 324//722
f 322//723 324//723 320//723
f 318//724 320//724 324//724
f 382//725 318//725 326//725
f 318//726 316//726 315//726
f 364//727 374//727 382//727
# Vertices: 390, normals: 727, texture coordinates: 0, faces: 1520

