g Body_03_(1)
v -0.0369089 -0.324146 0 0.956863 0.960784 0.0156863
v 0.00209114 -0.324146 0 0.956863 0.960784 0.0156863
v 0.00209114 -0.363146 0 0.956863 0.960784 0.0156863
v -0.0369089 -0.363146 0 0.956863 0.960784 0.0156863
v 0.00209114 -0.324146 0.06 0.956863 0.960784 0.0156863
v -0.0369089 -0.324146 0.06 0.956863 0.960784 0.0156863
v -0.0369089 -0.363146 0.06 0.956863 0.960784 0.0156863
v 0.00209114 -0.363146 0.06 0.956863 0.960784 0.0156863
vn -0 -0 -1
vn -1.22465e-16 1 0
vn 0 0 1
vn 1 1.22465e-16 0
vn 4.78305e-16 -1 0
vn -1 -1.22465e-16 0
vt 0.229 0.08
vt 0.19 0.08
vt 0.19 0.119
vt 0.229 0.119
vt 0 -0.0195
vt 0.06 -0.0195
vt 0.06 0.0195
vt 0 0.0195
vt 0.229 0.08
vt 0.229 0.119
vt 0.19 0.119
vt 0.19 0.08
vt 0 0.0195
vt -0.06 0.0195
vt -0.06 -0.0195
vt 0 -0.0195
vt -0.0195 0
vt -0.0195 -0.06
vt 0.0195 -0.06
vt 0.0195 0
vt 0 -0.0195
vt 0.06 -0.0195
vt 0.06 0.0195
vt 0 0.0195
f 1/1/1 2/2/1 3/3/1
f 3/3/1 4/4/1 1/1/1
f 5/5/2 2/6/2 1/7/2
f 1/7/2 6/8/2 5/5/2
f 6/9/3 7/10/3 8/11/3
f 8/11/3 5/12/3 6/9/3
f 8/13/4 3/14/4 2/15/4
f 2/15/4 5/16/4 8/13/4
f 7/17/5 4/18/5 3/19/5
f 3/19/5 8/20/5 7/17/5
f 6/21/6 1/22/6 4/23/6
f 4/23/6 7/24/6 6/21/6
g Body_03_(2)
v 0.0436911 -0.363146 0.06 0.811765 0.376471 0.913725
v 0.0436911 -0.324146 0.06 0.811765 0.376471 0.913725
v 0.00469114 -0.324146 0.06 0.811765 0.376471 0.913725
v 0.00469114 -0.363146 0.06 0.811765 0.376471 0.913725
v 0.0436911 -0.363146 0 0.811765 0.376471 0.913725
v 0.00469114 -0.363146 0 0.811765 0.376471 0.913725
v 0.00469114 -0.324146 0 0.811765 0.376471 0.913725
v 0.0436911 -0.324146 0 0.811765 0.376471 0.913725
vn -0 -0 1
vn 1.22465e-16 -1 0
vn 0 0 -1
vn 1 1.22465e-16 0
vn 2.33376e-16 1 0
vn -1 -1.22465e-16 -0
vt 0.19 0.08
vt 0.19 0.119
vt 0.229 0.119
vt 0.229 0.08
vt 0 -0.0195
vt 0.06 -0.0195
vt 0.06 0.0195
vt 0 0.0195
vt 0.19 0.08
vt 0.229 0.08
vt 0.229 0.119
vt 0.19 0.119
vt 0 0.0195
vt -0.06 0.0195
vt -0.06 -0.0195
vt 0 -0.0195
vt -0.0195 0
vt -0.0195 -0.06
vt 0.0195 -0.06
vt 0.0195 0
vt 0 -0.0195
vt 0.06 -0.0195
vt 0.06 0.0195
vt 0 0.0195
f 9/25/7 10/26/7 11/27/7
f 11/27/7 12/28/7 9/25/7
f 13/29/8 9/30/8 12/31/8
f 12/31/8 14/32/8 13/29/8
f 13/33/9 14/34/9 15/35/9
f 15/35/9 16/36/9 13/33/9
f 16/37/10 10/38/10 9/39/10
f 9/39/10 13/40/10 16/37/10
f 15/41/11 11/42/11 10/43/11
f 10/43/11 16/44/11 15/41/11
f 14/45/12 12/46/12 11/47/12
f 11/47/12 15/48/12 14/45/12
g Body_03_(3)
v 0.0462911 -0.324146 0.06 0.921569 0.431373 0.431373
v 0.0462911 -0.363146 0.06 0.921569 0.431373 0.431373
v 0.0852911 -0.363146 0.06 0.921569 0.431373 0.431373
v 0.0852911 -0.324146 0.06 0.921569 0.431373 0.431373
v 0.0852911 -0.363146 0 0.921569 0.431373 0.431373
v 0.0462911 -0.363146 0 0.921569 0.431373 0.431373
v 0.0462911 -0.324146 0 0.921569 0.431373 0.431373
v 0.0852911 -0.324146 0 0.921569 0.431373 0.431373
vn -0 -0 1
vn 1.22465e-16 -1 0
vn 0 0 -1
vn 1 1.22465e-16 0
vn 2.33376e-16 1 0
vn -1 -1.22465e-16 -0
vt 0.229 0.119
vt 0.229 0.08
vt 0.19 0.08
vt 0.19 0.119
vt 0 -0.0195
vt 0.06 -0.0195
vt 0.06 0.0195
vt 0 0.0195
vt 0.229 0.119
vt 0.19 0.119
vt 0.19 0.08
vt 0.229 0.08
vt 0 0.0195
vt -0.06 0.0195
vt -0.06 -0.0195
vt 0 -0.0195
vt -0.0195 0
vt -0.0195 -0.06
vt 0.0195 -0.06
vt 0.0195 0
vt 0 -0.0195
vt 0.06 -0.0195
vt 0.06 0.0195
vt 0 0.0195
f 17/49/13 18/50/13 19/51/13
f 19/51/13 20/52/13 17/49/13
f 21/53/14 19/54/14 18/55/14
f 18/55/14 22/56/14 21/53/14
f 23/57/15 24/58/15 21/59/15
f 21/59/15 22/60/15 23/57/15
f 24/61/16 20/62/16 19/63/16
f 19/63/16 21/64/16 24/61/16
f 23/65/17 17/66/17 20/67/17
f 20/67/17 24/68/17 23/65/17
f 22/69/18 18/70/18 17/71/18
f 17/71/18 23/72/18 22/69/18
