g Body_01_(1)
v -0.0392089 -0.321846 0.04 0.227451 0.227451 0.227451
v 0.0865911 -0.321846 0.04 0.227451 0.227451 0.227451
v 0.0865911 -0.321846 0 0.227451 0.227451 0.227451
v 0.170791 -0.321846 0 0.227451 0.227451 0.227451
v 0.170791 -0.321846 0.04 0.227451 0.227451 0.227451
v -0.0392089 -0.321846 0 0.227451 0.227451 0.227451
v 0.170791 -0.322846 0.04 0.227451 0.227451 0.227451
v 0.170791 -0.322846 0 0.227451 0.227451 0.227451
v 0.170791 -0.365446 0 0.227451 0.227451 0.227451
v 0.170791 -0.365446 0.04 0.227451 0.227451 0.227451
v 0.0865911 -0.365446 0.04 0.227451 0.227451 0.227451
v 0.0865911 -0.365446 0 0.227451 0.227451 0.227451
v -0.0392089 -0.365446 0 0.227451 0.227451 0.227451
v -0.0392089 -0.365446 0.04 0.227451 0.227451 0.227451
v -0.0392089 -0.322846 0.04 0.227451 0.227451 0.227451
v -0.0392089 -0.322846 0 0.227451 0.227451 0.227451
v 0.168791 -0.323846 0 0.227451 0.227451 0.227451
v 0.129191 -0.323846 0 0.227451 0.227451 0.227451
v 0.127191 -0.323846 0 0.227451 0.227451 0.227451
v 0.127191 -0.363446 0 0.227451 0.227451 0.227451
v 0.168791 -0.363446 0 0.227451 0.227451 0.227451
v 0.129191 -0.363446 0 0.227451 0.227451 0.227451
v 0.0875911 -0.323846 0 0.227451 0.227451 0.227451
v 0.0875911 -0.363446 0 0.227451 0.227451 0.227451
v -0.0372089 -0.323846 0 0.227451 0.227451 0.227451
v -0.0372089 -0.363446 0 0.227451 0.227451 0.227451
v 0.00439114 -0.323846 0 0.227451 0.227451 0.227451
v 0.00239114 -0.323846 0 0.227451 0.227451 0.227451
v 0.00239114 -0.363446 0 0.227451 0.227451 0.227451
v 0.00439114 -0.363446 0 0.227451 0.227451 0.227451
v 0.0459911 -0.323846 0 0.227451 0.227451 0.227451
v 0.0439911 -0.323846 0 0.227451 0.227451 0.227451
v 0.0439911 -0.363446 0 0.227451 0.227451 0.227451
v 0.0459911 -0.363446 0 0.227451 0.227451 0.227451
v 0.0855911 -0.323846 0 0.227451 0.227451 0.227451
v 0.0855911 -0.363446 0 0.227451 0.227451 0.227451
v 0.0865911 -0.322846 0 0.227451 0.227451 0.227451
v 0.0875911 -0.323846 0.04 0.227451 0.227451 0.227451
v 0.127191 -0.323846 0.04 0.227451 0.227451 0.227451
v 0.129191 -0.323846 0.04 0.227451 0.227451 0.227451
v 0.129191 -0.363446 0.04 0.227451 0.227451 0.227451
v 0.0875911 -0.363446 0.04 0.227451 0.227451 0.227451
v 0.127191 -0.363446 0.04 0.227451 0.227451 0.227451
v 0.168791 -0.363446 0.04 0.227451 0.227451 0.227451
v 0.168791 -0.323846 0.04 0.227451 0.227451 0.227451
v 0.00439114 -0.323846 0.04 0.227451 0.227451 0.227451
v 0.0439911 -0.323846 0.04 0.227451 0.227451 0.227451
v -0.0372089 -0.323846 0.04 0.227451 0.227451 0.227451
v 0.00239114 -0.323846 0.04 0.227451 0.227451 0.227451
v 0.0439911 -0.363446 0.04 0.227451 0.227451 0.227451
v 0.00439114 -0.363446 0.04 0.227451 0.227451 0.227451
v 0.0459911 -0.323846 0.04 0.227451 0.227451 0.227451
v -0.0372089 -0.363446 0.04 0.227451 0.227451 0.227451
v 0.00239114 -0.363446 0.04 0.227451 0.227451 0.227451
v 0.0855911 -0.363446 0.04 0.227451 0.227451 0.227451
v 0.0459911 -0.363446 0.04 0.227451 0.227451 0.227451
v 0.0855911 -0.323846 0.04 0.227451 0.227451 0.227451
v 0.0865911 -0.322846 0.04 0.227451 0.227451 0.227451
vn -1.22465e-16 1 -0
vn 1 1.22465e-16 -0
vn 5.56146e-16 -1 -0
vn -1 -1.22465e-16 -0
vn -0 -0 -1
vn 0 0 1
vn -1.33416e-16 1 0
vn -1 -8.23363e-16 -0
vn 4.72914e-16 -1 0
vn 1 1.22465e-16 0
vn -1 -8.23363e-16 -0
vn 4.72914e-16 -1 0
vn 1 1.22465e-16 0
vn -1 -4.72914e-16 -0
vn 4.72914e-16 -1 0
vn 1 1.22465e-16 0
vn -1 -2.97689e-16 -0
vn 4.72914e-16 -1 0
vn 1 1.22465e-16 0
vn -1 -2.97689e-16 -0
vt 0 0.209
vt 0 0.0832
vt -0.04 0.0832
vt -0.04 -0.001
vt 0 -0.001
vt -0.04 0.209
vt 0 -0.0228
vt 0 -0.0218
vt 0.04 -0.0218
vt 0.04 0.0208
vt 0 0.0208
vt 0.04 -0.0228
vt -0.209 0
vt -0.1248 0
vt -0.1248 -0.04
vt 0.001 -0.04
vt 0.001 0
vt -0.209 -0.04
vt 0 0.0228
vt 0 -0.0198
vt -0.04 -0.0198
vt -0.04 -0.0208
vt 0 -0.0208
vt -0.04 0.0228
vt 0.0017 -0.0423
vt 0.0037 -0.0413
vt 0.0433 -0.0413
vt 0.0859 -0.0423
vt 0.0453 -0.0413
vt 0.0453 -0.0017
vt 0.0017 0.0003
vt 0.0037 -0.0017
vt 0.0859 0.0003
vt 0.0433 -0.0017
vt 0.0849 -0.0413
vt 0.0849 -0.0017
vt 0.2117 -0.0423
vt 0.2097 -0.0413
vt 0.2097 -0.0017
vt 0.1681 -0.0413
vt 0.1701 -0.0413
vt 0.1701 -0.0017
vt 0.1681 -0.0017
vt 0.2117 0.0003
vt 0.1265 -0.0413
vt 0.1285 -0.0413
vt 0.1285 -0.0017
vt 0.1265 -0.0017
vt 0.0869 -0.0413
vt 0.0869 -0.0017
vt 0.0859 -0.0433
vt 0.2117 -0.0433
vt 0.0017 -0.0433
vt 0.0017 -0.0423
vt 0.0017 -0.0433
vt 0.0859 -0.0433
vt 0.0859 -0.0423
vt 0.2117 -0.0433
vt 0.0849 -0.0413
vt 0.0453 -0.0413
vt 0.0433 -0.0413
vt 0.0433 -0.0017
vt 0.0859 0.0003
vt 0.0849 -0.0017
vt 0.0017 0.0003
vt 0.0453 -0.0017
vt 0.0037 -0.0017
vt 0.0037 -0.0413
vt 0.2117 -0.0423
vt 0.1681 -0.0413
vt 0.1285 -0.0413
vt 0.2097 -0.0413
vt 0.1701 -0.0413
vt 0.1285 -0.0017
vt 0.1681 -0.0017
vt 0.1265 -0.0413
vt 0.2117 0.0003
vt 0.2097 -0.0017
vt 0.1701 -0.0017
vt 0.0869 -0.0017
vt 0.1265 -0.0017
vt 0.0869 -0.0413
vt -0.0198 0
vt -0.0198 -0.04
vt 0.0198 -0.04
vt 0.0198 0
vt -0.0198 0
vt -0.0198 -0.04
vt 0.0198 -0.04
vt 0.0198 0
vt -0.0198 0
vt -0.0198 -0.04
vt 0.0198 -0.04
vt 0.0198 0
vt 0.0198 -0.04
vt 0.0198 0
vt -0.0198 0
vt -0.0198 -0.04
vt -0.0198 0
vt -0.0198 -0.04
vt 0.0198 -0.04
vt 0.0198 0
vt 0.0198 0
vt 0.0198 -0.04
vt -0.0198 -0.04
vt -0.0198 0
vt 0.0198 -0.04
vt 0.0198 0
vt -0.0198 0
vt -0.0198 -0.04
vt 0 0.0198
vt -0.04 0.0198
vt -0.04 -0.0198
vt 0 -0.0198
vt 0.0198 0
vt 0.0198 -0.04
vt -0.0198 -0.04
vt -0.0198 0
vt -0.0198 -0.04
vt 0.0198 -0.04
vt 0.0198 0
vt -0.0198 0
vt 0 0.0198
vt -0.04 0.0198
vt -0.04 -0.0198
vt 0 -0.0198
vt 0.0198 0
vt 0.0198 -0.04
vt -0.0198 -0.04
vt -0.0198 0
vt 0.0198 -0.04
vt 0.0198 0
vt -0.0198 0
vt -0.0198 -0.04
vt 0 0.0198
vt -0.04 0.0198
vt -0.04 -0.0198
vt 0 -0.0198
vt 0.0198 0
vt 0.0198 -0.04
vt -0.0198 -0.04
vt -0.0198 0
vt -0.0198 0
vt -0.0198 -0.04
vt 0.0198 -0.04
vt 0.0198 0
vt 0 0.0198
vt -0.04 0.0198
vt -0.04 -0.0198
vt 0 -0.0198
vt 0.0198 -0.04
vt 0.0198 0
vt -0.0198 0
vt -0.0198 -0.04
vt 0 0.0198
vt -0.04 0.0198
vt -0.04 -0.0198
vt 0 -0.0198
vt 0.0198 0
vt 0.0198 -0.04
vt -0.0198 -0.04
vt -0.0198 0
f 1/1/1 2/2/1 3/3/1
f 4/4/1 3/3/1 2/2/1
f 2/2/1 5/5/1 4/4/1
f 3/3/1 6/6/1 1/1/1
f 5/7/2 7/8/2 8/9/2
f 9/10/2 8/9/2 7/8/2
f 7/8/2 10/11/2 9/10/2
f 8/9/2 4/12/2 5/7/2
f 10/13/3 11/14/3 12/15/3
f 13/16/3 12/15/3 11/14/3
f 11/14/3 14/17/3 13/16/3
f 12/15/3 9/18/3 10/13/3
f 14/19/4 15/20/4 16/21/4
f 6/22/4 16/21/4 15/20/4
f 15/20/4 1/23/4 6/22/4
f 16/21/4 13/24/4 14/19/4
f 8/25/5 17/26/5 18/27/5
f 37/28/5 8/25/5 19/29/5
f 18/27/5 19/29/5 8/25/5
f 18/27/5 20/30/5 19/29/5
f 8/25/5 9/31/5 21/32/5
f 21/32/5 17/26/5 8/25/5
f 9/31/5 12/33/5 22/34/5
f 37/28/5 23/35/5 24/36/5
f 22/34/5 21/32/5 9/31/5
f 12/33/5 24/36/5 20/30/5
f 19/29/5 23/35/5 37/28/5
f 20/30/5 22/34/5 12/33/5
f 20/30/5 18/27/5 22/34/5
f 16/37/5 25/38/5 26/39/5
f 16/37/5 27/40/5 28/41/5
f 28/41/5 25/38/5 16/37/5
f 29/42/5 28/41/5 27/40/5
f 27/40/5 30/43/5 29/42/5
f 13/44/5 26/39/5 29/42/5
f 29/42/5 30/43/5 13/44/5
f 16/37/5 31/45/5 32/46/5
f 32/46/5 27/40/5 16/37/5
f 33/47/5 32/46/5 31/45/5
f 31/45/5 34/48/5 33/47/5
f 13/44/5 30/43/5 33/47/5
f 37/28/5 35/49/5 31/45/5
f 37/28/5 12/33/5 36/50/5
f 33/47/5 34/48/5 13/44/5
f 36/50/5 35/49/5 37/28/5
f 31/45/5 16/37/5 37/28/5
f 12/33/5 13/44/5 34/48/5
f 34/48/5 36/50/5 12/33/5
f 8/25/5 37/28/5 3/51/5
f 37/28/5 16/37/5 6/52/5
f 6/52/5 3/51/5 37/28/5
f 3/51/5 4/53/5 8/25/5
f 26/39/5 13/44/5 16/37/5
f 24/36/5 12/33/5 37/28/5
f 7/54/6 5/55/6 2/56/6
f 58/57/6 2/56/6 1/58/6
f 58/57/6 38/59/6 39/60/6
f 7/54/6 58/57/6 40/61/6
f 39/60/6 40/61/6 58/57/6
f 39/60/6 41/62/6 40/61/6
f 58/57/6 11/63/6 42/64/6
f 42/64/6 38/59/6 58/57/6
f 11/63/6 10/65/6 43/66/6
f 10/65/6 44/67/6 41/62/6
f 43/66/6 42/64/6 11/63/6
f 41/62/6 43/66/6 10/65/6
f 41/62/6 39/60/6 43/66/6
f 7/54/6 45/68/6 44/67/6
f 44/67/6 10/65/6 7/54/6
f 15/69/6 46/70/6 47/71/6
f 15/69/6 48/72/6 49/73/6
f 11/63/6 50/74/6 51/75/6
f 58/57/6 15/69/6 52/76/6
f 47/71/6 52/76/6 15/69/6
f 49/73/6 46/70/6 15/69/6
f 15/69/6 14/77/6 53/78/6
f 14/77/6 11/63/6 54/79/6
f 51/75/6 54/79/6 11/63/6
f 11/63/6 55/80/6 56/81/6
f 47/71/6 56/81/6 52/76/6
f 53/78/6 48/72/6 15/69/6
f 51/75/6 49/73/6 54/79/6
f 56/81/6 50/74/6 11/63/6
f 49/73/6 51/75/6 46/70/6
f 56/81/6 47/71/6 50/74/6
f 54/79/6 53/78/6 14/77/6
f 58/57/6 57/82/6 55/80/6
f 55/80/6 11/63/6 58/57/6
f 52/76/6 57/82/6 58/57/6
f 40/61/6 45/68/6 7/54/6
f 1/58/6 15/69/6 58/57/6
f 2/56/6 58/57/6 7/54/6
f 54/83/7 29/84/7 26/85/7
f 26/85/7 53/86/7 54/83/7
f 50/87/7 33/88/7 30/89/7
f 30/89/7 51/90/7 50/87/7
f 55/91/7 36/92/7 34/93/7
f 34/93/7 56/94/7 55/91/7
f 24/95/7 42/96/7 43/97/7
f 43/97/7 20/98/7 24/95/7
f 44/99/7 21/100/7 22/101/7
f 22/101/7 41/102/7 44/99/7
f 49/103/8 28/104/8 29/105/8
f 29/105/8 54/106/8 49/103/8
f 28/107/9 49/108/9 48/109/9
f 48/109/9 25/110/9 28/107/9
f 53/111/10 26/112/10 25/113/10
f 25/113/10 48/114/10 53/111/10
f 47/115/11 32/116/11 33/117/11
f 33/117/11 50/118/11 47/115/11
f 27/119/12 32/120/12 47/121/12
f 47/121/12 46/122/12 27/119/12
f 51/123/13 30/124/13 27/125/13
f 27/125/13 46/126/13 51/123/13
f 57/127/14 35/128/14 36/129/14
f 36/129/14 55/130/14 57/127/14
f 35/131/15 57/132/15 52/133/15
f 52/133/15 31/134/15 35/131/15
f 56/135/16 34/136/16 31/137/16
f 31/137/16 52/138/16 56/135/16
f 39/139/17 19/140/17 20/141/17
f 20/141/17 43/142/17 39/139/17
f 38/143/18 23/144/18 19/145/18
f 19/145/18 39/146/18 38/143/18
f 42/147/19 24/148/19 23/149/19
f 23/149/19 38/150/19 42/147/19
f 17/151/18 45/152/18 40/153/18
f 40/153/18 18/154/18 17/151/18
f 41/155/19 22/156/19 18/157/19
f 18/157/19 40/158/19 41/155/19
f 45/159/20 17/160/20 21/161/20
f 21/161/20 44/162/20 45/159/20
